<svg id="svg" version="1.1" xmlns="http://www.w3.org/2000/svg" xmlns:xlink="http://www.w3.org/1999/xlink" width="400" height="400" viewBox="0, 0, 400,400"><g id="svgg"><path id="path0" d="M233.000 13.148 C 229.815 15.126,207.944 40.509,193.906 58.521 C 189.602 64.042,188.075 64.442,178.703 62.502 C 173.732 61.474,172.761 61.405,163.200 61.402 L 153.000 61.400 148.733 62.900 C 143.245 64.829,138.989 64.826,139.816 62.894 C 140.888 60.389,140.742 60.097,136.199 55.717 C 128.295 48.095,122.065 43.298,111.605 36.780 C 109.292 35.338,104.737 32.413,101.482 30.278 C 91.495 23.730,88.400 22.961,88.400 27.029 C 88.400 27.815,88.239 27.745,86.847 26.353 C 83.232 22.738,82.066 25.413,77.418 48.000 C 75.476 57.434,74.708 62.179,73.145 74.400 C 71.958 83.690,74.782 103.610,77.782 107.098 L 78.699 108.163 79.849 106.977 C 80.482 106.325,82.125 104.401,83.501 102.701 C 85.381 100.377,86.571 99.319,88.301 98.433 C 92.180 96.446,103.373 87.160,107.334 82.643 C 112.186 77.110,134.000 63.761,134.000 66.325 C 134.000 66.974,131.676 68.784,125.470 72.968 C 121.988 75.315,118.189 77.993,117.027 78.918 C 103.969 89.317,89.029 103.707,84.885 109.878 C 76.806 121.907,67.306 141.438,64.613 151.550 C 61.813 162.066,57.714 170.141,53.086 174.256 C 49.499 177.445,50.903 179.653,55.338 177.800 C 58.117 176.639,59.196 177.615,59.208 181.300 C 59.227 187.332,61.595 196.000,63.224 196.000 C 63.403 196.000,64.056 195.055,64.675 193.900 C 66.400 190.680,67.923 190.678,69.545 193.892 C 73.442 201.611,81.480 209.037,86.456 209.515 C 90.068 209.862,90.151 209.466,88.194 201.280 C 85.740 191.020,85.223 189.188,83.998 186.395 C 82.581 183.167,82.527 182.107,83.623 178.963 C 84.076 177.663,84.551 175.042,84.680 173.139 C 84.973 168.792,84.645 168.392,78.997 166.222 C 68.829 162.313,67.782 160.611,70.621 152.600 C 71.491 150.146,71.761 148.654,71.778 146.200 C 71.811 141.407,74.063 138.000,77.199 138.000 C 78.580 138.000,80.334 138.831,86.398 142.358 C 92.864 146.119,93.007 146.054,97.594 137.238 C 101.362 129.995,101.471 129.303,99.100 127.714 C 95.937 125.595,96.775 123.543,101.891 120.881 C 106.186 118.646,107.224 117.294,110.547 109.600 C 112.798 104.389,115.355 99.483,115.800 99.522 C 116.534 99.587,116.471 100.801,115.644 102.509 C 115.194 103.439,114.643 105.484,114.421 107.052 C 114.198 108.621,113.833 110.388,113.608 110.978 C 111.924 115.407,113.281 117.333,118.294 117.631 C 122.661 117.889,124.812 118.665,126.116 120.452 C 127.913 122.913,125.812 124.256,121.252 123.562 C 115.687 122.714,112.549 123.925,112.125 127.083 C 111.791 129.576,113.164 141.655,114.597 148.836 C 117.524 163.499,124.585 173.965,124.304 163.226 C 124.123 156.266,127.928 155.242,128.961 161.973 C 129.561 165.882,132.983 170.767,138.138 175.071 C 141.510 177.886,137.638 179.195,133.581 176.610 C 128.934 173.649,127.335 175.748,129.018 182.600 C 132.398 196.352,126.062 211.111,118.190 207.822 C 115.978 206.897,116.449 205.965,119.535 205.158 C 124.713 203.804,126.184 200.968,125.759 193.154 C 125.451 187.488,125.223 186.880,122.426 184.263 C 119.252 181.294,118.336 181.567,115.936 186.194 C 114.911 188.171,113.959 190.498,113.820 191.366 C 113.638 192.502,113.162 193.294,112.115 194.199 C 110.749 195.380,110.647 195.634,110.419 198.428 L 110.177 201.400 108.505 199.700 C 103.363 194.474,104.370 182.426,110.552 175.206 C 116.239 168.564,105.125 169.093,96.288 175.884 C 88.550 181.831,88.187 183.081,90.850 194.600 C 93.237 204.922,94.665 208.726,97.368 211.962 C 99.309 214.285,99.270 215.532,97.200 217.448 C 96.320 218.262,95.600 219.148,95.600 219.415 C 95.600 220.508,94.243 221.000,91.231 221.000 C 86.825 221.000,86.932 223.403,91.400 224.803 C 93.838 225.567,95.069 227.692,93.600 228.600 C 91.754 229.741,94.223 233.095,99.637 236.804 C 107.978 242.517,117.992 245.973,132.600 248.180 C 136.340 248.745,140.009 249.308,140.753 249.432 C 152.232 251.336,182.088 247.595,198.866 242.151 C 211.047 238.198,212.540 237.138,215.226 230.535 C 217.239 225.589,217.250 224.528,215.306 222.640 C 213.511 220.897,213.729 220.229,216.413 219.237 C 219.675 218.032,219.022 216.604,215.200 216.585 C 211.363 216.566,211.310 216.554,210.792 215.585 C 209.541 213.248,212.143 211.788,216.820 212.202 C 220.262 212.506,221.672 212.051,223.165 210.154 C 225.734 206.888,221.976 204.990,217.479 207.283 C 216.420 207.823,213.688 207.771,212.998 207.198 C 211.622 206.057,212.312 203.887,215.606 198.997 C 221.299 190.544,223.566 183.054,221.599 179.198 C 217.173 170.522,206.420 163.580,197.449 163.606 C 192.669 163.620,192.231 165.069,195.940 168.599 C 207.912 179.992,204.062 203.200,190.200 203.200 C 184.572 203.200,180.561 199.852,176.460 191.733 C 174.601 188.054,174.396 180.863,176.015 176.157 C 177.052 173.142,177.052 173.139,175.186 170.984 C 173.292 168.796,173.329 168.401,175.712 165.278 C 181.595 157.569,191.652 154.690,202.722 157.547 C 209.371 159.263,210.729 159.744,215.949 162.232 C 223.109 165.644,223.967 164.754,222.017 155.937 C 220.595 149.508,219.659 148.307,212.400 143.593 C 204.359 138.373,194.927 129.916,189.327 122.908 C 184.130 116.403,182.471 116.896,181.619 125.198 C 180.206 138.972,174.770 154.313,167.925 163.844 C 165.741 166.886,164.421 167.372,162.153 165.971 C 160.300 164.826,159.646 165.154,156.660 168.721 C 151.687 174.665,149.412 176.672,146.596 177.601 C 141.889 179.155,142.050 176.553,146.900 172.684 C 153.565 167.367,156.524 163.728,160.302 156.200 C 163.332 150.164,164.654 149.438,166.308 152.900 C 167.705 155.826,168.501 155.428,170.906 150.600 C 175.172 142.033,180.170 122.141,178.643 119.809 C 177.829 118.566,176.794 118.573,173.540 119.840 C 171.111 120.787,169.600 120.245,169.600 118.427 C 169.600 115.582,171.071 114.277,175.895 112.842 C 179.874 111.657,180.026 111.317,180.302 102.936 C 180.461 98.124,180.649 96.400,181.014 96.400 C 181.935 96.400,182.941 99.344,183.200 102.800 C 183.645 108.740,186.007 112.657,189.718 113.611 C 198.940 115.982,202.221 119.340,196.753 120.813 C 193.192 121.771,196.534 126.116,207.285 134.505 C 213.581 139.418,215.261 138.991,213.200 133.000 C 212.760 131.721,212.400 130.032,212.400 129.246 L 212.400 127.818 213.427 128.845 C 215.292 130.711,223.211 146.684,223.617 149.400 C 223.814 150.720,224.506 153.366,225.156 155.280 C 227.103 161.022,227.741 165.647,227.766 174.200 C 227.793 183.493,227.477 184.766,222.323 196.116 C 220.444 200.256,220.514 200.800,222.932 200.800 C 224.173 200.800,225.145 201.111,226.244 201.859 C 230.405 204.689,234.336 202.828,241.407 194.682 C 243.753 191.980,244.988 190.913,246.731 190.082 C 250.994 188.049,253.143 181.203,254.391 165.669 C 255.460 152.369,251.547 138.133,241.180 117.600 C 234.711 104.787,232.846 99.975,234.154 99.473 C 235.461 98.971,237.470 101.143,240.820 106.677 C 245.352 114.167,245.689 113.970,245.524 103.931 L 245.400 96.339 246.522 95.370 C 248.320 93.817,249.323 94.109,259.148 99.051 C 269.649 104.333,269.600 104.327,269.600 100.427 C 269.600 97.265,268.221 86.533,267.257 82.200 C 266.817 80.220,266.159 76.800,265.794 74.600 C 263.325 59.714,258.749 46.344,250.571 30.119 C 243.090 15.278,239.428 11.925,240.949 21.310 C 242.385 30.167,242.858 51.190,241.937 65.200 C 241.698 68.830,241.476 76.074,241.442 81.298 C 241.384 90.490,241.354 90.824,240.508 91.670 C 237.509 94.669,234.560 86.475,236.556 80.691 C 238.683 74.528,239.321 59.293,237.641 54.800 C 236.886 52.782,236.801 51.459,236.617 38.800 C 236.243 13.012,235.999 11.286,233.000 13.148 M91.557 32.996 C 91.801 33.966,92.619 35.812,93.373 37.100 C 94.127 38.387,94.870 39.971,95.023 40.620 C 95.176 41.269,95.824 42.732,96.464 43.872 C 97.103 45.011,97.896 46.852,98.226 47.964 C 98.556 49.075,99.360 51.174,100.013 52.629 C 101.248 55.382,101.500 56.967,100.775 57.416 C 99.768 58.038,97.228 54.200,97.209 52.026 C 97.204 51.491,96.846 50.321,96.414 49.426 C 95.674 47.894,95.228 46.687,92.363 38.463 C 91.724 36.627,90.819 34.589,90.353 33.934 C 89.555 32.813,88.380 29.599,88.417 28.636 C 88.455 27.635,91.149 31.376,91.557 32.996 M230.984 48.975 C 235.348 50.289,236.198 53.200,232.217 53.200 C 227.103 53.200,225.328 55.609,226.604 60.818 L 227.283 63.588 226.212 65.415 C 225.245 67.065,225.167 67.488,225.410 69.757 C 225.648 71.978,225.559 72.508,224.640 74.322 C 223.356 76.855,223.351 77.389,224.590 79.400 C 226.224 82.053,225.778 83.600,223.379 83.600 C 221.596 83.600,219.566 82.097,218.412 79.922 L 217.425 78.060 218.172 75.058 C 218.821 72.452,218.852 71.816,218.407 70.227 C 217.716 67.757,218.051 65.803,219.589 63.336 C 220.678 61.587,220.921 60.730,221.171 57.736 C 221.591 52.729,223.313 49.984,226.694 48.931 C 228.691 48.308,228.772 48.309,230.984 48.975 M233.030 55.826 C 237.007 56.982,237.411 58.914,236.396 71.957 C 235.704 80.861,231.656 84.411,227.340 79.900 C 225.114 77.573,225.020 77.100,226.249 74.363 C 227.125 72.410,227.260 71.673,227.040 70.020 C 226.816 68.328,226.937 67.723,227.852 65.974 L 228.927 63.918 228.246 61.030 C 227.044 55.931,228.383 54.475,233.030 55.826 M94.426 58.814 C 96.122 59.721,95.167 61.258,92.075 62.597 C 88.231 64.262,87.353 67.187,89.800 70.174 C 91.467 72.209,91.532 73.090,90.185 75.390 C 89.262 76.964,89.210 77.284,89.611 78.879 C 89.991 80.386,89.936 80.932,89.227 82.732 C 88.772 83.886,88.400 85.552,88.400 86.434 C 88.400 88.354,87.050 89.842,84.950 90.236 C 82.114 90.768,80.501 88.072,81.588 84.616 C 81.867 83.727,82.209 81.380,82.348 79.400 C 82.520 76.943,82.822 75.486,83.300 74.811 C 84.158 73.599,84.186 72.229,83.400 70.000 C 81.216 63.811,89.003 55.911,94.426 58.814 M100.316 63.202 C 101.119 64.064,102.771 68.612,103.789 72.767 C 104.135 74.179,104.774 75.911,105.209 76.614 C 107.301 80.000,105.807 82.295,96.200 90.446 C 91.155 94.727,90.458 95.200,89.191 95.200 C 86.808 95.200,86.540 92.978,88.603 90.331 C 89.742 88.869,90.073 88.010,90.363 85.765 C 90.560 84.244,90.922 82.484,91.168 81.854 C 91.427 81.189,91.508 79.897,91.359 78.779 C 91.152 77.215,91.264 76.591,91.952 75.478 C 93.232 73.406,93.065 71.653,91.400 69.708 C 88.919 66.810,89.804 65.096,94.627 63.455 C 98.170 62.250,99.379 62.196,100.316 63.202 M202.846 103.647 C 206.900 104.517,207.961 107.228,205.500 110.428 C 202.823 113.909,200.620 114.272,193.818 112.354 C 188.272 110.790,188.093 110.691,187.175 108.668 C 185.284 104.504,186.070 103.666,192.024 103.499 C 194.541 103.429,197.536 103.333,198.680 103.286 C 199.824 103.238,201.699 103.401,202.846 103.647 M138.800 105.828 C 142.445 106.163,146.490 106.294,148.615 106.146 C 151.431 105.950,152.754 106.046,154.600 106.583 C 156.854 107.238,157.073 107.237,159.062 106.561 C 162.335 105.449,164.453 107.029,163.782 110.083 C 163.310 112.230,161.518 112.767,158.131 111.777 C 157.447 111.577,156.724 112.023,154.731 113.872 C 149.661 118.576,147.173 119.374,138.427 119.103 C 128.332 118.790,122.788 115.146,122.739 108.792 C 122.704 104.346,122.698 104.347,138.800 105.828 M93.521 107.244 C 93.939 110.841,84.159 127.200,81.592 127.200 C 78.634 127.200,80.529 121.191,86.344 112.125 C 89.823 106.702,93.192 104.411,93.521 107.244 M275.712 117.300 C 273.453 119.758,269.495 130.014,268.342 136.400 C 267.485 141.142,267.688 191.667,268.590 198.188 C 269.204 202.630,269.203 203.147,268.573 205.973 C 267.710 209.842,267.980 214.084,269.591 221.976 C 270.245 225.179,271.243 230.312,271.808 233.381 C 273.020 239.969,273.561 241.287,276.580 245.000 C 281.054 250.502,281.983 253.414,282.259 262.800 C 282.492 270.760,282.593 271.095,288.014 282.000 C 291.730 289.475,294.108 294.874,297.382 303.271 C 298.429 305.958,299.476 307.834,300.800 309.399 C 303.156 312.187,304.167 314.822,305.251 321.000 C 306.335 327.183,306.546 327.733,307.703 327.371 C 311.373 326.221,316.305 317.700,317.526 310.400 C 318.728 303.217,319.136 300.014,319.093 298.116 C 319.028 295.227,319.895 294.275,322.270 294.631 C 324.892 295.025,324.797 292.727,322.030 288.842 C 319.498 285.286,319.770 278.219,322.349 280.554 C 323.462 281.561,327.083 289.003,327.595 291.334 C 327.828 292.398,328.442 294.288,328.958 295.534 C 329.475 296.780,330.115 298.475,330.380 299.300 C 331.909 304.060,333.168 296.437,331.816 290.600 C 330.320 284.139,328.327 276.736,327.455 274.400 C 325.352 268.766,323.846 264.518,323.343 262.800 L 322.817 261.000 323.778 262.169 C 324.980 263.630,328.818 270.768,329.751 273.277 C 331.602 278.256,333.401 279.456,336.636 277.870 C 340.974 275.742,343.913 275.761,353.200 277.977 C 358.184 279.166,362.914 280.136,367.324 280.874 C 373.422 281.894,380.246 279.078,380.951 275.251 C 383.088 263.652,369.160 246.291,355.400 243.402 C 340.288 240.229,321.688 247.984,321.867 257.382 L 321.905 259.400 318.913 256.400 C 314.620 252.095,311.435 245.570,310.405 238.967 C 310.168 237.445,309.539 234.220,309.008 231.800 C 308.477 229.380,307.850 225.240,307.614 222.600 C 307.110 216.964,306.590 213.840,305.772 211.521 C 305.446 210.597,304.990 208.031,304.760 205.820 C 304.529 203.609,303.900 200.501,303.363 198.913 C 302.579 196.596,302.402 195.332,302.467 192.513 C 302.516 190.408,302.332 188.359,302.009 187.400 C 301.341 185.415,301.243 181.002,301.854 180.388 C 302.601 179.638,303.578 182.178,303.846 185.568 C 304.023 187.819,304.370 189.115,305.192 190.600 C 305.801 191.700,306.438 193.140,306.607 193.800 L 306.915 195.000 307.288 193.400 C 308.061 190.079,307.391 173.902,306.245 168.217 C 305.490 164.472,305.200 161.793,305.200 158.562 C 305.200 153.156,304.212 149.288,301.123 142.600 C 297.575 134.921,296.050 131.323,295.155 128.523 C 294.080 125.161,292.294 123.307,288.909 122.041 C 287.587 121.546,284.726 120.079,282.552 118.780 C 278.243 116.204,276.972 115.929,275.712 117.300 M188.990 124.974 C 194.090 131.316,203.473 139.620,211.000 144.455 C 217.526 148.648,217.606 148.716,218.656 151.009 C 219.203 152.205,220.032 154.993,220.498 157.205 C 221.716 162.988,221.541 163.104,215.551 160.461 C 208.900 157.527,201.650 155.575,196.027 155.206 L 191.455 154.906 190.009 153.211 C 187.844 150.672,185.329 150.762,179.887 153.574 C 174.680 156.264,174.696 156.325,178.175 147.085 C 180.118 141.925,182.046 134.581,182.816 129.400 C 184.280 119.557,184.504 119.397,188.990 124.974 M103.944 130.061 C 101.896 132.279,96.613 143.391,95.794 147.200 C 95.629 147.970,94.707 150.612,93.746 153.072 C 88.577 166.298,89.185 170.032,95.955 166.622 C 97.460 165.865,100.155 164.871,101.945 164.414 C 103.735 163.957,105.620 163.391,106.135 163.157 C 106.836 162.837,107.592 162.885,109.152 163.349 C 113.364 164.600,114.198 163.237,112.409 158.027 C 110.433 152.271,109.028 144.301,108.439 135.505 C 107.948 128.165,106.884 126.876,103.944 130.061 M106.979 136.339 C 107.109 137.802,107.483 141.340,107.811 144.200 C 108.139 147.060,108.405 150.588,108.403 152.040 C 108.401 154.291,108.606 155.067,109.800 157.318 C 111.387 160.309,111.583 161.600,110.449 161.600 C 109.369 161.600,108.756 160.679,108.532 158.716 C 107.990 153.972,106.423 153.448,105.800 157.803 C 105.207 161.953,104.884 162.273,99.915 163.650 C 98.377 164.077,96.424 164.780,95.575 165.213 C 93.089 166.481,92.000 166.296,92.000 164.604 C 92.000 161.151,95.956 150.205,100.978 139.765 C 105.016 131.368,106.468 130.540,106.979 136.339 M259.730 137.784 C 257.140 138.910,256.915 139.885,258.122 144.736 C 258.705 147.081,259.379 149.933,259.619 151.074 C 260.725 156.331,261.465 154.601,261.978 145.560 C 262.444 137.347,262.253 136.686,259.730 137.784 M185.200 154.192 C 185.200 154.460,182.128 156.000,181.592 156.000 C 180.829 156.000,181.645 155.143,182.948 154.576 C 184.233 154.017,185.200 153.852,185.200 154.192 M175.571 159.454 C 176.749 160.952,176.624 161.607,174.649 164.290 C 171.459 168.623,171.347 169.275,173.400 171.547 C 174.961 173.275,175.043 173.772,174.217 176.492 C 170.181 189.793,178.612 204.836,190.145 204.911 C 204.818 205.005,209.896 182.512,198.332 168.646 C 196.009 165.861,196.040 165.440,198.580 165.276 C 206.143 164.787,217.625 172.754,220.605 180.558 C 221.858 183.839,219.682 189.862,214.014 198.800 C 209.457 205.984,210.033 205.600,203.825 205.603 C 198.146 205.606,198.331 205.548,194.858 208.381 C 191.245 211.328,190.467 214.947,192.919 217.399 C 194.727 219.207,196.453 219.630,203.284 219.940 L 209.168 220.206 210.684 221.659 C 211.518 222.458,212.782 223.405,213.494 223.763 C 215.484 224.765,215.505 225.810,213.617 230.113 C 211.180 235.670,209.289 236.975,198.746 240.378 C 161.775 252.308,121.229 249.918,99.300 234.515 C 95.880 232.113,95.324 230.979,96.420 228.647 C 97.741 225.837,97.996 225.726,103.669 225.494 C 114.847 225.038,117.760 220.888,112.333 213.151 C 109.970 209.782,109.437 209.574,103.933 209.869 C 96.326 210.276,95.975 209.793,92.217 193.748 C 89.908 183.888,90.123 182.821,95.309 178.399 C 99.490 174.833,104.369 172.331,107.293 172.255 C 110.017 172.183,110.143 172.813,108.026 175.914 C 99.564 188.312,104.312 205.281,117.458 209.619 C 126.380 212.564,133.521 199.764,130.969 185.400 C 129.542 177.361,129.931 176.554,134.166 178.782 C 136.345 179.928,136.744 180.000,140.941 180.000 C 147.340 179.999,149.034 179.146,155.282 172.774 C 160.153 167.807,160.288 167.724,162.328 168.435 C 165.009 169.369,167.182 167.754,171.142 161.887 C 172.967 159.181,173.591 158.534,174.471 158.432 C 174.620 158.414,175.115 158.874,175.571 159.454 M260.473 170.008 C 260.262 170.563,259.514 173.893,258.811 177.408 C 257.636 183.287,256.784 185.954,253.765 193.200 C 252.727 195.692,252.702 195.917,253.156 198.633 C 253.674 201.731,253.076 208.782,251.586 217.132 C 250.543 222.979,251.040 223.670,254.195 220.762 C 260.136 215.286,261.232 211.458,261.513 195.200 C 261.934 170.835,261.760 166.623,260.473 170.008 M186.693 175.636 C 185.885 176.106,182.660 180.864,182.036 182.506 C 181.571 183.729,181.917 184.998,183.211 186.816 C 184.176 188.170,183.997 188.720,182.195 189.951 C 176.003 194.179,184.984 202.470,192.851 199.789 C 199.376 197.566,201.373 189.200,195.379 189.200 C 192.537 189.200,192.097 188.148,193.790 185.400 C 195.444 182.715,195.188 181.126,192.713 178.715 C 189.446 175.533,188.074 174.832,186.693 175.636 M52.541 189.296 C 52.372 189.569,52.109 194.744,51.955 200.796 C 51.466 220.054,48.858 233.306,43.961 241.413 C 39.940 248.070,32.110 256.931,27.289 260.281 C 22.510 263.602,24.154 265.214,33.502 266.372 C 37.771 266.901,38.316 266.638,40.248 263.113 C 43.522 257.139,46.499 257.370,44.179 263.419 C 35.907 284.988,36.931 316.310,46.063 321.033 C 48.454 322.269,49.155 321.157,48.036 317.904 C 46.703 314.030,45.951 308.515,46.391 305.836 C 46.604 304.536,46.683 302.196,46.567 300.636 C 46.217 295.966,47.618 295.290,48.157 299.869 C 48.298 301.070,48.856 302.926,49.397 303.994 C 49.938 305.061,51.109 307.764,52.000 310.000 C 56.097 320.284,56.554 320.294,61.365 310.200 C 63.224 306.299,65.802 301.973,69.861 295.943 C 76.550 286.007,76.536 286.049,75.346 279.751 C 74.258 273.988,74.338 253.748,75.499 241.415 C 76.311 232.782,76.312 232.589,75.576 230.223 L 74.826 227.815 75.813 225.659 C 77.427 222.133,77.250 221.552,74.200 220.390 C 71.450 219.342,72.062 217.637,75.950 215.519 C 79.356 213.662,72.361 206.400,67.166 206.400 C 62.130 206.400,58.553 202.610,56.029 194.600 C 54.322 189.184,53.439 187.842,52.541 189.296 M241.800 204.374 C 239.428 204.551,238.067 204.892,236.542 205.692 C 235.409 206.286,233.249 206.968,231.742 207.208 C 226.967 207.967,225.714 209.844,229.000 211.317 C 232.984 213.102,233.399 213.390,233.522 214.450 C 233.730 216.245,232.725 216.800,229.260 216.800 C 223.613 216.800,222.694 218.950,227.109 221.834 C 232.909 225.622,231.810 229.965,225.800 227.009 C 222.396 225.335,220.866 225.933,219.993 229.279 C 219.746 230.226,219.036 232.620,218.414 234.600 C 210.221 260.708,209.681 273.030,216.136 286.542 C 219.843 294.301,220.801 293.794,220.797 284.076 C 220.793 275.905,221.331 268.226,222.226 263.689 C 222.542 262.087,222.808 259.837,222.817 258.689 C 222.875 251.755,224.783 250.114,225.171 256.663 C 225.538 262.847,226.784 262.813,231.500 256.486 C 239.571 245.660,245.290 228.156,247.440 207.703 C 247.731 204.937,247.300 203.952,245.851 204.068 C 245.383 204.105,243.560 204.243,241.800 204.374 M161.219 206.388 C 158.037 208.345,156.092 208.665,151.335 208.012 L 147.650 207.506 144.725 208.941 C 143.116 209.730,140.990 210.496,140.000 210.643 C 135.930 211.246,135.110 212.589,137.066 215.444 C 137.652 216.300,138.621 218.260,139.218 219.800 C 143.202 230.061,149.713 234.680,157.014 232.425 C 159.125 231.773,160.605 231.592,163.136 231.678 C 168.387 231.856,169.600 229.694,169.600 220.157 C 169.600 206.526,167.256 202.675,161.219 206.388 M166.345 208.153 C 168.495 212.660,163.373 214.373,152.431 212.804 C 149.017 212.315,148.950 212.322,145.216 213.573 C 143.144 214.268,141.077 214.783,140.624 214.718 C 139.159 214.508,139.731 213.463,141.695 212.760 C 142.737 212.387,144.447 211.509,145.495 210.808 C 147.204 209.665,147.606 209.560,149.400 209.780 C 154.700 210.432,155.677 210.461,157.518 210.020 C 158.606 209.759,160.374 208.933,161.448 208.184 C 163.905 206.471,165.537 206.461,166.345 208.153 M260.767 221.235 C 257.308 224.982,257.195 226.818,260.252 229.543 C 265.671 234.374,267.362 233.489,266.166 226.448 C 265.456 222.270,264.816 220.651,263.622 220.012 C 262.500 219.411,262.419 219.446,260.767 221.235 M263.857 223.875 C 265.683 228.244,264.866 230.848,262.190 229.194 C 259.375 227.454,259.074 225.962,261.063 223.598 C 262.394 222.016,263.110 222.087,263.857 223.875 M81.457 235.700 C 76.578 249.687,77.061 271.713,82.565 286.176 C 84.491 291.237,86.865 293.192,87.430 290.181 C 87.576 289.401,87.574 284.766,87.426 279.881 C 87.277 274.997,87.182 267.310,87.213 262.800 C 87.245 258.290,87.064 251.990,86.812 248.800 C 86.279 242.075,86.614 240.187,88.500 239.284 C 89.987 238.571,89.971 238.526,86.957 234.836 C 83.461 230.557,83.239 230.592,81.457 235.700 M248.662 236.583 C 246.368 237.401,245.425 238.513,243.784 242.336 C 239.588 252.107,237.138 256.447,232.240 262.785 C 229.757 265.997,228.605 267.939,228.968 268.301 C 230.741 270.074,255.510 255.030,259.197 249.941 C 264.605 242.475,257.478 233.440,248.662 236.583 M91.600 241.305 C 91.600 241.637,91.863 242.514,92.184 243.254 L 92.769 244.600 92.784 243.149 C 92.793 242.330,92.539 241.481,92.200 241.200 C 91.712 240.795,91.600 240.814,91.600 241.305 M355.713 244.994 C 363.241 246.955,372.220 253.912,375.530 260.346 C 379.761 268.573,380.582 275.837,377.467 277.484 C 375.651 278.443,367.788 278.439,363.000 277.476 C 361.020 277.077,358.590 276.600,357.600 276.416 C 356.610 276.231,354.000 275.584,351.800 274.977 C 346.019 273.382,340.709 273.354,337.560 274.900 C 333.775 276.759,333.267 276.485,331.076 271.398 C 330.318 269.639,328.416 265.614,326.849 262.453 C 322.959 254.606,323.220 253.337,329.611 248.993 C 335.519 244.979,348.196 243.036,355.713 244.994 M203.591 256.764 C 199.423 261.707,193.980 269.912,192.394 273.642 C 191.271 276.286,190.138 278.183,188.763 279.726 C 185.877 282.964,181.890 291.695,182.533 293.370 C 182.949 294.455,183.763 294.088,187.771 291.013 C 192.625 287.286,199.068 283.223,203.402 281.153 C 207.525 279.185,207.928 278.479,207.256 274.406 C 206.767 271.447,206.697 262.411,207.134 258.800 C 207.701 254.113,206.439 253.388,203.591 256.764 M103.822 262.355 C 95.507 271.643,94.023 275.920,94.572 289.006 C 95.281 305.905,97.959 308.405,103.564 297.400 C 104.908 294.760,106.899 290.980,107.989 289.000 C 109.078 287.020,110.255 284.410,110.604 283.200 C 110.953 281.990,111.680 279.873,112.220 278.496 C 113.496 275.234,113.466 274.663,111.780 270.349 C 110.869 268.017,110.215 265.477,109.955 263.258 C 109.165 256.508,109.069 256.494,103.822 262.355 M113.886 280.100 C 112.414 282.103,110.942 284.873,110.643 286.200 C 110.225 288.053,108.148 293.199,105.129 299.863 C 103.618 303.198,102.050 306.888,101.645 308.063 C 101.239 309.239,100.181 311.910,99.293 314.000 C 96.812 319.843,96.575 320.772,92.821 339.400 C 90.074 353.035,89.619 369.535,91.587 384.193 C 92.930 394.195,92.361 393.761,103.600 393.370 C 108.110 393.213,114.140 393.012,117.000 392.924 C 119.860 392.835,124.090 392.660,126.400 392.534 C 128.710 392.408,131.500 392.303,132.600 392.302 C 133.700 392.300,138.020 392.301,142.200 392.304 C 164.015 392.318,162.794 392.902,162.014 382.833 C 161.351 374.267,162.093 360.526,163.577 353.905 C 163.791 352.947,164.420 349.382,164.975 345.982 C 165.529 342.582,166.896 335.480,168.013 330.200 C 169.130 324.920,170.235 319.430,170.469 318.000 C 170.704 316.570,171.504 313.600,172.249 311.400 C 172.993 309.200,174.125 305.690,174.765 303.600 C 175.404 301.510,177.024 296.962,178.364 293.494 C 182.574 282.596,181.455 281.648,169.445 285.942 C 160.244 289.232,159.860 290.428,164.683 300.800 C 168.832 309.723,169.531 313.069,167.702 315.244 C 166.572 316.587,159.818 320.045,155.734 321.371 C 151.334 322.800,150.795 324.368,151.740 332.983 C 152.732 342.014,152.263 344.000,149.138 344.000 C 144.859 344.000,143.870 339.169,145.208 324.800 C 146.838 307.292,146.329 298.557,143.541 296.212 C 141.288 294.316,140.609 295.007,140.201 299.612 C 140.055 301.256,139.667 303.571,139.340 304.758 C 139.012 305.946,138.646 308.196,138.528 309.758 C 138.409 311.321,137.806 314.588,137.188 317.018 C 136.570 319.448,135.682 323.858,135.214 326.818 C 134.746 329.778,134.122 333.730,133.826 335.600 C 132.534 343.779,129.381 348.005,126.076 345.990 C 123.183 344.226,123.068 341.963,125.219 329.200 C 127.021 318.510,126.909 317.935,123.014 317.838 C 120.052 317.765,118.411 316.087,115.294 309.948 C 112.631 304.701,112.621 304.004,115.158 300.693 C 117.695 297.383,122.812 289.025,123.474 287.111 C 124.205 284.995,123.715 284.072,120.351 281.241 C 116.824 278.272,115.412 278.023,113.886 280.100 M119.707 283.414 C 122.768 286.347,122.445 287.324,114.588 298.870 C 110.806 304.428,110.802 304.619,114.361 311.208 C 117.245 316.550,119.493 319.010,121.847 319.403 C 122.701 319.546,123.620 319.731,123.888 319.814 C 124.943 320.142,124.893 322.324,123.661 329.796 C 121.699 341.701,121.914 344.437,125.029 347.172 C 127.238 349.112,128.183 349.444,129.284 348.666 C 134.684 344.854,135.187 344.049,135.781 338.284 C 136.583 330.499,138.160 320.007,138.849 317.868 C 139.287 316.511,139.821 313.877,140.037 312.016 C 140.484 308.145,142.131 301.309,142.770 300.670 C 144.852 298.588,145.407 308.643,143.965 322.297 C 142.221 338.805,143.664 345.591,148.920 345.599 C 153.119 345.604,154.222 342.687,153.228 334.200 C 152.270 326.018,152.646 324.295,155.671 323.017 C 156.622 322.616,159.593 321.307,162.274 320.109 C 169.643 316.816,169.446 316.375,166.607 329.800 C 165.583 334.640,164.473 340.310,164.141 342.400 C 163.808 344.490,163.110 348.540,162.589 351.400 C 160.409 363.365,160.112 368.400,160.522 386.393 C 160.615 390.425,160.709 390.363,155.676 389.581 C 152.470 389.082,152.286 389.097,150.476 389.993 C 146.488 391.969,135.858 391.575,133.218 389.354 L 132.000 388.329 130.769 389.364 C 129.392 390.524,128.934 390.592,126.811 389.956 C 125.604 389.594,125.100 389.631,124.085 390.156 C 120.740 391.886,117.036 390.460,113.281 386.000 C 108.188 379.950,104.538 375.380,101.966 371.833 C 99.113 367.898,96.907 366.714,97.063 369.200 C 97.127 370.226,103.560 380.153,107.767 385.718 C 110.534 389.378,110.478 389.545,106.338 390.025 C 96.803 391.129,94.816 390.340,94.792 385.440 C 94.787 384.538,94.428 381.100,93.993 377.800 C 93.559 374.500,93.199 370.090,93.195 368.000 C 93.190 365.910,92.926 362.614,92.608 360.676 C 91.789 355.678,92.355 350.953,95.994 332.400 C 98.229 321.007,101.057 312.356,105.409 303.600 C 106.339 301.730,108.667 296.600,110.584 292.200 C 115.601 280.686,116.229 280.081,119.707 283.414 M178.607 286.500 C 178.745 287.059,177.850 290.148,176.246 294.652 C 174.825 298.640,173.286 303.169,172.825 304.715 C 172.047 307.330,170.721 309.662,170.276 309.200 C 170.170 309.090,168.708 306.037,167.026 302.415 C 161.574 290.672,161.630 290.444,170.800 287.150 C 175.810 285.350,178.272 285.145,178.607 286.500 M129.000 289.664 C 127.092 290.713,122.066 296.305,120.031 299.641 C 117.899 303.138,121.169 310.654,124.218 309.265 C 125.307 308.768,130.081 301.782,131.833 298.121 C 134.544 292.454,132.893 287.524,129.000 289.664 M131.242 293.112 C 132.351 296.028,125.031 308.394,122.878 307.242 C 120.701 306.076,120.236 302.226,121.954 299.578 C 126.269 292.926,130.146 290.227,131.242 293.112 M153.299 294.019 C 149.843 296.561,149.395 298.478,150.968 304.000 C 151.501 305.870,152.227 308.768,152.582 310.439 C 153.548 314.988,154.838 315.979,157.902 314.525 C 162.481 312.352,163.285 309.796,161.236 303.932 C 160.595 302.099,159.681 299.272,159.204 297.650 C 157.787 292.832,156.223 291.870,153.299 294.019 M156.506 295.763 C 157.067 296.324,160.511 305.925,160.967 308.200 C 161.486 310.787,157.388 314.346,155.400 313.035 C 154.553 312.477,151.662 302.300,151.620 299.733 C 151.574 296.859,154.900 294.157,156.506 295.763 M324.924 303.460 C 324.409 304.246,324.162 305.773,323.969 309.360 C 323.552 317.115,320.130 324.645,314.226 330.800 C 309.789 335.426,309.782 337.093,314.135 354.158 C 315.965 361.336,318.089 360.570,322.898 351.000 C 326.740 343.354,328.622 329.634,326.971 321.311 C 326.220 317.526,326.432 315.250,328.022 310.058 C 329.594 304.923,327.244 299.919,324.924 303.460 M182.743 306.702 C 179.671 310.353,177.715 316.491,177.337 323.663 C 177.141 327.386,176.846 329.217,176.138 331.109 C 175.445 332.963,175.200 334.443,175.200 336.774 C 175.200 338.876,174.944 340.642,174.432 342.064 C 173.445 344.812,172.340 349.669,172.176 351.987 C 172.105 352.984,171.840 356.320,171.587 359.400 C 171.333 362.480,171.144 365.180,171.167 365.400 C 171.189 365.620,171.268 369.177,171.342 373.305 C 171.481 381.089,171.584 381.658,172.719 380.944 C 173.256 380.606,173.460 379.627,173.684 376.309 C 173.840 373.995,174.245 370.247,174.584 367.980 C 174.923 365.714,175.202 361.506,175.204 358.630 C 175.207 355.155,175.409 352.741,175.804 351.436 C 176.132 350.356,176.403 348.646,176.407 347.636 C 176.417 345.133,177.408 339.743,178.209 337.834 C 178.570 336.973,179.190 334.633,179.585 332.634 C 180.432 328.357,181.346 324.635,182.652 320.141 C 183.174 318.349,183.606 315.829,183.613 314.541 C 183.620 313.254,183.788 310.946,183.985 309.414 C 184.441 305.873,184.089 305.104,182.743 306.702 M181.200 317.176 C 181.200 317.961,180.524 318.657,180.137 318.270 C 179.823 317.956,180.397 316.400,180.827 316.400 C 181.032 316.400,181.200 316.749,181.200 317.176 M53.695 320.065 C 52.538 321.222,53.534 323.425,55.081 323.128 C 56.187 322.914,56.111 319.845,54.995 319.685 C 54.553 319.621,53.968 319.792,53.695 320.065 M324.593 322.300 C 327.142 328.703,322.891 349.993,318.180 354.418 C 316.512 355.986,315.075 352.834,313.162 343.407 C 311.627 335.847,311.670 335.617,315.326 331.697 C 316.914 329.994,319.441 327.025,320.940 325.100 C 323.803 321.425,324.141 321.165,324.593 322.300 M90.414 326.374 C 89.802 327.518,89.891 329.600,90.551 329.600 C 91.291 329.600,92.138 327.466,91.809 326.429 C 91.480 325.391,90.951 325.370,90.414 326.374 M87.424 341.307 C 87.078 341.835,86.636 343.532,86.442 345.077 C 86.248 346.622,85.912 348.227,85.695 348.643 C 83.580 352.711,82.236 366.702,83.834 368.028 C 86.032 369.853,88.011 362.828,88.009 353.200 C 88.009 349.207,88.194 346.788,88.604 345.436 C 89.689 341.859,88.892 339.068,87.424 341.307 " stroke="none" fill="#dd9c6f" fill-rule="evenodd"></path><path id="path1" d="M229.078 55.644 C 227.738 56.424,227.509 57.904,228.246 61.030 L 228.927 63.918 227.852 65.974 C 226.937 67.723,226.816 68.328,227.040 70.020 C 227.260 71.673,227.125 72.410,226.249 74.363 C 225.020 77.100,225.114 77.573,227.340 79.900 C 229.930 82.607,233.563 81.901,235.305 78.352 C 236.825 75.256,237.352 59.210,235.991 57.480 C 234.752 55.904,230.549 54.788,229.078 55.644 M94.627 63.455 C 89.804 65.096,88.919 66.810,91.400 69.708 C 93.065 71.653,93.232 73.406,91.952 75.478 C 91.264 76.591,91.152 77.215,91.359 78.779 C 91.508 79.897,91.427 81.189,91.168 81.854 C 90.922 82.484,90.560 84.244,90.363 85.765 C 90.073 88.010,89.742 88.869,88.603 90.331 C 86.540 92.978,86.808 95.200,89.191 95.200 C 90.458 95.200,91.155 94.727,96.200 90.446 C 105.807 82.295,107.301 80.000,105.209 76.614 C 104.774 75.911,104.135 74.179,103.789 72.767 C 101.266 62.471,100.326 61.516,94.627 63.455 M192.024 103.499 C 186.070 103.666,185.284 104.504,187.175 108.668 C 188.093 110.691,188.272 110.790,193.818 112.354 C 200.620 114.272,202.823 113.909,205.500 110.428 C 208.734 106.224,205.654 102.999,198.680 103.286 C 197.536 103.333,194.541 103.429,192.024 103.499 M123.394 105.752 C 121.532 108.594,123.335 113.750,127.055 116.219 C 130.548 118.537,131.990 118.903,138.427 119.103 C 147.173 119.374,149.661 118.576,154.731 113.872 C 156.724 112.023,157.447 111.577,158.131 111.777 C 161.518 112.767,163.310 112.230,163.782 110.083 C 164.453 107.029,162.335 105.449,159.062 106.561 C 157.073 107.237,156.854 107.238,154.600 106.583 C 152.754 106.046,151.431 105.950,148.615 106.146 C 146.490 106.294,142.445 106.163,138.800 105.828 C 125.387 104.594,124.157 104.588,123.394 105.752 M90.048 107.404 C 85.795 111.247,79.286 123.916,80.358 126.267 C 81.430 128.621,84.032 126.406,87.979 119.774 C 94.207 109.313,95.324 102.638,90.048 107.404 M184.011 122.700 C 183.779 123.525,183.242 126.540,182.816 129.400 C 182.046 134.581,180.118 141.925,178.175 147.085 C 174.696 156.325,174.680 156.264,179.887 153.574 C 185.329 150.762,187.844 150.672,190.009 153.211 L 191.455 154.906 196.027 155.206 C 201.650 155.575,208.900 157.527,215.551 160.461 C 221.541 163.104,221.716 162.988,220.498 157.205 C 220.032 154.993,219.203 152.205,218.656 151.009 C 217.606 148.716,217.526 148.648,211.000 144.455 C 203.473 139.620,194.090 131.316,188.990 124.974 C 185.565 120.716,184.681 120.313,184.011 122.700 M104.840 133.057 C 102.978 134.361,94.882 152.616,92.845 160.104 C 91.258 165.937,91.879 167.098,95.575 165.213 C 96.424 164.780,98.377 164.077,99.915 163.650 C 104.884 162.273,105.207 161.953,105.800 157.803 C 106.423 153.448,107.990 153.972,108.532 158.716 C 108.756 160.679,109.369 161.600,110.449 161.600 C 111.583 161.600,111.387 160.309,109.800 157.318 C 108.606 155.067,108.401 154.291,108.403 152.040 C 108.405 150.588,108.139 147.060,107.811 144.200 C 107.483 141.340,107.109 137.802,106.979 136.339 C 106.676 132.896,106.172 132.124,104.840 133.057 M173.687 158.669 C 173.404 158.783,172.259 160.230,171.142 161.887 C 167.182 167.754,165.009 169.369,162.328 168.435 C 160.288 167.724,160.153 167.807,155.282 172.774 C 149.034 179.146,147.340 179.999,140.941 180.000 C 136.744 180.000,136.345 179.928,134.166 178.782 C 129.931 176.554,129.542 177.361,130.969 185.400 C 133.521 199.764,126.380 212.564,117.458 209.619 C 104.312 205.281,99.564 188.312,108.026 175.914 C 110.143 172.813,110.017 172.183,107.293 172.255 C 104.369 172.331,99.490 174.833,95.309 178.399 C 90.123 182.821,89.908 183.888,92.217 193.748 C 95.975 209.793,96.326 210.276,103.933 209.869 C 109.437 209.574,109.970 209.782,112.333 213.151 C 117.760 220.888,114.847 225.038,103.669 225.494 C 97.996 225.726,97.741 225.837,96.420 228.647 C 95.324 230.979,95.880 232.113,99.300 234.515 C 121.229 249.918,161.775 252.308,198.746 240.378 C 209.289 236.975,211.180 235.670,213.617 230.113 C 215.505 225.810,215.484 224.765,213.494 223.763 C 212.782 223.405,211.518 222.458,210.684 221.659 L 209.168 220.206 203.284 219.940 C 196.453 219.630,194.727 219.207,192.919 217.399 C 190.467 214.947,191.245 211.328,194.858 208.381 C 198.331 205.548,198.146 205.606,203.825 205.603 C 210.033 205.600,209.457 205.984,214.014 198.800 C 219.682 189.862,221.858 183.839,220.605 180.558 C 217.625 172.754,206.143 164.787,198.580 165.276 C 196.040 165.440,196.009 165.861,198.332 168.646 C 209.896 182.512,204.818 205.005,190.145 204.911 C 178.612 204.836,170.181 189.793,174.217 176.492 C 175.043 173.772,174.961 173.275,173.400 171.547 C 171.347 169.275,171.459 168.623,174.649 164.290 C 176.624 161.607,176.749 160.952,175.571 159.454 C 174.722 158.374,174.574 158.313,173.687 158.669 M166.384 205.391 C 170.036 207.280,170.968 226.761,167.587 230.545 C 166.490 231.773,166.426 231.789,163.136 231.678 C 160.605 231.592,159.125 231.773,157.014 232.425 C 149.713 234.680,143.202 230.061,139.218 219.800 C 138.621 218.260,137.652 216.300,137.066 215.444 C 135.110 212.589,135.930 211.246,140.000 210.643 C 140.990 210.496,143.116 209.730,144.725 208.941 L 147.650 207.506 151.335 208.012 C 156.092 208.665,158.037 208.345,161.219 206.388 C 164.061 204.640,164.694 204.518,166.384 205.391 M261.063 223.598 C 259.074 225.962,259.375 227.454,262.190 229.194 C 264.317 230.508,264.960 230.064,264.692 227.466 C 264.216 222.856,262.883 221.435,261.063 223.598 M340.800 244.835 C 332.984 245.838,324.000 251.586,324.000 255.584 C 324.000 256.200,325.282 259.292,326.849 262.453 C 328.416 265.614,330.318 269.639,331.076 271.398 C 333.267 276.485,333.775 276.759,337.560 274.900 C 340.709 273.354,346.019 273.382,351.800 274.977 C 354.000 275.584,356.610 276.231,357.600 276.416 C 358.590 276.600,361.020 277.077,363.000 277.476 C 367.788 278.439,375.651 278.443,377.467 277.484 C 381.719 275.236,378.098 261.498,371.480 254.773 C 362.770 245.922,354.131 243.124,340.800 244.835 M115.055 282.900 C 114.513 283.615,112.501 287.800,110.584 292.200 C 108.667 296.600,106.339 301.730,105.409 303.600 C 101.057 312.356,98.229 321.007,95.994 332.400 C 92.355 350.953,91.789 355.678,92.608 360.676 C 92.926 362.614,93.190 365.910,93.195 368.000 C 93.199 370.090,93.559 374.500,93.993 377.800 C 94.428 381.100,94.787 384.538,94.792 385.440 C 94.816 390.340,96.803 391.129,106.338 390.025 C 110.478 389.545,110.534 389.378,107.767 385.718 C 103.560 380.153,97.127 370.226,97.063 369.200 C 96.907 366.714,99.113 367.898,101.966 371.833 C 104.538 375.380,108.188 379.950,113.281 386.000 C 117.036 390.460,120.740 391.886,124.085 390.156 C 125.100 389.631,125.604 389.594,126.811 389.956 C 128.934 390.592,129.392 390.524,130.769 389.364 L 132.000 388.329 133.218 389.354 C 135.858 391.575,146.488 391.969,150.476 389.993 C 152.286 389.097,152.470 389.082,155.676 389.581 C 160.709 390.363,160.615 390.425,160.522 386.393 C 160.112 368.400,160.409 363.365,162.589 351.400 C 163.110 348.540,163.808 344.490,164.141 342.400 C 164.473 340.310,165.583 334.640,166.607 329.800 C 169.446 316.375,169.643 316.816,162.274 320.109 C 159.593 321.307,156.622 322.616,155.671 323.017 C 152.646 324.295,152.270 326.018,153.228 334.200 C 154.222 342.687,153.119 345.604,148.920 345.599 C 143.664 345.591,142.221 338.805,143.965 322.297 C 145.407 308.643,144.852 298.588,142.770 300.670 C 142.131 301.309,140.484 308.145,140.037 312.016 C 139.821 313.877,139.287 316.511,138.849 317.868 C 138.160 320.007,136.583 330.499,135.781 338.284 C 135.187 344.049,134.684 344.854,129.284 348.666 C 128.183 349.444,127.238 349.112,125.029 347.172 C 121.914 344.437,121.699 341.701,123.661 329.796 C 124.893 322.324,124.943 320.142,123.888 319.814 C 123.620 319.731,122.701 319.546,121.847 319.403 C 119.493 319.010,117.245 316.550,114.361 311.208 C 110.802 304.619,110.806 304.428,114.588 298.870 C 122.445 287.324,122.768 286.347,119.707 283.414 C 117.435 281.237,116.402 281.123,115.055 282.900 M170.800 287.150 C 161.630 290.444,161.574 290.672,167.026 302.415 C 168.708 306.037,170.170 309.090,170.276 309.200 C 170.721 309.662,172.047 307.330,172.825 304.715 C 173.286 303.169,174.825 298.640,176.246 294.652 C 179.832 284.584,179.442 284.046,170.800 287.150 M128.341 292.367 C 125.725 293.753,120.800 300.513,120.800 302.718 C 120.800 305.582,122.919 308.252,124.299 307.128 C 125.584 306.080,130.446 298.154,131.028 296.157 C 132.033 292.710,130.848 291.039,128.341 292.367 M153.543 296.180 C 151.097 297.842,151.061 298.746,153.120 306.754 C 154.866 313.541,155.227 313.999,157.892 312.805 C 161.616 311.136,161.726 309.915,158.898 301.663 C 156.524 294.738,156.182 294.387,153.543 296.180 M180.190 317.230 C 179.891 318.175,180.145 318.605,180.773 318.216 C 181.298 317.892,181.342 316.400,180.827 316.400 C 180.622 316.400,180.335 316.774,180.190 317.230 M320.940 325.100 C 319.441 327.025,316.914 329.994,315.326 331.697 C 311.670 335.617,311.627 335.847,313.162 343.407 C 315.075 352.834,316.512 355.986,318.180 354.418 C 322.305 350.544,325.805 336.137,325.085 326.000 C 324.698 320.553,324.513 320.513,320.940 325.100 " stroke="none" fill="#f4f2f1" fill-rule="evenodd"></path><path id="path2" d="M234.200 7.955 C 232.046 8.949,220.833 20.540,214.811 28.000 C 213.834 29.210,212.334 31.010,211.478 32.000 C 208.960 34.911,208.761 35.146,203.852 41.000 C 198.657 47.194,197.803 48.229,196.529 49.875 C 196.049 50.494,195.059 51.754,194.329 52.676 C 193.598 53.598,192.550 55.009,192.000 55.812 C 191.450 56.614,190.505 57.864,189.900 58.588 C 189.295 59.313,188.800 60.101,188.800 60.339 C 188.800 61.825,182.844 62.094,179.504 60.759 C 175.098 58.997,152.636 58.866,149.200 60.582 C 145.889 62.236,145.283 62.231,143.860 60.534 C 140.579 56.623,128.420 45.410,124.800 42.957 C 124.030 42.435,121.764 40.881,119.764 39.504 C 117.764 38.127,115.374 36.550,114.453 36.000 C 113.531 35.450,109.173 32.629,104.768 29.732 C 89.105 19.430,80.400 17.282,80.400 23.718 C 80.400 24.025,80.056 24.587,79.636 24.968 C 79.124 25.431,78.778 26.475,78.589 28.130 C 78.433 29.488,78.064 31.230,77.770 32.000 C 77.038 33.912,75.366 41.025,74.620 45.400 C 74.282 47.380,73.820 49.630,73.594 50.400 C 72.980 52.483,70.866 66.279,70.349 71.577 C 69.601 79.238,70.107 91.641,71.386 97.000 C 74.522 110.131,74.298 110.666,68.143 104.748 C 65.197 101.915,63.473 101.223,62.925 102.652 C 62.483 103.802,63.976 105.819,68.781 110.565 L 73.474 115.200 75.937 115.200 C 79.255 115.200,79.212 115.605,75.167 122.606 C 70.789 130.182,67.064 137.654,64.903 143.195 C 62.640 148.997,62.122 150.000,61.390 150.000 C 61.065 150.000,60.800 149.811,60.800 149.580 C 60.800 148.310,56.385 147.766,54.448 148.796 C 53.474 149.315,52.000 154.660,52.000 157.675 C 52.000 161.817,51.377 163.860,49.963 164.353 C 48.853 164.740,48.819 164.829,49.056 166.678 C 49.384 169.221,49.655 169.457,51.633 168.929 C 54.459 168.175,54.158 169.935,50.965 172.838 C 47.466 176.018,47.496 175.976,47.753 177.327 C 48.068 178.985,49.994 180.607,52.914 181.673 C 55.672 182.679,55.662 183.031,52.853 183.982 C 49.154 185.234,49.408 183.959,49.366 201.513 C 49.331 216.270,49.290 217.106,48.482 219.241 C 48.016 220.474,47.517 222.724,47.374 224.241 C 47.067 227.503,45.612 232.695,43.910 236.600 C 42.850 239.034,41.877 240.677,39.200 244.548 C 35.277 250.223,30.221 255.501,25.594 258.749 C 20.810 262.109,20.399 264.659,24.305 266.749 C 25.563 267.422,34.734 268.956,37.084 268.886 C 38.230 268.852,39.278 269.003,39.413 269.221 C 39.763 269.787,38.916 274.876,38.029 277.543 C 37.194 280.052,36.353 290.539,36.359 298.369 C 36.372 315.080,41.274 323.968,51.200 325.275 C 56.774 326.009,57.913 325.555,58.742 322.267 C 60.174 316.591,67.697 302.659,74.007 294.000 C 75.369 292.130,77.014 289.553,77.661 288.273 C 79.111 285.409,79.397 285.484,81.400 289.251 C 84.686 295.430,88.286 297.757,90.600 295.200 C 91.884 293.781,91.752 293.513,94.683 303.474 C 95.295 305.554,96.377 306.918,98.085 307.765 C 99.972 308.700,98.660 313.225,96.681 312.609 C 93.019 311.471,92.611 311.935,89.654 320.600 C 88.040 325.330,87.381 328.172,86.190 335.539 C 85.858 337.596,85.421 339.587,85.220 339.963 C 85.018 340.339,84.579 342.166,84.244 344.024 C 83.908 345.881,83.166 349.560,82.595 352.200 C 79.606 366.023,81.143 373.318,86.466 370.566 C 88.250 369.643,88.461 370.111,88.829 375.785 C 89.480 385.810,91.061 394.083,92.470 394.838 C 92.965 395.102,98.874 395.163,109.558 395.012 C 125.315 394.791,125.924 394.810,126.845 395.559 C 127.772 396.314,127.835 396.315,129.000 395.611 C 130.914 394.455,132.496 394.312,136.004 394.977 C 139.687 395.676,144.027 395.756,148.200 395.203 C 149.740 394.998,153.392 394.707,156.316 394.554 C 164.191 394.143,164.382 393.826,163.630 382.433 C 163.140 375.026,163.455 365.380,164.393 359.000 C 167.655 336.824,175.382 303.072,177.811 300.387 C 178.280 299.870,179.040 299.600,180.029 299.600 C 181.504 299.600,185.174 297.061,186.105 295.398 C 187.149 293.533,198.209 286.005,203.808 283.348 C 205.792 282.407,207.940 281.088,208.582 280.418 C 210.317 278.608,210.525 278.789,212.592 283.900 C 216.617 293.847,220.128 297.914,222.654 295.555 L 223.676 294.600 223.410 288.400 C 222.919 276.982,223.761 273.494,227.117 273.049 C 228.514 272.864,229.753 272.311,231.373 271.151 C 232.630 270.251,236.299 268.247,239.526 266.699 C 250.387 261.489,260.534 254.379,262.504 250.600 C 267.359 241.286,258.678 231.185,248.432 234.227 C 245.419 235.122,245.039 234.872,245.318 232.175 C 245.684 228.624,246.600 227.448,249.221 227.163 C 250.420 227.032,251.997 226.616,252.727 226.238 C 254.557 225.291,255.653 225.537,256.122 227.000 C 256.650 228.645,256.923 228.942,260.800 232.094 L 264.200 234.858 266.649 234.623 C 269.423 234.357,269.517 234.454,270.401 238.536 C 271.066 241.612,271.712 242.793,274.587 246.200 C 278.950 251.370,280.000 254.866,280.000 264.226 C 280.000 270.668,280.028 270.756,286.109 283.200 C 289.778 290.708,292.625 297.496,298.525 312.800 C 300.339 317.506,301.403 321.997,302.152 328.117 C 302.912 334.323,303.613 335.030,307.200 333.200 C 309.548 332.002,309.572 332.033,309.319 335.943 C 309.078 339.655,308.953 338.895,312.257 353.800 C 313.930 361.345,314.742 362.618,317.224 361.590 C 319.035 360.840,325.600 351.513,325.600 349.691 C 325.600 349.408,326.033 348.146,326.562 346.888 C 328.664 341.890,330.349 324.476,329.057 321.095 C 327.652 317.415,328.834 312.370,331.555 310.432 C 335.021 307.964,335.983 291.369,332.995 285.591 C 331.765 283.213,332.301 281.573,334.476 281.054 C 335.068 280.912,336.488 280.215,337.633 279.503 C 340.544 277.694,344.071 277.518,349.271 278.924 C 351.322 279.478,354.530 280.224,356.400 280.582 C 358.270 280.940,360.970 281.502,362.400 281.831 C 369.749 283.520,373.607 283.232,378.790 280.605 C 381.841 279.059,382.207 278.237,382.164 273.015 C 382.030 256.850,366.980 241.978,350.066 241.299 C 338.498 240.835,330.198 243.592,323.587 250.096 C 320.995 252.646,319.600 253.252,319.600 251.827 C 319.600 251.559,319.150 250.917,318.600 250.400 C 318.050 249.883,317.600 249.132,317.600 248.731 C 317.600 248.330,316.868 247.236,315.974 246.301 C 313.887 244.117,313.371 243.090,313.033 240.440 C 312.881 239.252,312.386 236.732,311.933 234.840 C 311.199 231.771,311.143 230.753,311.422 225.400 C 312.486 204.957,311.723 172.196,310.026 165.456 C 309.630 163.885,309.086 161.070,308.815 159.200 C 308.316 155.746,307.529 152.835,305.736 147.800 C 304.651 144.755,303.949 143.177,300.845 136.799 C 299.720 134.488,298.798 132.328,298.796 131.999 C 298.794 131.670,298.344 130.437,297.796 129.260 C 297.248 128.083,296.800 126.500,296.800 125.741 C 296.800 123.833,295.522 122.761,290.200 120.207 C 287.780 119.046,284.285 117.174,282.434 116.048 C 275.813 112.020,273.500 113.565,269.323 124.800 C 268.016 128.316,266.104 131.058,264.400 131.859 C 262.831 132.597,256.794 136.812,255.093 138.357 L 253.986 139.363 253.174 138.551 C 252.204 137.582,246.383 123.238,246.098 121.118 C 245.939 119.930,246.105 119.391,246.934 118.406 C 248.424 116.635,248.576 115.071,247.983 107.637 C 246.926 94.407,246.874 94.431,259.446 102.499 C 261.012 103.504,262.691 104.885,263.178 105.569 C 265.847 109.318,272.003 107.622,271.998 103.140 C 271.993 98.538,270.665 87.564,269.368 81.400 C 268.582 77.660,267.705 72.973,267.421 70.984 C 267.137 68.995,266.539 66.205,266.092 64.784 C 265.645 63.363,264.644 59.860,263.867 57.000 C 261.678 48.944,258.806 41.409,255.482 35.000 C 255.140 34.340,253.727 31.550,252.342 28.800 C 250.957 26.050,249.319 22.810,248.701 21.600 C 248.083 20.390,246.675 18.140,245.572 16.600 C 244.469 15.060,243.116 13.116,242.566 12.281 C 239.569 7.728,237.270 6.540,234.200 7.955 M235.251 13.061 C 235.975 13.934,236.362 21.220,236.617 38.800 C 236.801 51.459,236.886 52.782,237.641 54.800 C 239.321 59.293,238.683 74.528,236.556 80.691 C 234.560 86.475,237.509 94.669,240.508 91.670 C 241.354 90.824,241.384 90.490,241.442 81.298 C 241.476 76.074,241.698 68.830,241.937 65.200 C 242.858 51.190,242.385 30.167,240.949 21.310 C 239.428 11.925,243.090 15.278,250.571 30.119 C 258.749 46.344,263.325 59.714,265.794 74.600 C 266.159 76.800,266.817 80.220,267.257 82.200 C 268.221 86.533,269.600 97.265,269.600 100.427 C 269.600 104.327,269.649 104.333,259.148 99.051 C 249.323 94.109,248.320 93.817,246.522 95.370 L 245.400 96.339 245.524 103.931 C 245.689 113.970,245.352 114.167,240.820 106.677 C 237.470 101.143,235.461 98.971,234.154 99.473 C 232.846 99.975,234.711 104.787,241.180 117.600 C 251.547 138.133,255.460 152.369,254.391 165.669 C 253.143 181.203,250.994 188.049,246.731 190.082 C 244.988 190.913,243.753 191.980,241.407 194.682 C 234.336 202.828,230.405 204.689,226.244 201.859 C 225.145 201.111,224.173 200.800,222.932 200.800 C 220.514 200.800,220.444 200.256,222.323 196.116 C 227.477 184.766,227.793 183.493,227.766 174.200 C 227.741 165.647,227.103 161.022,225.156 155.280 C 224.506 153.366,223.814 150.720,223.617 149.400 C 223.211 146.684,215.292 130.711,213.427 128.845 L 212.400 127.818 212.400 129.246 C 212.400 130.032,212.760 131.721,213.200 133.000 C 215.261 138.991,213.581 139.418,207.285 134.505 C 196.534 126.116,193.192 121.771,196.753 120.813 C 202.221 119.340,198.940 115.982,189.718 113.611 C 186.007 112.657,183.645 108.740,183.200 102.800 C 182.941 99.344,181.935 96.400,181.014 96.400 C 180.649 96.400,180.461 98.124,180.302 102.936 C 180.026 111.317,179.874 111.657,175.895 112.842 C 171.071 114.277,169.600 115.582,169.600 118.427 C 169.600 120.245,171.111 120.787,173.540 119.840 C 176.794 118.573,177.829 118.566,178.643 119.809 C 180.170 122.141,175.172 142.033,170.906 150.600 C 168.501 155.428,167.705 155.826,166.308 152.900 C 164.654 149.438,163.332 150.164,160.302 156.200 C 156.524 163.728,153.565 167.367,146.900 172.684 C 142.050 176.553,141.889 179.155,146.596 177.601 C 149.412 176.672,151.687 174.665,156.660 168.721 C 159.646 165.154,160.300 164.826,162.153 165.971 C 164.421 167.372,165.741 166.886,167.925 163.844 C 174.770 154.313,180.206 138.972,181.619 125.198 C 182.471 116.896,184.130 116.403,189.327 122.908 C 194.927 129.916,204.359 138.373,212.400 143.593 C 219.659 148.307,220.595 149.508,222.017 155.937 C 223.967 164.754,223.109 165.644,215.949 162.232 C 198.004 153.680,183.738 154.760,175.712 165.278 C 173.329 168.401,173.292 168.796,175.186 170.984 C 177.052 173.139,177.052 173.142,176.015 176.157 C 174.396 180.863,174.601 188.054,176.460 191.733 C 180.561 199.852,184.572 203.200,190.200 203.200 C 204.062 203.200,207.912 179.992,195.940 168.599 C 192.231 165.069,192.669 163.620,197.449 163.606 C 206.420 163.580,217.173 170.522,221.599 179.198 C 223.566 183.054,221.299 190.544,215.606 198.997 C 212.312 203.887,211.622 206.057,212.998 207.198 C 213.688 207.771,216.420 207.823,217.479 207.283 C 221.976 204.990,225.734 206.888,223.165 210.154 C 221.672 212.051,220.262 212.506,216.820 212.202 C 212.143 211.788,209.541 213.248,210.792 215.585 C 211.310 216.554,211.363 216.566,215.200 216.585 C 219.022 216.604,219.675 218.032,216.413 219.237 C 213.729 220.229,213.511 220.897,215.306 222.640 C 217.250 224.528,217.239 225.589,215.226 230.535 C 212.540 237.138,211.047 238.198,198.866 242.151 C 182.088 247.595,152.232 251.336,140.753 249.432 C 140.009 249.308,136.340 248.745,132.600 248.180 C 117.992 245.973,107.978 242.517,99.637 236.804 C 94.223 233.095,91.754 229.741,93.600 228.600 C 95.069 227.692,93.838 225.567,91.400 224.803 C 86.932 223.403,86.825 221.000,91.231 221.000 C 94.243 221.000,95.600 220.508,95.600 219.415 C 95.600 219.148,96.320 218.262,97.200 217.448 C 99.270 215.532,99.309 214.285,97.368 211.962 C 94.665 208.726,93.237 204.922,90.850 194.600 C 88.187 183.081,88.550 181.831,96.288 175.884 C 105.125 169.093,116.239 168.564,110.552 175.206 C 104.370 182.426,103.363 194.474,108.505 199.700 L 110.177 201.400 110.419 198.428 C 110.647 195.634,110.749 195.380,112.115 194.199 C 113.162 193.294,113.638 192.502,113.820 191.366 C 113.959 190.498,114.911 188.171,115.936 186.194 C 118.336 181.567,119.252 181.294,122.426 184.263 C 125.223 186.880,125.451 187.488,125.759 193.154 C 126.184 200.968,124.713 203.804,119.535 205.158 C 116.449 205.965,115.978 206.897,118.190 207.822 C 126.062 211.111,132.398 196.352,129.018 182.600 C 127.335 175.748,128.934 173.649,133.581 176.610 C 137.638 179.195,141.510 177.886,138.138 175.071 C 132.983 170.767,129.561 165.882,128.961 161.973 C 127.928 155.242,124.123 156.266,124.304 163.226 C 124.585 173.965,117.524 163.499,114.597 148.836 C 113.164 141.655,111.791 129.576,112.125 127.083 C 112.549 123.925,115.687 122.714,121.252 123.562 C 125.812 124.256,127.913 122.913,126.116 120.452 C 124.812 118.665,122.661 117.889,118.294 117.631 C 113.281 117.333,111.924 115.407,113.608 110.978 C 113.833 110.388,114.198 108.621,114.421 107.052 C 114.643 105.484,115.194 103.439,115.644 102.509 C 116.471 100.801,116.534 99.587,115.800 99.522 C 115.355 99.483,112.798 104.389,110.547 109.600 C 107.224 117.294,106.186 118.646,101.891 120.881 C 96.775 123.543,95.937 125.595,99.100 127.714 C 101.471 129.303,101.362 129.995,97.594 137.238 C 93.007 146.054,92.864 146.119,86.398 142.358 C 80.334 138.831,78.580 138.000,77.199 138.000 C 74.063 138.000,71.811 141.407,71.778 146.200 C 71.761 148.654,71.491 150.146,70.621 152.600 C 67.782 160.611,68.829 162.313,78.997 166.222 C 84.645 168.392,84.973 168.792,84.680 173.139 C 84.551 175.042,84.076 177.663,83.623 178.963 C 82.527 182.107,82.581 183.167,83.998 186.395 C 85.223 189.188,85.740 191.020,88.194 201.280 C 90.151 209.466,90.068 209.862,86.456 209.515 C 81.480 209.037,73.442 201.611,69.545 193.892 C 67.923 190.678,66.400 190.680,64.675 193.900 C 64.056 195.055,63.403 196.000,63.224 196.000 C 61.595 196.000,59.227 187.332,59.208 181.300 C 59.196 177.615,58.117 176.639,55.338 177.800 C 50.903 179.653,49.499 177.445,53.086 174.256 C 57.714 170.141,61.813 162.066,64.613 151.550 C 67.306 141.438,76.806 121.907,84.885 109.878 C 89.029 103.707,103.969 89.317,117.027 78.918 C 118.189 77.993,121.988 75.315,125.470 72.968 C 131.676 68.784,134.000 66.974,134.000 66.325 C 134.000 65.610,132.648 66.115,127.735 68.666 C 117.598 73.930,111.027 78.431,107.334 82.643 C 103.373 87.160,92.180 96.446,88.301 98.433 C 86.571 99.319,85.381 100.377,83.501 102.701 C 82.125 104.401,80.482 106.325,79.849 106.977 L 78.699 108.163 77.782 107.098 C 74.782 103.610,71.958 83.690,73.145 74.400 C 74.708 62.179,75.476 57.434,77.418 48.000 C 82.066 25.413,83.232 22.738,86.847 26.353 C 88.239 27.745,88.400 27.815,88.400 27.029 C 88.400 22.961,91.495 23.730,101.482 30.278 C 104.737 32.413,109.292 35.338,111.605 36.780 C 122.065 43.298,128.295 48.095,136.199 55.717 C 140.742 60.097,140.888 60.389,139.816 62.894 C 138.989 64.826,143.245 64.829,148.733 62.900 L 153.000 61.400 163.200 61.402 C 172.761 61.405,173.732 61.474,178.703 62.502 C 188.075 64.442,189.602 64.042,193.906 58.521 C 207.944 40.509,229.815 15.126,233.000 13.148 C 234.466 12.238,234.564 12.234,235.251 13.061 M88.417 28.636 C 88.380 29.599,89.555 32.813,90.353 33.934 C 90.819 34.589,91.724 36.627,92.363 38.463 C 95.228 46.687,95.674 47.894,96.414 49.426 C 96.846 50.321,97.204 51.491,97.209 52.026 C 97.228 54.200,99.768 58.038,100.775 57.416 C 101.500 56.967,101.248 55.382,100.013 52.629 C 99.360 51.174,98.556 49.075,98.226 47.964 C 97.896 46.852,97.103 45.011,96.464 43.872 C 95.824 42.732,95.176 41.269,95.023 40.620 C 94.870 39.971,94.127 38.387,93.373 37.100 C 92.619 35.812,91.801 33.966,91.557 32.996 C 91.149 31.376,88.455 27.635,88.417 28.636 M226.694 48.931 C 223.313 49.984,221.591 52.729,221.171 57.736 C 220.921 60.730,220.678 61.587,219.589 63.336 C 218.051 65.803,217.716 67.757,218.407 70.227 C 218.852 71.816,218.821 72.452,218.172 75.058 L 217.425 78.060 218.412 79.922 C 219.566 82.097,221.596 83.600,223.379 83.600 C 225.778 83.600,226.224 82.053,224.590 79.400 C 223.351 77.389,223.356 76.855,224.640 74.322 C 225.559 72.508,225.648 71.978,225.410 69.757 C 225.167 67.488,225.245 67.065,226.212 65.415 L 227.283 63.588 226.604 60.818 C 225.328 55.609,227.103 53.200,232.217 53.200 C 236.198 53.200,235.348 50.289,230.984 48.975 C 228.772 48.309,228.691 48.308,226.694 48.931 M88.600 59.355 C 83.910 61.576,81.888 65.715,83.400 70.000 C 84.186 72.229,84.158 73.599,83.300 74.811 C 82.822 75.486,82.520 76.943,82.348 79.400 C 82.209 81.380,81.867 83.727,81.588 84.616 C 80.501 88.072,82.114 90.768,84.950 90.236 C 87.050 89.842,88.400 88.354,88.400 86.434 C 88.400 85.552,88.772 83.886,89.227 82.732 C 89.936 80.932,89.991 80.386,89.611 78.879 C 89.210 77.284,89.262 76.964,90.185 75.390 C 91.532 73.090,91.467 72.209,89.800 70.174 C 87.353 67.187,88.231 64.262,92.075 62.597 C 94.278 61.643,95.200 60.862,95.200 59.952 C 95.200 58.210,91.688 57.893,88.600 59.355 M87.538 79.423 C 88.010 80.460,87.586 82.000,86.829 82.000 C 86.129 82.000,85.668 79.266,86.267 78.667 C 86.743 78.191,87.063 78.381,87.538 79.423 M86.338 85.776 C 86.413 86.166,86.278 86.682,86.038 86.922 C 85.384 87.576,84.660 86.671,84.994 85.618 C 85.308 84.629,86.134 84.725,86.338 85.776 M184.783 112.778 C 185.629 113.846,186.702 114.606,188.105 115.129 C 190.501 116.023,191.208 116.826,190.428 117.766 C 189.701 118.642,189.023 118.564,186.984 117.370 C 185.451 116.471,184.949 116.374,183.061 116.610 C 179.029 117.113,178.386 116.109,180.863 113.172 C 182.871 110.790,183.184 110.759,184.783 112.778 M282.552 118.780 C 284.726 120.079,287.587 121.546,288.909 122.041 C 292.294 123.307,294.080 125.161,295.155 128.523 C 296.050 131.323,297.575 134.921,301.123 142.600 C 304.212 149.288,305.200 153.156,305.200 158.562 C 305.200 161.793,305.490 164.472,306.245 168.217 C 307.391 173.902,308.061 190.079,307.288 193.400 L 306.915 195.000 306.607 193.800 C 306.438 193.140,305.801 191.700,305.192 190.600 C 304.370 189.115,304.023 187.819,303.846 185.568 C 303.578 182.178,302.601 179.638,301.854 180.388 C 301.243 181.002,301.341 185.415,302.009 187.400 C 302.332 188.359,302.516 190.408,302.467 192.513 C 302.402 195.332,302.579 196.596,303.363 198.913 C 303.900 200.501,304.529 203.609,304.760 205.820 C 304.990 208.031,305.446 210.597,305.772 211.521 C 306.590 213.840,307.110 216.964,307.614 222.600 C 307.850 225.240,308.477 229.380,309.008 231.800 C 309.539 234.220,310.168 237.445,310.405 238.967 C 311.435 245.570,314.620 252.095,318.913 256.400 L 321.905 259.400 321.867 257.382 C 321.744 250.935,330.971 244.429,341.916 243.245 C 355.199 241.809,363.326 244.496,372.000 253.192 C 378.668 259.878,383.011 272.901,380.118 277.537 C 378.826 279.606,371.371 281.551,367.324 280.874 C 362.914 280.136,358.184 279.166,353.200 277.977 C 343.913 275.761,340.974 275.742,336.636 277.870 C 333.401 279.456,331.602 278.256,329.751 273.277 C 328.818 270.768,324.980 263.630,323.778 262.169 L 322.817 261.000 323.343 262.800 C 323.846 264.518,325.352 268.766,327.455 274.400 C 328.327 276.736,330.320 284.139,331.816 290.600 C 333.168 296.437,331.909 304.060,330.380 299.300 C 330.115 298.475,329.475 296.780,328.958 295.534 C 328.442 294.288,327.828 292.398,327.595 291.334 C 327.083 289.003,323.462 281.561,322.349 280.554 C 319.770 278.219,319.498 285.286,322.030 288.842 C 324.797 292.727,324.892 295.025,322.270 294.631 C 319.895 294.275,319.028 295.227,319.093 298.116 C 319.136 300.014,318.728 303.217,317.526 310.400 C 316.305 317.700,311.373 326.221,307.703 327.371 C 306.546 327.733,306.335 327.183,305.251 321.000 C 304.167 314.822,303.156 312.187,300.800 309.399 C 299.476 307.834,298.429 305.958,297.382 303.271 C 294.108 294.874,291.730 289.475,288.014 282.000 C 282.593 271.095,282.492 270.760,282.259 262.800 C 281.983 253.414,281.054 250.502,276.580 245.000 C 273.561 241.287,273.020 239.969,271.808 233.381 C 271.243 230.312,270.245 225.179,269.591 221.976 C 267.980 214.084,267.710 209.842,268.573 205.973 C 269.203 203.147,269.204 202.630,268.590 198.188 C 267.688 191.667,267.485 141.142,268.342 136.400 C 269.495 130.014,273.453 119.758,275.712 117.300 C 276.972 115.929,278.243 116.204,282.552 118.780 M111.862 119.020 C 113.626 120.366,113.570 120.664,111.100 123.088 L 109.000 125.149 106.005 124.874 C 102.113 124.518,101.815 123.763,104.883 122.031 C 106.057 121.369,107.633 120.191,108.387 119.413 C 110.022 117.726,110.147 117.712,111.862 119.020 M107.440 129.405 C 107.904 130.113,108.199 131.914,108.439 135.505 C 109.028 144.301,110.433 152.271,112.409 158.027 C 114.198 163.237,113.364 164.600,109.152 163.349 C 107.592 162.885,106.836 162.837,106.135 163.157 C 105.620 163.391,103.735 163.957,101.945 164.414 C 100.155 164.871,97.460 165.865,95.955 166.622 C 89.185 170.032,88.577 166.298,93.746 153.072 C 94.707 150.612,95.629 147.970,95.794 147.200 C 96.613 143.391,101.896 132.279,103.944 130.061 C 105.711 128.146,106.516 127.995,107.440 129.405 M261.982 138.153 C 262.349 139.118,261.848 151.071,261.360 153.018 C 260.983 154.517,260.147 153.583,259.619 151.074 C 259.379 149.933,258.705 147.081,258.122 144.736 C 256.915 139.885,257.140 138.910,259.730 137.784 C 261.446 137.037,261.565 137.057,261.982 138.153 M79.467 141.241 C 80.254 141.728,81.241 142.897,81.806 144.012 C 82.844 146.060,83.167 146.260,86.000 146.606 C 94.650 147.662,94.594 147.589,91.583 153.938 C 90.712 155.775,90.000 157.758,90.000 158.346 C 90.000 159.518,88.162 167.971,87.836 168.297 C 87.725 168.408,87.062 168.019,86.363 167.431 C 84.785 166.103,82.849 165.119,80.000 164.199 C 76.772 163.156,72.493 160.921,72.016 160.029 C 70.946 158.030,72.381 154.056,74.659 152.712 C 76.263 151.766,76.253 151.872,75.000 149.038 C 72.593 143.597,75.387 138.720,79.467 141.241 M217.986 143.174 C 218.559 144.244,218.513 144.400,217.629 144.400 C 216.718 144.400,215.494 143.295,215.820 142.768 C 216.219 142.122,217.557 142.373,217.986 143.174 M80.500 153.465 C 79.624 153.818,79.952 154.234,81.854 155.184 C 85.136 156.823,88.825 156.654,87.115 154.943 C 86.114 153.943,81.739 152.965,80.500 153.465 M182.948 154.576 C 181.645 155.143,180.829 156.000,181.592 156.000 C 182.128 156.000,185.200 154.460,185.200 154.192 C 185.200 153.852,184.233 154.017,182.948 154.576 M202.410 158.818 C 208.211 160.235,214.297 162.574,218.024 164.819 C 220.162 166.107,221.024 166.400,222.676 166.400 C 225.381 166.400,225.772 167.302,225.788 173.595 C 225.809 181.653,225.371 181.945,221.400 176.517 C 215.238 168.094,211.292 165.212,203.154 163.188 C 195.444 161.271,191.728 162.031,189.890 165.899 C 189.066 167.633,188.793 167.848,186.200 168.809 C 184.660 169.379,182.621 170.364,181.669 170.997 L 179.937 172.148 178.590 171.423 C 172.188 167.975,177.882 161.798,190.600 158.393 C 194.523 157.344,196.689 157.422,202.410 158.818 M45.246 162.039 C 45.001 162.743,44.819 164.148,44.843 165.160 C 44.882 166.822,44.935 166.709,45.391 164.000 C 45.952 160.665,45.913 160.127,45.246 162.039 M116.862 164.100 C 117.200 164.375,118.328 165.730,119.370 167.111 C 120.411 168.492,122.248 170.349,123.452 171.238 C 125.954 173.087,126.564 174.294,126.206 176.691 C 125.855 179.040,125.377 179.140,123.463 177.266 C 121.504 175.348,119.441 174.400,117.227 174.400 C 115.544 174.400,114.800 173.683,114.800 172.062 C 114.800 169.235,108.952 168.347,103.427 170.336 C 97.298 172.543,89.210 179.251,87.961 183.165 C 87.286 185.281,86.868 185.552,85.972 184.456 C 85.055 183.334,84.989 181.598,85.770 179.171 C 86.084 178.197,86.547 175.892,86.799 174.049 C 87.457 169.248,87.755 168.583,88.888 169.377 C 90.318 170.378,91.850 170.116,95.743 168.205 C 100.723 165.760,105.380 164.625,108.800 165.022 C 112.457 165.447,113.500 165.342,114.727 164.427 C 116.008 163.470,116.075 163.460,116.862 164.100 M45.600 165.176 C 45.600 165.849,45.669 166.400,45.753 166.400 C 46.093 166.400,46.269 164.366,45.946 164.167 C 45.756 164.049,45.600 164.503,45.600 165.176 M261.738 178.200 C 261.458 212.352,261.094 214.402,254.195 220.762 C 251.040 223.670,250.543 222.979,251.586 217.132 C 253.076 208.782,253.674 201.731,253.156 198.633 C 252.702 195.917,252.727 195.692,253.765 193.200 C 256.784 185.954,257.636 183.287,258.811 177.408 C 261.069 166.120,261.835 166.327,261.738 178.200 M189.413 175.943 C 194.281 178.911,195.785 182.161,193.790 185.400 C 192.097 188.148,192.537 189.200,195.379 189.200 C 201.373 189.200,199.376 197.566,192.851 199.789 C 184.984 202.470,176.003 194.179,182.195 189.951 C 183.997 188.720,184.176 188.170,183.211 186.816 C 181.212 184.009,181.322 183.126,184.219 178.730 C 186.636 175.061,187.344 174.681,189.413 175.943 M54.513 190.300 C 54.861 191.125,55.544 193.060,56.029 194.600 C 58.553 202.610,62.130 206.400,67.166 206.400 C 70.027 206.400,71.453 207.169,74.560 210.388 C 77.566 213.501,77.834 214.492,75.950 215.519 C 72.062 217.637,71.450 219.342,74.200 220.390 C 77.250 221.552,77.427 222.133,75.813 225.659 L 74.826 227.815 75.576 230.223 C 76.312 232.589,76.311 232.782,75.499 241.415 C 74.338 253.748,74.258 273.988,75.346 279.751 C 76.536 286.049,76.550 286.007,69.861 295.943 C 65.802 301.973,63.224 306.299,61.365 310.200 C 56.554 320.294,56.097 320.284,52.000 310.000 C 51.109 307.764,49.938 305.061,49.397 303.994 C 48.856 302.926,48.298 301.070,48.157 299.869 C 47.618 295.290,46.217 295.966,46.567 300.636 C 46.683 302.196,46.604 304.536,46.391 305.836 C 45.951 308.515,46.703 314.030,48.036 317.904 C 49.155 321.157,48.454 322.269,46.063 321.033 C 36.931 316.310,35.907 284.988,44.179 263.419 C 46.499 257.370,43.522 257.139,40.248 263.113 C 38.316 266.638,37.771 266.901,33.502 266.372 C 24.154 265.214,22.510 263.602,27.289 260.281 C 32.110 256.931,39.940 248.070,43.961 241.413 C 48.858 233.306,51.466 220.054,51.955 200.796 C 52.109 194.744,52.372 189.569,52.541 189.296 C 53.101 188.390,53.871 188.782,54.513 190.300 M318.707 211.521 C 318.645 223.197,318.748 231.412,318.955 231.205 C 319.299 230.861,319.326 191.992,318.982 191.649 C 318.890 191.557,318.766 200.499,318.707 211.521 M248.496 197.961 C 247.373 199.477,245.250 200.800,243.941 200.800 C 242.319 200.800,242.511 200.312,244.900 198.351 C 246.055 197.403,247.450 196.194,248.000 195.663 L 249.000 194.699 249.132 195.811 C 249.210 196.461,248.945 197.354,248.496 197.961 M69.912 199.605 C 71.769 202.707,71.574 203.370,68.764 203.518 C 65.624 203.684,65.335 203.224,66.450 199.827 C 67.518 196.573,68.076 196.538,69.912 199.605 M217.217 203.231 C 217.857 204.428,217.402 205.200,216.055 205.200 C 214.652 205.200,214.243 204.403,215.053 203.246 C 215.805 202.172,216.647 202.166,217.217 203.231 M247.202 204.603 C 248.533 206.206,244.946 225.767,241.154 237.591 C 239.150 243.838,235.274 251.423,231.500 256.486 C 226.784 262.813,225.538 262.847,225.171 256.663 C 224.783 250.114,222.875 251.755,222.817 258.689 C 222.808 259.837,222.542 262.087,222.226 263.689 C 221.331 268.226,220.793 275.905,220.797 284.076 C 220.801 293.794,219.843 294.301,216.136 286.542 C 209.681 273.030,210.221 260.708,218.414 234.600 C 219.036 232.620,219.746 230.226,219.993 229.279 C 220.866 225.933,222.396 225.335,225.800 227.009 C 231.810 229.965,232.909 225.622,227.109 221.834 C 222.694 218.950,223.613 216.800,229.260 216.800 C 232.725 216.800,233.730 216.245,233.522 214.450 C 233.399 213.390,232.984 213.102,229.000 211.317 C 225.714 209.844,226.967 207.967,231.742 207.208 C 233.249 206.968,235.409 206.286,236.542 205.692 C 238.067 204.892,239.428 204.551,241.800 204.374 C 243.560 204.243,245.383 204.105,245.851 204.068 C 246.319 204.030,246.927 204.271,247.202 204.603 M43.693 208.000 C 43.693 208.770,43.775 209.085,43.876 208.700 C 43.976 208.315,43.976 207.685,43.876 207.300 C 43.775 206.915,43.693 207.230,43.693 208.000 M161.448 208.184 C 160.374 208.933,158.606 209.759,157.518 210.020 C 155.677 210.461,154.700 210.432,149.400 209.780 C 147.606 209.560,147.204 209.665,145.495 210.808 C 144.447 211.509,142.737 212.387,141.695 212.760 C 139.731 213.463,139.159 214.508,140.624 214.718 C 141.077 214.783,143.144 214.268,145.216 213.573 C 148.950 212.322,149.017 212.315,152.431 212.804 C 161.230 214.066,165.658 213.434,166.446 210.805 C 167.538 207.158,164.902 205.776,161.448 208.184 M82.637 211.648 C 86.020 212.861,89.948 212.884,91.550 211.700 C 93.129 210.533,93.827 210.565,94.663 211.840 C 95.576 213.233,95.045 213.998,92.769 214.576 C 90.450 215.165,89.585 215.797,86.796 218.939 L 84.497 221.529 82.767 219.767 C 81.089 218.057,81.052 217.964,81.526 216.654 C 82.051 215.203,81.890 214.407,80.735 212.738 C 79.303 210.669,79.537 210.535,82.637 211.648 M265.835 214.071 C 266.137 216.365,265.365 217.531,264.021 216.811 C 262.938 216.231,263.032 213.926,264.214 212.123 C 265.046 210.852,265.480 211.373,265.835 214.071 M223.600 214.200 C 223.326 214.530,222.832 214.800,222.502 214.800 C 222.014 214.800,221.995 214.688,222.400 214.200 C 222.674 213.870,223.168 213.600,223.498 213.600 C 223.986 213.600,224.005 213.712,223.600 214.200 M263.622 220.012 C 264.816 220.651,265.456 222.270,266.166 226.448 C 267.362 233.489,265.671 234.374,260.252 229.543 C 257.195 226.818,257.308 224.982,260.767 221.235 C 262.419 219.446,262.500 219.411,263.622 220.012 M221.120 220.880 C 221.955 221.715,221.673 222.766,220.538 223.051 C 219.041 223.427,218.099 222.196,219.065 221.128 C 219.831 220.281,220.447 220.207,221.120 220.880 M89.178 226.400 C 89.758 226.400,90.334 227.965,90.094 228.885 C 89.805 229.987,88.847 229.742,87.024 228.100 C 86.107 227.275,84.852 226.239,84.233 225.797 C 83.112 224.997,83.111 224.988,83.745 223.470 L 84.382 221.946 86.556 224.173 C 87.752 225.398,88.932 226.400,89.178 226.400 M86.957 234.836 C 89.971 238.526,89.987 238.571,88.500 239.284 C 86.614 240.187,86.279 242.075,86.812 248.800 C 87.064 251.990,87.245 258.290,87.213 262.800 C 87.182 267.310,87.277 274.997,87.426 279.881 C 87.791 291.877,87.286 293.757,84.631 290.276 C 77.726 281.224,75.990 251.372,81.457 235.700 C 83.239 230.592,83.461 230.557,86.957 234.836 M255.288 236.418 C 260.770 237.940,262.801 244.965,259.197 249.941 C 255.510 255.030,230.741 270.074,228.968 268.301 C 228.605 267.939,229.757 265.997,232.240 262.785 C 237.138 256.447,239.588 252.107,243.784 242.336 C 246.214 236.677,249.722 234.872,255.288 236.418 M214.400 239.217 C 214.400 240.724,211.664 249.877,210.822 251.188 C 210.506 251.680,210.221 251.696,209.093 251.288 C 207.101 250.568,206.577 250.669,204.964 252.085 C 201.888 254.786,191.944 268.876,190.831 272.110 C 189.659 275.516,188.598 277.221,185.842 280.125 L 183.255 282.849 182.048 282.225 C 179.945 281.137,177.568 281.461,170.473 283.801 C 162.437 286.451,161.537 286.961,160.187 289.625 C 159.296 291.384,159.021 291.641,158.273 291.414 C 157.793 291.268,156.615 291.045,155.657 290.918 L 153.913 290.686 150.772 293.930 C 147.364 297.450,147.368 297.449,145.758 294.992 C 142.741 290.388,138.400 292.211,138.400 298.081 C 138.400 299.727,138.076 302.138,137.658 303.601 C 137.249 305.031,136.786 307.280,136.628 308.600 C 136.282 311.484,134.683 319.698,133.842 322.912 C 133.510 324.184,133.040 327.064,132.799 329.312 C 131.894 337.751,129.565 344.600,127.600 344.600 C 124.874 344.600,124.634 339.942,126.793 328.900 C 128.941 317.913,128.167 314.302,123.970 315.721 C 120.985 316.730,120.195 316.022,116.608 309.119 C 114.865 305.766,114.666 305.142,115.017 304.143 C 115.750 302.060,116.707 302.693,118.733 306.600 C 122.686 314.222,125.060 313.159,132.216 300.560 C 137.487 291.280,134.852 284.294,127.547 288.183 C 125.328 289.364,125.201 289.283,125.718 287.020 C 126.379 284.134,123.864 280.953,117.271 276.334 C 116.702 275.936,115.753 274.057,114.654 271.155 C 112.427 265.273,112.377 265.050,112.016 259.515 C 111.447 250.769,109.359 250.101,104.561 257.129 C 103.558 258.598,101.627 261.131,100.269 262.758 C 96.554 267.209,94.284 271.213,93.182 275.262 C 92.329 278.396,92.388 278.277,92.023 277.600 C 91.845 277.270,91.571 276.100,91.415 275.000 C 91.258 273.900,90.767 272.408,90.323 271.685 C 89.245 269.929,89.598 267.733,91.047 267.182 C 91.600 266.972,92.502 266.264,93.053 265.609 C 93.605 264.954,94.265 264.459,94.521 264.509 C 94.840 264.572,94.949 263.911,94.868 262.400 C 94.726 259.763,95.605 258.093,96.518 259.264 C 97.126 260.044,98.151 259.422,99.260 257.600 C 100.558 255.468,100.269 252.810,98.740 252.803 C 97.756 252.798,97.019 249.279,97.409 246.453 C 97.798 243.643,97.796 240.935,97.406 239.500 C 96.978 237.927,98.378 238.041,101.200 239.810 C 102.410 240.569,103.850 241.398,104.400 241.653 C 113.220 245.746,119.374 247.574,131.400 249.673 C 142.143 251.549,159.099 251.643,170.600 249.891 C 174.560 249.287,179.150 248.602,180.800 248.368 C 188.543 247.270,204.739 242.300,210.800 239.162 C 214.493 237.250,214.400 237.248,214.400 239.217 M92.784 243.149 L 92.769 244.600 92.184 243.254 C 91.389 241.421,91.395 240.532,92.200 241.200 C 92.539 241.481,92.793 242.330,92.784 243.149 M101.855 247.400 C 101.982 247.730,102.426 248.000,102.843 248.000 C 103.878 248.000,103.848 249.653,102.800 250.307 C 102.128 250.727,102.000 250.707,102.000 250.180 C 102.000 249.835,102.181 249.665,102.403 249.802 C 102.867 250.089,103.435 248.902,103.028 248.494 C 102.879 248.345,102.589 248.488,102.384 248.812 C 102.069 249.310,102.011 249.296,102.006 248.724 C 102.003 248.352,101.809 247.929,101.574 247.784 C 101.287 247.607,101.234 247.974,101.410 248.915 C 101.570 249.766,101.502 250.413,101.236 250.578 C 100.720 250.897,100.651 252.660,101.142 252.964 C 101.330 253.081,101.409 252.686,101.318 252.088 C 101.172 251.136,101.209 251.091,101.612 251.729 C 102.047 252.418,102.115 252.420,102.827 251.776 C 103.242 251.400,103.485 250.937,103.367 250.747 C 103.163 250.416,103.780 250.225,104.568 250.375 C 104.770 250.414,104.699 250.161,104.411 249.813 C 103.968 249.279,103.984 249.219,104.513 249.422 C 104.957 249.592,105.107 249.450,105.031 248.931 C 104.972 248.529,104.671 248.192,104.362 248.182 C 104.053 248.172,103.839 247.965,103.886 247.723 C 103.938 247.460,103.630 247.372,103.124 247.504 C 102.544 247.656,102.366 247.579,102.561 247.263 C 102.730 246.990,102.597 246.800,102.236 246.800 C 101.857 246.800,101.713 247.028,101.855 247.400 M98.832 249.900 C 98.849 250.945,98.954 251.574,99.066 251.298 C 99.177 251.021,99.433 250.897,99.634 251.021 C 99.835 251.145,100.000 250.967,100.000 250.624 C 100.000 250.281,100.164 250.000,100.365 250.000 C 100.916 250.000,100.623 248.786,99.972 248.374 C 98.966 247.737,98.799 247.960,98.832 249.900 M207.272 255.700 C 207.343 256.195,207.280 257.590,207.134 258.800 C 206.697 262.411,206.767 271.447,207.256 274.406 C 207.928 278.479,207.525 279.185,203.402 281.153 C 199.068 283.223,192.625 287.286,187.771 291.013 C 183.763 294.088,182.949 294.455,182.533 293.370 C 181.890 291.695,185.877 282.964,188.763 279.726 C 190.138 278.183,191.271 276.286,192.394 273.642 C 193.980 269.912,199.423 261.707,203.591 256.764 C 205.450 254.559,207.045 254.099,207.272 255.700 M109.367 258.900 C 109.468 259.395,109.732 261.356,109.955 263.258 C 110.215 265.477,110.869 268.017,111.780 270.349 C 113.466 274.663,113.496 275.234,112.220 278.496 C 111.680 279.873,110.953 281.990,110.604 283.200 C 110.255 284.410,109.078 287.020,107.989 289.000 C 106.899 290.980,104.908 294.760,103.564 297.400 C 97.959 308.405,95.281 305.905,94.572 289.006 C 94.023 275.920,95.507 271.643,103.822 262.355 C 107.766 257.949,109.016 257.170,109.367 258.900 M120.351 281.241 C 123.715 284.072,124.205 284.995,123.474 287.111 C 122.812 289.025,117.695 297.383,115.158 300.693 C 112.621 304.004,112.631 304.701,115.294 309.948 C 118.411 316.087,120.052 317.765,123.014 317.838 C 126.909 317.935,127.021 318.510,125.219 329.200 C 123.068 341.963,123.183 344.226,126.076 345.990 C 129.381 348.005,132.534 343.779,133.826 335.600 C 134.122 333.730,134.746 329.778,135.214 326.818 C 135.682 323.858,136.570 319.448,137.188 317.018 C 137.806 314.588,138.409 311.321,138.528 309.758 C 138.646 308.196,139.012 305.946,139.340 304.758 C 139.667 303.571,140.055 301.256,140.201 299.612 C 140.609 295.007,141.288 294.316,143.541 296.212 C 146.329 298.557,146.838 307.292,145.208 324.800 C 143.870 339.169,144.859 344.000,149.138 344.000 C 152.263 344.000,152.732 342.014,151.740 332.983 C 150.795 324.368,151.334 322.800,155.734 321.371 C 159.818 320.045,166.572 316.587,167.702 315.244 C 169.531 313.069,168.832 309.723,164.683 300.800 C 159.860 290.428,160.244 289.232,169.445 285.942 C 181.455 281.648,182.574 282.596,178.364 293.494 C 177.024 296.962,175.404 301.510,174.765 303.600 C 174.125 305.690,172.993 309.200,172.249 311.400 C 171.504 313.600,170.704 316.570,170.469 318.000 C 170.235 319.430,169.130 324.920,168.013 330.200 C 166.896 335.480,165.529 342.582,164.975 345.982 C 164.420 349.382,163.791 352.947,163.577 353.905 C 162.093 360.526,161.351 374.267,162.014 382.833 C 162.794 392.902,164.015 392.318,142.200 392.304 C 138.020 392.301,133.700 392.300,132.600 392.302 C 131.500 392.303,128.710 392.408,126.400 392.534 C 124.090 392.660,119.860 392.835,117.000 392.924 C 114.140 393.012,108.110 393.213,103.600 393.370 C 92.361 393.761,92.930 394.195,91.587 384.193 C 89.619 369.535,90.074 353.035,92.821 339.400 C 96.575 320.772,96.812 319.843,99.293 314.000 C 100.181 311.910,101.239 309.239,101.645 308.063 C 102.050 306.888,103.618 303.198,105.129 299.863 C 108.148 293.199,110.225 288.053,110.643 286.200 C 110.792 285.540,111.367 284.190,111.922 283.200 C 114.958 277.783,115.965 277.549,120.351 281.241 M132.639 290.203 C 134.289 292.721,132.816 297.265,127.963 304.629 C 124.016 310.616,122.567 310.927,120.289 306.274 C 118.386 302.387,118.768 300.880,122.986 295.641 C 127.909 289.528,131.040 287.763,132.639 290.203 M157.386 293.750 C 157.921 294.285,158.716 295.990,159.204 297.650 C 159.681 299.272,160.595 302.099,161.236 303.932 C 163.285 309.796,162.481 312.352,157.902 314.525 C 154.838 315.979,153.548 314.988,152.582 310.439 C 152.227 308.768,151.501 305.870,150.968 304.000 C 149.395 298.478,149.843 296.561,153.299 294.019 C 155.295 292.552,156.133 292.496,157.386 293.750 M182.961 301.581 C 180.588 302.565,176.275 314.328,175.601 321.651 C 175.350 324.373,174.726 328.400,174.213 330.600 C 173.701 332.800,173.173 335.619,173.041 336.864 C 172.909 338.110,172.187 341.620,171.435 344.664 C 169.858 351.054,169.199 359.728,169.201 374.049 C 169.203 383.289,169.583 384.800,171.905 384.800 C 174.921 384.800,175.791 382.358,176.398 372.200 C 176.802 365.427,177.562 356.121,178.342 348.400 C 178.531 346.530,179.160 343.020,179.739 340.600 C 180.319 338.180,181.342 333.770,182.014 330.800 C 182.686 327.830,183.759 323.330,184.397 320.800 C 185.035 318.270,185.743 314.490,185.970 312.400 C 186.197 310.310,186.603 307.382,186.874 305.893 C 187.515 302.361,185.756 300.423,182.961 301.581 M327.764 303.631 C 329.024 305.128,329.083 306.592,328.022 310.058 C 326.432 315.250,326.220 317.526,326.971 321.311 C 328.622 329.634,326.740 343.354,322.898 351.000 C 318.089 360.570,315.965 361.336,314.135 354.158 C 309.782 337.093,309.789 335.426,314.226 330.800 C 320.130 324.645,323.552 317.115,323.969 309.360 C 324.328 302.680,325.489 300.927,327.764 303.631 M149.581 305.245 C 150.065 306.370,150.737 308.755,151.074 310.545 C 152.403 317.610,154.781 318.709,160.325 314.820 C 163.392 312.669,164.147 311.324,164.098 308.099 C 164.050 304.971,164.627 304.949,165.888 308.030 C 168.208 313.701,166.720 315.462,156.234 319.463 C 149.612 321.990,148.808 323.767,150.200 332.800 C 151.280 339.810,150.897 342.400,148.781 342.400 C 146.699 342.400,145.629 336.851,146.353 329.811 C 146.602 327.385,146.996 321.350,147.228 316.400 C 147.902 301.998,147.995 301.558,149.581 305.245 M183.985 309.414 C 183.788 310.946,183.620 313.254,183.613 314.541 C 183.606 315.829,183.174 318.349,182.652 320.141 C 181.346 324.635,180.432 328.357,179.585 332.634 C 179.190 334.633,178.570 336.973,178.209 337.834 C 177.408 339.743,176.417 345.133,176.407 347.636 C 176.403 348.646,176.132 350.356,175.804 351.436 C 175.409 352.741,175.207 355.155,175.204 358.630 C 175.202 361.506,174.923 365.714,174.584 367.980 C 174.245 370.247,173.840 373.995,173.684 376.309 C 173.460 379.627,173.256 380.606,172.719 380.944 C 171.584 381.658,171.481 381.089,171.342 373.305 C 171.268 369.177,171.189 365.620,171.167 365.400 C 171.144 365.180,171.333 362.480,171.587 359.400 C 171.840 356.320,172.105 352.984,172.176 351.987 C 172.340 349.669,173.445 344.812,174.432 342.064 C 174.944 340.642,175.200 338.876,175.200 336.774 C 175.200 334.443,175.445 332.963,176.138 331.109 C 176.846 329.217,177.141 327.386,177.337 323.663 C 177.644 317.836,178.332 314.863,180.305 310.837 C 183.215 304.900,184.637 304.350,183.985 309.414 M55.800 321.395 C 55.800 323.120,54.918 323.727,53.781 322.784 C 52.515 321.734,53.407 319.457,54.995 319.685 C 55.648 319.778,55.800 320.102,55.800 321.395 M91.809 326.429 C 92.138 327.466,91.291 329.600,90.551 329.600 C 89.891 329.600,89.802 327.518,90.414 326.374 C 90.951 325.370,91.480 325.391,91.809 326.429 M89.200 342.385 C 89.200 342.984,88.932 344.356,88.604 345.436 C 88.194 346.788,88.009 349.207,88.009 353.200 C 88.011 362.828,86.032 369.853,83.834 368.028 C 82.236 366.702,83.580 352.711,85.695 348.643 C 85.912 348.227,86.248 346.622,86.442 345.077 C 86.975 340.831,89.200 338.660,89.200 342.385 M39.180 361.239 C 38.056 363.466,37.934 364.038,38.071 366.449 C 38.306 370.621,38.827 370.610,40.438 366.400 C 42.572 360.823,41.536 356.572,39.180 361.239 M28.431 370.262 C 28.197 371.108,28.019 372.250,28.036 372.800 C 28.053 373.350,28.301 372.720,28.588 371.400 C 29.178 368.679,29.076 367.940,28.431 370.262 M321.473 372.400 C 321.604 373.390,321.776 374.275,321.856 374.367 C 322.157 374.714,321.928 372.164,321.590 371.400 C 321.353 370.866,321.314 371.198,321.473 372.400 M36.377 373.826 C 35.484 374.777,35.400 375.191,35.400 378.619 C 35.400 386.234,37.996 384.577,38.133 376.875 C 38.207 372.692,37.916 372.186,36.377 373.826 M289.000 397.804 C 287.564 398.229,287.493 398.307,288.305 398.567 C 289.378 398.911,293.577 398.957,293.905 398.629 C 294.030 398.503,293.068 398.382,291.767 398.360 C 290.142 398.333,289.712 398.233,290.396 398.043 C 290.944 397.891,291.214 397.668,290.996 397.549 C 290.778 397.429,289.880 397.544,289.000 397.804 M233.800 398.400 C 232.711 398.677,232.693 398.707,233.600 398.725 C 234.150 398.735,234.960 398.589,235.400 398.400 C 236.386 397.976,235.466 397.976,233.800 398.400 M142.326 399.100 C 146.355 399.165,152.835 399.165,156.726 399.099 C 160.617 399.034,157.320 398.980,149.400 398.981 C 141.480 398.981,138.297 399.034,142.326 399.100 M295.705 399.087 C 296.314 399.179,297.214 399.177,297.705 399.082 C 298.197 398.987,297.700 398.911,296.600 398.914 C 295.500 398.917,295.097 398.995,295.705 399.087 M125.111 399.493 C 126.051 399.578,127.491 399.577,128.311 399.491 C 129.130 399.405,128.360 399.336,126.600 399.337 C 124.840 399.339,124.170 399.409,125.111 399.493 M195.800 399.600 C 195.171 399.870,195.343 399.948,196.600 399.966 C 197.774 399.982,198.040 399.884,197.600 399.600 C 196.900 399.148,196.852 399.148,195.800 399.600 " stroke="none" fill="#7a3d2b" fill-rule="evenodd"></path></g></svg>