<svg viewBox="0 0 1024 1024" version="1.1" xmlns="http://www.w3.org/2000/svg" width="256" height="256" xmlns:xlink="http://www.w3.org/1999/xlink"><path d="M457.728 84.593778a113.777778 113.777778 0 0 1 108.316444 0l284.558223 153.998222A113.777778 113.777778 0 0 1 910.222222 338.659556v363.52l-344.064 186.311111a113.777778 113.777778 0 0 1-108.316444 0l-284.444445-154.055111A113.777778 113.777778 0 0 1 113.777778 634.424889v-295.822222a113.777778 113.777778 0 0 1 59.562666-100.010667z m387.242667 254.520889l-303.217778 149.219555 2.332444 341.333334 300.942223-162.759112V339.057778z m-666.055111 0.284444v327.395556l300.088888 162.588444-2.389333-341.048889-297.699555-148.935111z m56.547555 82.773333l200.817778 102.115556-31.004445 53.703111-200.817777-102.115555 31.004444-53.703112z" fill="#FFFFFF" opacity=".6" p-id="6730"></path></svg>