<svg id="svg" version="1.1" xmlns="http://www.w3.org/2000/svg" xmlns:xlink="http://www.w3.org/1999/xlink" width="400" height="400" viewBox="0, 0, 400,400"><g id="svgg"><path id="path0" d="M219.333 15.321 C 206.867 17.650,203.831 19.841,194.867 32.971 C 190.671 39.117,184.996 53.698,182.646 64.371 C 181.865 67.917,181.683 68.404,181.209 68.200 C 171.563 64.062,159.202 69.717,159.240 78.250 C 159.247 79.691,159.122 80.333,158.836 80.333 C 158.609 80.333,157.354 80.868,156.048 81.521 C 147.104 85.996,143.485 97.610,147.798 108.000 C 147.953 108.374,147.356 108.789,145.419 109.652 C 139.027 112.499,135.000 120.205,135.000 129.591 C 135.000 132.295,134.792 134.282,134.270 136.553 L 133.540 139.732 131.187 141.302 C 125.678 144.977,122.025 146.543,112.167 149.455 C 108.133 150.647,102.433 152.468,99.500 153.502 C 96.567 154.536,90.913 156.494,86.937 157.852 C 74.117 162.231,70.390 164.251,69.152 167.492 C 67.839 170.931,70.202 176.052,73.786 177.535 L 75.222 178.129 74.448 179.481 C 71.838 184.044,75.924 191.043,83.699 195.329 C 84.690 195.875,85.233 196.324,84.906 196.327 C 78.761 196.390,71.916 209.341,73.302 218.279 C 74.897 228.560,82.918 236.063,91.830 235.613 L 94.252 235.491 91.961 237.944 C 87.172 243.072,84.350 253.778,85.745 261.525 C 85.981 262.840,85.950 262.906,84.745 263.586 C 79.072 266.786,72.265 282.432,69.190 299.333 C 67.068 311.004,67.337 331.178,69.717 338.766 C 70.895 342.525,74.051 345.453,78.079 346.525 C 82.265 347.639,96.321 346.932,101.624 345.341 C 106.124 343.990,106.262 344.254,101.938 345.942 C 89.206 350.913,75.569 353.001,68.570 351.051 C 57.751 348.038,47.697 337.709,43.275 325.065 C 37.987 309.943,29.719 305.516,21.035 313.158 C 17.976 315.851,15.545 316.840,17.985 314.400 C 19.488 312.897,19.364 311.991,17.667 312.057 C 16.906 312.087,16.333 312.276,16.333 312.497 C 16.333 312.710,15.943 313.247,15.467 313.692 C 1.819 326.422,4.379 351.444,21.887 376.449 C 26.374 382.858,36.031 387.913,48.833 390.555 C 51.950 391.199,57.425 392.468,61.000 393.376 C 74.586 396.827,80.310 396.847,97.167 393.500 C 108.450 391.260,113.092 389.890,115.914 387.967 C 119.362 385.617,122.503 384.204,126.935 383.009 C 139.818 379.536,152.754 367.777,169.030 344.743 C 171.267 341.577,173.161 339.050,173.238 339.127 C 173.315 339.204,173.218 340.418,173.022 341.824 C 172.410 346.226,172.586 349.154,173.834 355.336 C 174.476 358.516,175.230 362.553,175.509 364.309 C 177.696 378.048,183.446 387.135,191.244 389.175 C 199.872 391.432,207.116 390.317,214.053 385.662 C 220.623 381.255,222.536 379.330,229.313 370.317 C 234.823 362.989,243.360 343.239,244.163 335.963 L 244.370 334.093 246.767 332.463 C 256.589 325.787,268.894 305.689,270.315 294.003 C 270.526 292.273,270.742 290.814,270.796 290.760 C 270.850 290.706,271.882 291.410,273.090 292.324 C 280.674 298.066,292.201 299.846,297.057 296.027 L 297.887 295.374 298.588 296.817 C 300.848 301.470,303.344 302.403,314.691 302.841 L 320.215 303.054 322.875 302.028 C 338.135 296.143,342.482 281.911,333.095 268.570 C 330.459 264.823,330.625 264.532,337.785 260.304 C 351.247 252.353,350.317 245.357,334.167 233.093 C 331.967 231.423,329.729 229.596,329.193 229.034 L 328.220 228.012 330.693 226.936 C 343.338 221.436,347.865 217.026,349.543 208.576 C 349.988 206.334,350.789 202.850,351.324 200.833 C 352.006 198.260,352.359 195.974,352.507 193.167 C 352.623 190.967,353.002 187.517,353.349 185.500 C 353.696 183.483,354.142 180.199,354.339 178.202 C 354.723 174.332,355.366 172.480,356.213 172.805 C 356.913 173.074,358.000 172.425,358.002 171.738 C 358.003 171.349,359.098 170.611,361.443 169.421 C 374.336 162.880,384.075 153.553,394.426 137.833 C 399.796 129.678,400.000 128.831,400.000 114.637 L 400.000 103.057 398.496 101.733 C 395.163 98.799,380.287 93.363,371.333 91.806 C 368.675 91.344,364.850 90.653,362.833 90.270 C 359.803 89.695,357.312 89.539,348.485 89.371 C 335.420 89.121,338.005 90.427,326.667 78.354 C 321.701 73.067,313.047 65.027,309.500 62.405 C 306.747 60.370,302.851 58.469,294.029 54.854 C 279.516 48.907,278.096 48.512,268.819 47.836 C 254.767 46.813,254.745 46.800,249.004 36.333 C 247.848 34.225,246.286 31.391,245.534 30.037 C 242.990 25.453,235.617 18.689,230.211 15.981 C 227.126 14.434,224.826 14.295,219.333 15.321 M228.580 19.555 C 234.264 22.431,240.213 28.482,243.647 34.879 C 251.904 50.265,252.419 50.613,268.667 51.831 C 276.825 52.443,278.052 52.768,289.570 57.369 C 306.716 64.218,311.503 67.661,326.512 83.944 C 335.326 93.506,334.242 93.035,348.167 93.343 L 358.833 93.579 367.167 95.082 C 379.567 97.319,393.534 102.168,396.379 105.223 C 399.591 108.674,399.477 114.584,395.986 125.500 C 392.927 135.067,381.460 150.440,371.500 158.328 C 367.760 161.290,356.052 169.027,354.760 169.390 C 351.892 170.197,350.917 172.166,350.329 178.333 C 350.128 180.442,349.752 183.442,349.494 185.000 C 349.235 186.558,348.854 189.858,348.647 192.333 C 348.412 195.141,347.902 198.230,347.293 200.547 C 346.755 202.589,346.023 205.798,345.665 207.678 C 344.338 214.638,340.585 218.229,329.657 222.995 C 321.546 226.533,322.058 228.977,332.588 236.967 C 338.909 241.764,342.410 245.923,343.147 249.510 C 343.595 251.695,341.479 253.815,335.031 257.636 C 326.539 262.669,325.734 264.736,329.874 270.883 C 337.169 281.714,334.888 292.049,324.014 297.436 L 321.194 298.833 315.181 298.761 C 304.611 298.634,303.728 298.292,301.427 293.435 C 299.407 289.171,298.027 288.582,296.253 291.229 C 293.983 294.615,286.419 294.969,280.029 291.988 C 275.959 290.088,270.458 286.438,270.000 285.333 C 269.514 284.159,268.339 283.738,267.111 284.298 C 266.277 284.678,266.273 284.699,266.496 287.757 C 266.966 294.215,266.159 297.377,261.839 306.009 C 255.289 319.094,250.755 325.073,244.010 329.516 C 241.224 331.352,240.758 332.126,240.139 335.945 C 238.807 344.173,231.224 361.165,225.535 368.667 C 213.984 383.901,205.463 388.307,193.032 385.473 C 186.652 384.018,181.897 376.965,179.868 365.948 C 179.586 364.418,178.734 359.942,177.974 356.000 C 176.461 348.155,176.345 344.090,177.489 339.000 C 178.662 333.786,177.909 330.000,175.701 330.000 C 174.626 330.000,174.103 330.532,171.612 334.167 C 159.751 351.467,155.218 357.107,146.294 365.668 C 136.061 375.486,133.619 377.080,125.399 379.315 C 120.815 380.562,118.078 381.776,114.524 384.141 C 111.462 386.179,107.922 387.251,96.890 389.484 C 80.232 392.857,75.604 392.859,62.000 389.502 C 58.058 388.529,52.508 387.254,49.667 386.668 C 31.770 382.980,26.641 378.846,17.370 360.642 C 12.601 351.278,11.949 349.162,10.365 337.903 C 9.617 332.586,10.912 325.285,12.761 324.398 C 13.261 324.158,13.910 323.483,14.205 322.898 C 15.147 321.028,16.675 319.712,18.530 319.172 C 19.532 318.881,21.020 318.062,22.023 317.249 C 28.143 312.289,29.821 312.159,33.946 316.325 C 36.533 318.938,37.584 320.866,39.669 326.833 C 42.024 333.568,45.363 338.799,51.340 345.113 C 66.476 361.103,89.023 359.188,124.500 338.900 C 136.509 332.032,146.668 319.514,143.115 315.961 C 139.701 312.548,133.966 314.140,129.911 319.627 C 128.607 321.390,126.746 323.914,125.774 325.235 C 120.557 332.324,111.629 338.208,101.567 341.186 L 96.242 342.762 87.538 342.798 C 73.581 342.855,72.929 342.117,71.972 325.167 C 70.585 300.621,77.778 273.156,87.283 266.701 C 89.846 264.960,90.137 264.174,89.629 260.357 C 88.588 252.539,90.984 244.695,95.995 239.505 C 101.317 233.993,101.410 230.572,96.221 231.136 C 95.091 231.259,93.174 231.448,91.960 231.555 C 83.558 232.298,75.806 222.776,77.300 213.545 C 78.641 205.257,81.865 200.777,87.064 199.980 C 94.844 198.787,96.060 195.551,89.555 193.352 C 82.797 191.067,77.667 186.380,77.667 182.488 C 77.667 181.442,77.975 180.972,80.000 178.931 C 83.744 175.157,83.254 173.766,78.241 173.933 C 74.887 174.045,74.440 173.834,73.298 171.597 C 71.478 168.031,73.418 166.778,89.333 161.239 C 103.440 156.329,108.818 154.554,115.833 152.494 C 125.966 149.518,135.307 144.555,136.936 141.280 C 138.123 138.893,138.991 134.045,138.996 129.767 C 139.005 121.962,142.056 115.538,146.758 113.423 C 153.493 110.394,153.629 110.198,151.623 106.365 C 146.970 97.478,152.039 85.654,161.226 83.962 C 164.241 83.407,164.481 82.925,163.472 79.453 C 161.840 73.838,171.212 68.951,178.692 71.515 C 183.383 73.124,184.859 71.854,186.660 64.667 C 189.726 52.423,194.095 41.362,198.373 35.011 C 206.158 23.453,209.578 20.816,218.498 19.492 C 220.514 19.193,222.226 18.885,222.304 18.808 C 222.858 18.253,226.977 18.744,228.580 19.555 M244.000 66.044 C 231.167 67.353,212.277 72.586,199.996 78.234 C 198.440 78.949,196.252 79.874,195.134 80.289 L 193.102 81.043 193.257 82.652 C 193.464 84.811,192.609 87.271,191.033 89.046 L 189.773 90.466 190.694 91.241 C 193.241 93.384,193.704 97.858,191.854 102.440 C 190.730 105.223,190.353 105.006,195.448 104.504 L 199.729 104.082 205.801 98.041 C 209.141 94.718,212.125 92.000,212.430 92.000 C 212.743 92.000,213.283 91.418,213.666 90.668 C 215.893 86.303,228.991 74.370,231.583 74.344 C 232.894 74.331,233.092 75.214,231.849 75.526 C 230.935 75.755,218.715 88.043,217.217 90.239 C 216.240 91.671,211.819 101.347,211.615 102.501 C 211.517 103.049,211.956 103.290,214.500 104.084 C 216.150 104.599,220.950 106.127,225.167 107.479 C 229.383 108.832,238.683 111.774,245.833 114.017 C 252.983 116.260,260.188 118.640,261.844 119.306 L 264.855 120.516 266.919 117.811 C 269.836 113.989,271.684 110.312,273.776 104.167 C 275.993 97.652,276.288 97.000,277.013 97.000 C 278.163 97.000,278.376 97.773,277.851 100.040 C 277.580 101.210,277.197 104.865,277.000 108.164 C 276.636 114.248,276.282 117.420,275.654 120.224 C 275.462 121.078,275.424 121.865,275.570 121.972 C 275.715 122.079,278.908 124.211,282.667 126.709 C 286.425 129.207,290.775 132.234,292.333 133.436 L 295.167 135.622 295.380 133.228 C 295.782 128.712,297.551 122.921,299.183 120.782 C 300.370 119.226,299.534 111.035,297.521 104.500 C 296.770 102.065,296.832 101.333,297.788 101.333 C 299.102 101.333,301.491 107.979,302.160 113.500 C 302.272 114.417,302.434 115.635,302.522 116.208 L 302.681 117.250 304.087 116.766 C 305.822 116.168,307.884 116.428,310.026 117.513 L 311.572 118.297 311.970 116.970 C 312.353 115.689,314.465 113.221,315.815 112.475 C 316.450 112.124,316.449 112.099,315.731 111.091 C 315.329 110.526,315.000 109.970,315.000 109.855 C 315.000 109.410,309.593 100.975,306.973 97.333 C 300.635 88.523,286.985 77.001,276.797 71.863 C 267.709 67.280,254.632 64.960,244.000 66.044 M209.611 97.978 C 209.298 98.855,201.850 106.662,200.893 107.116 C 199.724 107.671,192.665 108.667,189.901 108.667 C 188.502 108.667,188.026 108.864,186.391 110.120 C 183.264 112.523,181.143 113.460,178.778 113.481 L 176.723 113.500 176.358 114.717 C 175.405 117.893,172.560 120.990,169.167 122.543 C 167.540 123.288,167.126 123.707,165.327 126.439 C 162.012 131.471,157.879 140.559,160.628 136.771 C 163.728 132.499,172.847 130.618,176.314 133.535 L 177.278 134.346 177.659 133.090 C 178.492 130.350,179.070 129.004,179.342 129.172 C 180.357 129.799,187.565 131.304,188.691 131.124 C 193.332 130.382,190.573 126.939,183.917 125.167 C 181.715 124.581,181.285 124.181,182.042 123.424 C 182.321 123.146,182.042 122.955,180.959 122.686 C 171.856 120.422,177.005 114.475,187.291 115.373 C 195.426 116.084,201.002 116.753,203.667 117.338 C 205.225 117.681,207.762 118.204,209.305 118.502 C 217.258 120.035,221.124 127.638,214.100 127.930 L 211.769 128.027 211.342 130.411 C 209.134 142.772,201.780 150.450,192.115 150.488 L 189.064 150.500 188.857 152.058 C 188.430 155.276,185.537 158.131,181.728 159.096 L 179.957 159.544 182.395 160.490 C 193.479 164.787,200.595 170.740,206.174 180.382 C 207.060 181.914,207.816 183.212,207.854 183.267 C 207.891 183.322,208.877 183.045,210.044 182.652 C 218.288 179.875,236.004 181.520,254.748 186.803 C 257.085 187.461,259.091 188.000,259.205 188.000 C 259.320 188.000,258.801 187.405,258.052 186.678 C 254.456 183.189,253.634 176.820,256.209 172.405 L 257.041 170.977 255.520 169.286 C 249.785 162.906,249.863 151.866,255.697 144.583 L 256.698 143.333 255.671 142.055 C 253.800 139.727,253.680 137.653,255.330 136.167 C 256.190 135.392,261.180 135.183,262.032 135.886 C 262.289 136.098,263.898 136.513,265.606 136.807 C 273.471 138.160,286.398 145.713,294.095 153.452 C 294.799 154.159,295.421 154.684,295.480 154.619 C 295.627 154.454,296.971 148.641,297.490 145.927 L 297.918 143.688 294.709 140.585 C 290.991 136.989,287.672 134.365,281.191 129.894 C 272.532 123.922,271.962 123.215,272.976 119.724 C 273.332 118.501,273.713 116.600,273.823 115.500 L 274.023 113.500 272.922 115.507 C 270.585 119.767,269.151 121.411,266.801 122.527 C 264.666 123.541,265.002 123.570,261.119 122.035 C 259.312 121.321,251.608 118.761,244.000 116.348 C 236.392 113.934,228.243 111.282,225.892 110.456 C 223.541 109.629,219.416 108.204,216.726 107.289 C 214.035 106.374,211.458 105.378,211.000 105.076 C 210.542 104.773,209.957 104.493,209.700 104.452 C 208.472 104.257,208.446 102.014,209.640 99.229 C 210.008 98.370,210.177 97.667,210.016 97.667 C 209.854 97.667,209.672 97.807,209.611 97.978 M393.779 119.333 C 393.139 120.857,392.000 124.022,392.005 124.263 C 392.008 124.393,392.543 123.561,393.194 122.412 C 393.974 121.036,394.335 120.014,394.253 119.412 L 394.129 118.500 393.779 119.333 M158.150 122.417 C 156.004 129.476,142.264 143.930,130.833 151.154 C 122.896 156.170,97.402 166.076,85.500 168.770 L 83.500 169.222 86.167 169.492 C 87.777 169.655,90.998 169.608,94.296 169.373 C 100.534 168.929,101.333 169.116,101.333 171.023 C 101.333 172.855,98.891 174.508,90.000 178.698 C 87.158 180.037,84.758 181.194,84.667 181.269 C 84.468 181.430,87.030 183.793,91.159 187.259 C 98.144 193.123,105.356 193.947,115.333 190.020 C 121.432 187.620,128.365 185.411,132.559 184.531 C 137.262 183.544,139.132 182.790,138.795 182.017 C 135.047 173.400,143.010 159.963,153.932 156.475 C 155.528 155.966,156.865 155.531,156.903 155.510 C 156.942 155.489,156.570 154.278,156.078 152.819 C 153.503 145.189,155.368 134.841,160.827 126.465 C 161.858 124.884,162.656 123.555,162.601 123.511 C 162.445 123.389,158.599 121.667,158.482 121.667 C 158.425 121.667,158.276 122.004,158.150 122.417 M299.667 144.766 C 299.667 148.653,297.166 160.287,293.885 171.667 C 291.462 180.071,289.575 188.186,288.838 193.368 C 287.608 202.022,288.732 215.003,290.974 218.035 C 291.339 218.530,291.820 219.962,292.041 221.217 C 292.263 222.473,292.657 223.929,292.917 224.453 C 293.199 225.023,293.238 225.314,293.014 225.175 C 292.152 224.643,296.390 237.547,298.485 241.833 C 304.767 254.687,315.510 261.938,324.667 259.505 C 328.252 258.552,336.661 253.670,337.854 251.848 L 338.429 250.971 334.692 247.436 C 326.219 239.422,318.967 228.889,316.164 220.528 C 310.996 205.109,310.928 171.504,316.049 162.825 C 316.981 161.245,318.146 161.198,317.904 162.750 C 317.070 168.117,315.982 183.702,316.014 189.833 L 316.031 193.167 318.002 191.023 C 319.085 189.844,320.434 188.011,320.999 186.951 C 321.565 185.890,322.135 184.956,322.266 184.875 C 322.577 184.683,321.748 167.578,321.114 161.104 C 320.918 159.101,320.892 159.055,320.206 159.493 C 312.783 164.229,300.611 154.966,303.171 146.528 C 303.444 145.627,303.630 144.871,303.584 144.847 C 303.538 144.824,302.900 144.644,302.167 144.448 C 301.433 144.252,300.571 143.980,300.250 143.844 C 299.758 143.634,299.667 143.779,299.667 144.766 M224.214 155.922 C 225.057 156.465,228.041 163.019,227.937 164.098 C 227.714 166.403,225.679 165.145,223.633 161.439 C 222.074 158.615,222.396 158.702,218.403 160.032 C 214.886 161.204,213.667 161.153,213.667 159.835 C 213.667 158.128,222.533 154.839,224.214 155.922 M279.443 158.153 C 276.398 159.477,277.373 162.115,281.668 164.167 C 284.037 165.299,283.988 165.066,282.373 167.565 L 281.079 169.567 282.698 170.962 C 284.742 172.722,286.144 174.753,287.153 177.414 C 287.589 178.565,288.013 179.276,288.099 179.000 C 288.185 178.725,289.397 174.958,290.794 170.629 C 293.677 161.692,293.528 162.333,292.716 162.333 C 292.377 162.333,291.075 161.558,289.822 160.609 C 288.570 159.661,287.160 158.850,286.689 158.806 C 286.218 158.762,284.658 158.488,283.221 158.196 C 281.784 157.905,280.584 157.673,280.554 157.680 C 280.524 157.687,280.024 157.900,279.443 158.153 M187.395 179.580 C 187.349 180.141,187.142 180.310,186.563 180.262 C 185.447 180.170,181.817 182.767,182.198 183.385 C 182.620 184.067,181.893 185.005,180.657 185.376 C 176.286 186.685,163.793 209.183,164.982 213.602 C 166.767 220.229,175.433 214.746,181.155 203.369 C 184.125 197.465,187.842 184.237,187.577 180.517 C 187.511 179.591,187.429 179.169,187.395 179.580 M275.667 194.093 C 276.090 194.538,281.702 196.939,281.599 196.631 C 281.535 196.439,280.512 195.860,279.325 195.344 C 277.090 194.374,275.376 193.787,275.667 194.093 M224.018 195.949 C 221.039 197.636,218.854 199.932,216.170 204.192 C 214.909 206.195,212.156 210.533,210.053 213.833 C 200.639 228.606,201.342 227.008,203.367 229.034 C 204.857 230.524,206.577 231.397,209.967 232.382 L 212.167 233.021 213.442 231.606 C 215.713 229.085,225.462 208.292,226.808 203.097 C 227.326 201.099,227.525 196.221,227.131 195.194 C 226.851 194.465,226.480 194.555,224.018 195.949 M99.136 199.138 C 97.052 199.791,89.246 204.825,87.673 206.532 C 80.096 214.752,85.319 225.500,96.889 225.500 C 101.184 225.500,101.058 225.556,100.657 223.824 C 99.428 218.513,99.557 203.585,100.868 199.250 C 101.073 198.573,100.963 198.566,99.136 199.138 M333.068 220.162 C 331.590 221.181,331.464 221.333,332.093 221.333 C 332.683 221.333,334.600 219.819,334.333 219.563 C 334.242 219.475,333.672 219.745,333.068 220.162 M316.312 273.440 C 311.605 276.626,306.704 280.432,300.833 285.459 L 299.500 286.601 301.135 288.050 C 312.186 297.845,326.993 297.570,329.707 287.520 C 330.830 283.363,327.925 274.974,324.028 271.122 C 322.153 269.268,322.733 269.094,316.312 273.440 M151.041 316.475 C 149.146 324.001,137.909 338.955,129.313 345.389 C 107.448 361.756,78.443 366.762,59.500 357.439 C 46.230 350.908,37.175 341.684,30.050 327.439 C 25.474 318.288,25.154 318.042,21.247 320.656 C 15.650 324.399,14.146 327.144,14.210 333.500 C 14.485 360.685,38.866 381.598,73.465 384.328 C 90.899 385.703,102.403 383.787,117.333 377.022 C 124.999 373.548,140.167 364.028,140.167 362.690 C 140.167 362.542,140.841 361.857,141.664 361.169 C 142.488 360.481,143.377 359.599,143.641 359.209 C 143.905 358.819,145.556 356.995,147.310 355.156 C 153.354 348.821,155.431 346.192,163.852 334.229 C 170.717 324.475,170.559 324.738,169.847 324.218 C 168.516 323.245,155.674 316.632,153.619 315.862 L 151.404 315.032 151.041 316.475 M139.763 318.541 C 141.293 320.070,128.568 332.265,121.604 335.945 L 119.500 337.056 120.667 335.993 C 121.308 335.408,123.108 333.768,124.667 332.348 C 126.225 330.927,128.394 328.506,129.486 326.966 C 133.769 320.928,135.146 319.239,136.144 318.805 C 137.209 318.341,139.403 318.181,139.763 318.541 " stroke="none" fill="#eeeae7" fill-rule="evenodd"></path><path id="path1" d="M214.750 20.310 C 213.030 20.802,212.420 21.185,211.250 22.509 C 204.728 29.890,194.569 46.676,190.643 56.560 C 190.086 57.962,188.893 60.673,187.991 62.585 C 187.088 64.498,186.103 66.943,185.801 68.020 C 184.942 71.082,183.305 72.634,181.333 72.256 C 172.544 70.571,165.614 74.496,165.530 81.206 L 165.500 83.579 163.247 83.770 C 153.777 84.574,147.512 101.209,154.171 107.868 C 154.649 108.346,154.994 108.767,154.937 108.803 C 154.880 108.839,154.383 109.146,153.833 109.486 C 146.179 114.214,140.476 125.040,139.367 136.947 C 139.160 139.165,138.879 140.531,138.578 140.780 C 129.434 148.333,123.422 151.535,106.667 157.772 C 93.405 162.709,91.657 163.275,83.833 165.168 C 76.571 166.924,76.093 167.098,75.615 168.146 C 74.372 170.874,80.203 173.292,88.167 173.352 L 92.167 173.381 88.333 175.179 C 77.442 180.287,77.437 180.300,84.411 186.504 C 90.745 192.139,95.356 195.333,97.157 195.333 C 97.437 195.333,97.667 195.483,97.667 195.667 C 97.667 195.850,97.393 196.000,97.058 196.000 C 94.833 196.000,85.238 202.981,83.158 206.113 C 75.267 217.999,85.551 232.007,100.183 229.302 C 102.072 228.953,102.176 228.970,102.661 229.711 C 102.939 230.136,103.596 230.977,104.121 231.579 L 105.075 232.674 103.121 234.839 C 93.959 244.992,93.172 246.178,91.504 252.333 C 90.303 256.764,90.106 260.123,90.832 263.778 L 91.416 266.724 90.074 268.112 C 84.074 274.317,77.475 290.980,75.201 305.667 C 70.769 334.283,72.600 341.778,84.219 342.571 C 97.600 343.485,112.642 335.037,126.903 318.600 C 130.003 315.026,132.334 313.743,137.280 312.887 C 139.200 312.554,147.628 313.516,148.250 314.139 C 149.208 315.097,138.163 331.688,133.141 336.833 C 132.067 337.933,131.184 338.931,131.178 339.050 C 131.151 339.580,124.056 345.000,123.225 345.125 C 123.010 345.158,121.558 345.951,120.000 346.888 C 99.693 359.102,76.809 361.648,60.500 353.508 C 48.742 347.639,39.988 338.619,33.642 325.833 C 30.201 318.900,28.765 316.825,26.622 315.688 L 25.091 314.875 23.129 316.565 C 21.013 318.387,19.743 319.129,18.160 319.469 C 16.752 319.772,15.476 320.909,14.570 322.667 C 14.071 323.636,13.418 324.336,12.726 324.646 C 8.951 326.335,9.834 341.979,14.287 352.307 C 24.787 376.662,57.168 391.637,92.157 388.319 C 109.514 386.673,133.512 375.137,146.531 362.181 C 153.354 355.391,168.639 335.309,172.220 328.431 C 173.052 326.833,173.420 326.879,175.606 328.858 C 178.264 331.264,179.333 333.402,179.333 336.315 C 179.334 340.323,181.693 359.927,182.848 365.520 C 185.664 379.153,193.349 383.867,206.333 379.925 C 218.070 376.362,236.487 348.976,237.520 333.552 C 237.702 330.833,237.868 330.000,238.227 330.000 C 238.485 330.000,240.003 328.762,241.602 327.250 C 243.200 325.737,246.034 323.187,247.899 321.583 C 259.010 312.029,266.000 296.613,266.000 281.661 C 266.000 281.359,266.847 281.949,268.083 283.112 C 271.519 286.345,276.976 290.282,280.167 291.829 C 285.638 294.483,293.056 294.782,293.818 292.380 C 294.110 291.461,297.221 288.881,297.497 289.329 C 297.616 289.521,297.861 289.586,298.043 289.473 C 298.878 288.957,300.275 290.069,300.885 291.736 C 302.252 295.472,311.746 299.315,318.667 298.933 C 324.537 298.609,331.706 292.811,333.214 287.167 C 334.603 281.964,331.130 271.974,326.610 268.170 C 325.564 267.290,325.698 265.667,326.817 265.667 C 327.021 265.667,327.390 264.981,327.637 264.144 C 328.262 262.030,330.274 260.225,335.447 257.143 C 344.123 251.974,344.287 251.060,337.665 244.750 C 335.483 242.671,332.233 239.140,330.442 236.902 C 328.651 234.664,326.637 232.219,325.966 231.467 C 325.030 230.418,322.000 224.807,322.000 224.121 C 322.000 224.054,322.517 224.000,323.149 224.000 C 324.764 224.000,329.341 222.496,330.698 221.520 C 331.322 221.071,332.658 220.207,333.667 219.602 C 342.023 214.581,347.047 205.646,348.342 193.503 C 348.538 191.668,349.002 188.178,349.372 185.746 C 349.743 183.315,350.182 179.115,350.348 176.413 C 350.513 173.711,350.653 171.463,350.658 171.417 C 350.663 171.371,350.948 171.333,351.293 171.333 C 351.637 171.333,352.114 171.097,352.354 170.809 C 352.593 170.521,353.356 169.995,354.049 169.641 C 360.297 166.454,378.349 148.467,384.132 139.667 C 387.276 134.883,392.008 125.563,391.533 125.089 C 391.367 124.922,393.557 118.714,393.972 118.176 C 394.117 117.987,394.477 116.858,394.772 115.667 C 395.067 114.475,395.614 112.906,395.988 112.180 C 397.976 108.313,395.439 106.817,379.000 102.159 C 364.779 98.130,345.207 94.703,336.231 94.670 C 335.472 94.667,334.149 93.555,329.231 88.785 C 306.869 67.097,279.126 52.981,252.667 49.829 C 251.402 49.678,251.036 49.457,250.333 48.420 C 236.372 27.807,223.657 17.763,214.750 20.310 M254.333 65.678 C 278.108 67.781,298.902 82.343,313.794 107.317 C 317.131 112.912,316.977 112.395,315.509 113.095 C 314.193 113.723,312.482 115.898,312.163 117.349 C 311.864 118.712,311.608 118.771,309.953 117.863 C 307.941 116.758,306.178 116.538,304.179 117.143 C 302.189 117.746,302.158 117.711,301.891 114.556 C 301.528 110.277,299.134 102.158,298.120 101.769 C 297.213 101.421,297.232 101.995,298.266 106.245 C 300.234 114.333,300.672 119.267,299.554 120.732 C 297.763 123.081,295.767 129.717,295.588 133.914 C 295.481 136.442,295.869 136.482,292.037 133.545 C 290.275 132.195,285.983 129.223,282.500 126.940 C 275.536 122.377,274.863 121.837,275.168 121.044 C 275.626 119.850,276.358 113.849,276.678 108.667 C 276.865 105.642,277.218 102.042,277.463 100.667 C 277.936 98.012,277.871 97.333,277.143 97.333 C 276.499 97.333,276.174 98.059,274.154 104.009 C 271.934 110.545,270.431 113.571,267.335 117.740 L 264.929 120.980 264.005 120.503 C 262.201 119.570,258.391 118.268,246.851 114.643 C 240.424 112.625,230.967 109.636,225.833 108.002 C 220.700 106.368,215.375 104.686,214.000 104.265 C 211.982 103.648,211.480 103.361,211.397 102.777 C 211.226 101.578,215.643 91.889,217.495 89.400 C 220.072 85.937,230.734 75.333,231.639 75.333 C 232.096 75.333,232.331 75.170,232.241 74.917 C 231.477 72.764,216.536 85.710,213.952 90.763 C 213.583 91.485,212.919 92.174,212.403 92.369 C 211.906 92.558,208.943 95.254,205.817 98.360 C 199.496 104.642,199.775 104.482,194.583 104.835 C 190.440 105.118,190.370 105.062,191.566 102.452 C 193.453 98.333,192.870 93.156,190.305 91.260 L 189.355 90.557 190.492 89.298 C 192.316 87.280,192.791 86.094,192.882 83.333 L 192.965 80.833 195.899 79.638 C 197.513 78.981,200.933 77.536,203.500 76.427 C 214.590 71.637,234.134 66.590,245.000 65.710 C 250.001 65.304,250.105 65.304,254.333 65.678 M183.182 76.457 C 191.970 79.217,191.624 87.635,182.609 90.374 C 180.084 91.141,178.667 92.079,178.667 92.983 C 178.667 94.014,179.497 94.439,180.737 94.044 C 188.601 91.533,191.694 95.403,187.742 102.808 C 184.821 108.282,180.316 110.655,174.904 109.570 C 174.712 109.531,174.262 110.250,173.904 111.167 C 172.432 114.936,171.792 116.134,170.593 117.369 C 169.901 118.083,169.028 118.667,168.654 118.667 C 168.280 118.667,167.370 118.974,166.633 119.351 C 163.098 121.154,158.687 118.137,158.672 113.906 C 158.664 111.645,159.385 110.127,160.733 109.563 C 161.833 109.104,164.316 106.346,163.267 106.749 C 162.979 106.859,162.434 106.733,162.056 106.468 C 161.588 106.141,160.952 106.053,160.068 106.195 C 156.182 106.816,154.341 102.416,155.836 96.077 C 157.526 88.909,162.616 85.572,167.637 88.339 C 170.831 90.100,171.463 89.492,170.004 86.063 C 166.659 78.203,173.308 73.357,183.182 76.457 M210.236 98.250 C 210.141 98.754,209.816 99.828,209.515 100.637 C 208.632 103.003,208.881 103.692,211.000 104.743 C 213.993 106.228,225.545 110.180,244.500 116.205 C 251.283 118.360,258.333 120.711,260.167 121.427 C 264.332 123.056,265.081 123.206,265.643 122.528 C 265.884 122.238,266.405 122.000,266.800 122.000 C 268.356 122.000,270.809 119.056,273.149 114.383 C 273.824 113.035,274.425 111.985,274.486 112.049 C 274.690 112.269,273.700 118.493,273.199 120.135 C 272.327 122.994,273.288 124.126,281.167 129.518 C 288.091 134.258,290.798 136.416,295.210 140.716 L 298.253 143.681 297.819 145.959 C 296.713 151.766,295.585 155.795,295.206 155.290 C 293.996 153.677,293.219 152.916,290.667 150.840 C 289.108 149.573,287.158 147.983,286.333 147.306 C 280.497 142.518,270.998 137.854,265.286 136.972 C 263.937 136.764,262.394 136.367,261.856 136.090 C 259.172 134.708,254.333 136.203,254.333 138.413 C 254.333 139.417,255.629 141.971,256.374 142.436 C 257.205 142.955,257.172 143.158,256.015 144.603 C 248.891 153.500,250.525 167.285,259.254 171.929 C 267.725 176.436,277.161 174.844,281.681 168.146 C 283.677 165.188,283.670 165.294,281.932 164.453 L 280.531 163.774 279.303 165.637 C 276.525 169.855,275.124 170.680,270.325 170.922 C 258.802 171.503,252.499 163.618,255.362 152.203 C 256.206 148.839,258.286 144.472,259.000 144.565 C 259.551 144.637,272.669 149.952,274.000 150.643 C 280.357 153.941,283.683 156.165,283.501 156.995 C 283.305 157.889,285.582 158.934,286.749 158.486 C 286.993 158.393,288.301 159.145,289.655 160.158 C 291.009 161.171,292.466 162.000,292.892 162.000 C 293.933 162.000,293.914 162.124,291.986 167.846 C 287.985 179.719,285.799 188.386,285.015 195.481 C 284.587 199.357,284.639 199.262,283.436 198.411 C 276.374 193.420,252.511 185.541,235.667 182.638 C 227.941 181.307,214.111 181.498,209.833 182.995 C 208.245 183.551,207.781 183.607,207.578 183.264 C 207.438 183.027,206.567 181.558,205.644 180.000 C 201.174 172.459,195.289 166.825,188.115 163.218 C 180.591 159.435,168.039 155.667,162.964 155.667 C 161.077 155.667,160.773 155.335,159.692 152.095 C 157.700 146.125,158.298 139.111,161.333 132.833 C 163.007 129.373,167.151 123.041,167.909 122.785 C 171.316 121.637,173.904 119.285,175.552 115.841 L 176.672 113.500 178.793 113.310 C 181.360 113.080,183.832 111.937,186.279 109.849 C 187.935 108.435,188.182 108.333,189.957 108.333 C 192.340 108.333,199.217 107.491,200.342 107.061 C 201.161 106.749,205.924 101.980,208.522 98.871 C 209.991 97.114,210.484 96.935,210.236 98.250 M324.818 115.172 C 332.492 116.436,334.114 126.201,327.224 129.663 C 324.963 130.799,324.033 132.213,324.728 133.455 C 325.057 134.042,326.503 134.201,326.821 133.686 C 328.227 131.412,333.405 134.224,335.255 138.266 C 337.075 142.242,334.738 150.832,331.237 153.032 C 328.714 154.616,323.333 152.603,323.333 150.075 C 323.333 146.066,320.535 147.224,320.241 151.355 C 319.810 157.390,316.716 159.090,311.149 156.350 C 305.719 153.676,304.058 149.109,306.709 144.140 C 308.122 141.492,307.994 141.258,305.104 141.202 C 299.204 141.088,297.581 137.167,299.875 128.568 C 302.285 119.536,307.215 117.285,312.020 123.024 C 313.807 125.158,314.644 124.685,314.579 121.578 C 314.502 117.942,316.361 115.776,320.167 115.064 C 321.832 114.753,322.343 114.765,324.818 115.172 M181.268 115.811 C 175.592 117.074,175.321 121.129,180.829 122.362 C 182.611 122.760,183.024 123.073,182.333 123.500 C 181.606 123.949,182.068 124.603,183.342 124.926 C 184.630 125.253,184.704 125.228,185.184 124.300 C 185.827 123.057,184.333 122.881,197.333 125.729 C 199.855 126.281,204.672 126.852,207.921 126.983 C 209.525 127.048,205.357 138.659,202.441 142.248 C 194.182 152.415,177.688 145.580,181.328 133.500 C 182.323 130.196,182.343 130.309,180.680 129.809 C 179.862 129.563,179.171 129.393,179.144 129.431 C 179.117 129.469,178.768 130.475,178.367 131.667 C 172.223 149.953,197.540 158.094,207.254 140.956 C 208.877 138.094,210.435 133.834,211.019 130.667 C 211.238 129.475,211.469 128.313,211.532 128.083 C 211.608 127.804,212.364 127.667,213.823 127.667 C 221.519 127.667,216.490 119.747,208.000 118.496 C 207.175 118.375,205.375 118.000,204.000 117.663 C 201.362 117.016,194.529 116.156,189.500 115.838 C 187.850 115.733,185.750 115.590,184.833 115.518 C 183.917 115.447,182.312 115.579,181.268 115.811 M80.628 116.417 C 80.411 116.829,80.073 117.271,79.876 117.399 C 79.436 117.685,79.830 118.144,80.278 117.867 C 80.609 117.663,81.410 115.667,81.161 115.667 C 81.085 115.667,80.846 116.004,80.628 116.417 M161.078 122.400 C 163.404 123.333,163.412 122.942,160.981 126.809 C 155.331 135.799,153.844 144.528,156.519 152.996 C 156.993 154.499,157.334 155.763,157.274 155.804 C 157.215 155.846,156.192 156.142,155.000 156.462 C 144.405 159.312,135.300 173.180,138.784 181.160 C 139.639 183.119,139.592 183.142,130.131 185.465 C 127.545 186.099,122.370 187.742,118.631 189.115 C 109.560 192.445,109.560 192.445,104.167 192.461 C 98.710 192.478,97.269 192.061,93.456 189.360 C 90.571 187.318,84.262 181.711,84.398 181.310 C 84.454 181.145,86.842 179.905,89.705 178.555 C 100.063 173.671,102.432 171.733,100.350 169.849 C 99.751 169.306,99.295 169.289,94.427 169.620 C 89.307 169.968,83.464 169.815,83.161 169.325 C 83.079 169.192,84.697 168.676,86.756 168.177 C 94.632 166.271,116.147 158.439,123.833 154.680 C 137.524 147.984,151.105 135.433,157.170 123.871 C 157.902 122.476,158.650 121.403,158.833 121.485 C 159.017 121.567,160.027 121.979,161.078 122.400 M302.234 144.143 C 304.070 144.642,304.053 144.608,303.488 146.485 C 301.048 154.591,311.879 163.359,319.417 159.381 C 320.471 158.824,321.339 158.473,321.347 158.601 C 321.354 158.729,321.409 159.583,321.470 160.500 C 321.607 162.559,322.271 173.885,322.624 180.167 C 322.854 184.258,322.819 184.916,322.338 185.500 C 322.036 185.867,321.282 187.026,320.662 188.075 C 320.043 189.125,318.665 190.845,317.601 191.898 L 315.667 193.812 315.663 190.490 C 315.655 183.633,316.771 167.398,317.547 163.083 C 318.051 160.286,316.053 162.835,315.000 166.333 C 310.681 180.680,312.125 210.491,317.785 223.833 C 320.923 231.230,328.278 241.226,335.300 247.636 C 338.830 250.859,338.996 251.381,337.026 253.067 C 324.379 263.893,310.763 261.717,301.368 247.369 C 297.505 241.469,292.608 228.753,292.369 224.005 C 292.277 222.175,291.418 219.236,290.491 217.576 C 286.039 209.611,287.378 193.108,294.467 168.596 C 296.630 161.116,298.735 151.188,299.187 146.333 C 299.457 143.431,299.545 143.206,300.284 143.525 C 300.586 143.656,301.464 143.934,302.234 144.143 M43.005 143.917 C 43.023 144.770,43.615 145.052,43.976 144.378 C 44.307 143.760,44.268 143.667,43.678 143.667 C 43.305 143.667,43.002 143.779,43.005 143.917 M187.870 179.193 C 189.008 183.727,183.341 201.245,178.299 208.780 C 170.674 220.176,161.026 218.838,165.956 207.068 C 169.164 199.410,177.998 185.959,180.314 185.206 C 181.199 184.919,181.526 184.585,181.740 183.750 C 182.075 182.450,184.986 180.000,186.197 180.000 C 186.831 180.000,187.000 179.825,187.000 179.167 C 187.000 178.075,187.594 178.093,187.870 179.193 M227.374 195.250 C 227.966 196.766,227.534 201.833,226.570 204.679 C 224.116 211.922,215.805 229.332,213.626 231.793 L 212.419 233.156 210.515 232.756 C 206.830 231.983,203.130 229.863,202.147 227.961 C 201.515 226.739,201.622 226.529,207.901 216.724 C 210.210 213.117,213.152 208.442,214.439 206.333 C 218.493 199.688,219.789 198.218,223.667 195.865 C 226.600 194.085,226.900 194.035,227.374 195.250 M101.206 198.917 C 100.054 202.829,99.759 217.612,100.730 222.782 C 101.325 225.952,101.484 225.827,96.833 225.831 C 84.955 225.840,79.826 214.711,87.748 206.117 C 90.673 202.944,101.769 197.007,101.206 198.917 M323.975 270.750 C 328.813 275.417,331.504 284.683,329.327 289.179 C 325.170 297.767,312.017 297.589,301.617 288.804 C 299.023 286.613,299.008 286.650,304.250 282.292 C 310.462 277.128,311.037 276.692,316.804 272.780 C 322.675 268.797,322.115 268.956,323.975 270.750 M156.798 316.946 C 165.419 320.986,170.852 324.364,170.322 325.354 C 167.814 330.040,153.823 348.534,148.306 354.455 C 145.892 357.047,143.223 359.915,142.375 360.830 C 141.527 361.744,140.721 362.457,140.583 362.413 C 140.446 362.369,140.371 362.471,140.417 362.638 C 140.524 363.033,137.383 365.492,133.167 368.314 C 116.540 379.442,100.383 385.000,84.659 385.000 C 44.206 385.000,16.597 365.947,14.036 336.262 C 13.319 327.951,15.759 323.111,22.402 319.667 L 24.638 318.508 25.838 319.671 C 26.631 320.439,28.221 323.168,30.523 327.713 C 37.693 341.867,46.733 350.923,60.093 357.336 C 83.981 368.802,122.833 357.223,140.920 333.248 C 145.460 327.229,150.667 318.433,150.667 316.780 C 150.667 314.396,151.398 314.415,156.798 316.946 " stroke="none" fill="#1e1e1e" fill-rule="evenodd"></path><path id="path2" d="M173.980 76.122 C 169.507 77.328,167.962 81.173,170.096 85.790 C 171.847 89.581,171.046 90.395,167.446 88.481 C 161.790 85.474,156.748 89.737,155.598 98.498 C 154.943 103.493,156.517 106.246,159.833 105.904 C 161.192 105.764,161.729 105.840,162.043 106.218 C 162.340 106.576,162.785 106.656,163.618 106.500 L 164.779 106.282 163.740 107.156 C 163.169 107.636,162.607 108.329,162.491 108.695 C 162.367 109.086,161.874 109.442,161.296 109.557 C 158.496 110.118,157.878 114.887,160.243 117.697 C 161.922 119.692,164.818 120.246,166.886 118.968 C 167.508 118.583,168.229 118.350,168.487 118.449 C 170.070 119.056,174.849 110.977,173.857 109.372 C 173.651 109.038,175.212 109.178,177.391 109.689 C 179.305 110.138,182.000 109.185,182.000 108.060 C 182.000 107.231,182.726 106.639,184.081 106.361 C 187.443 105.674,190.703 96.549,188.405 94.259 C 187.490 93.348,183.475 93.293,181.024 94.158 C 179.231 94.791,178.333 94.402,178.333 92.994 C 178.333 91.917,180.243 90.675,182.667 90.175 C 186.780 89.327,190.181 85.149,189.330 81.988 C 188.168 77.673,179.919 74.520,173.980 76.122 M318.916 115.451 C 316.200 116.216,314.394 119.008,314.783 121.842 C 315.160 124.597,313.571 125.491,312.080 123.363 C 306.850 115.902,299.385 122.299,299.213 134.391 C 299.144 139.208,300.527 140.781,304.940 140.905 C 306.348 140.945,307.631 140.982,307.792 140.989 C 308.249 141.006,307.726 143.073,307.021 144.035 C 303.881 148.319,306.410 154.484,312.195 156.649 C 317.203 158.522,319.914 156.635,319.975 151.235 C 319.996 149.296,320.117 148.852,320.815 148.155 C 322.154 146.815,323.667 147.804,323.667 150.019 C 323.667 152.820,328.997 154.576,331.506 152.602 C 334.132 150.537,336.398 143.573,335.624 139.949 C 334.628 135.290,330.086 132.069,327.000 133.833 C 324.870 135.051,323.641 133.968,324.592 131.711 C 325.037 130.654,325.468 130.225,326.500 129.812 C 331.185 127.935,332.793 123.078,330.147 118.799 C 328.250 115.729,323.236 114.235,318.916 115.451 " stroke="none" fill="#0404bb" fill-rule="evenodd"></path><path id="path3" d="M185.402 124.347 C 184.967 125.044,185.111 125.667,185.707 125.667 C 187.252 125.667,191.000 128.136,191.000 129.155 C 191.000 131.112,188.689 131.801,185.306 130.852 C 182.680 130.116,182.500 130.215,181.686 132.851 C 177.069 147.798,197.562 152.917,204.576 138.568 C 206.236 135.173,207.653 130.781,207.756 128.713 L 207.833 127.167 204.500 126.915 C 202.667 126.777,197.942 125.989,194.000 125.164 C 185.731 123.433,185.960 123.454,185.402 124.347 M258.196 145.408 C 253.160 153.094,254.002 164.402,259.902 168.309 C 264.457 171.326,273.169 171.778,276.282 169.158 C 278.286 167.473,280.578 163.664,279.839 163.250 C 276.346 161.295,277.240 157.838,281.240 157.830 C 284.582 157.823,284.366 156.761,280.571 154.555 C 274.514 151.032,273.477 150.525,266.701 147.763 C 258.066 144.243,258.823 144.452,258.196 145.408 " stroke="none" fill="#bcde88" fill-rule="evenodd"></path><path id="path4" d="M167.667 132.521 C 159.864 134.989,157.124 140.711,159.332 149.923 C 160.493 154.764,160.840 155.194,163.789 155.443 C 167.001 155.715,171.459 156.713,175.976 158.174 C 180.126 159.515,180.730 159.560,183.016 158.691 C 186.334 157.430,188.453 154.987,188.871 151.939 L 189.077 150.432 187.498 150.034 C 181.262 148.464,177.336 143.479,177.198 136.954 C 177.136 134.068,176.847 133.537,174.833 132.621 C 173.215 131.885,169.827 131.837,167.667 132.521 M218.537 156.850 C 214.523 158.231,213.667 158.755,213.667 159.835 C 213.667 161.153,214.886 161.204,218.403 160.032 C 222.396 158.702,222.074 158.615,223.633 161.439 C 225.152 164.191,225.802 164.888,227.000 165.052 C 228.507 165.259,228.291 163.530,226.317 159.598 C 223.995 154.975,223.994 154.974,218.537 156.850 M279.891 170.849 C 276.197 175.296,264.726 175.814,258.590 171.811 C 257.023 170.788,257.174 170.750,256.202 172.417 C 254.426 175.461,254.256 180.555,255.827 183.654 C 257.467 186.891,258.809 187.802,265.516 190.234 C 268.807 191.428,273.075 192.976,275.000 193.675 C 279.474 195.299,281.667 196.284,281.667 196.670 C 281.667 196.970,283.956 198.667,284.362 198.667 C 284.475 198.667,284.665 197.412,284.783 195.878 C 285.041 192.521,285.710 188.838,287.016 183.579 L 287.991 179.657 287.176 177.492 C 286.164 174.803,284.812 172.812,282.795 171.036 C 280.951 169.412,281.078 169.421,279.891 170.849 " stroke="none" fill="#e64133" fill-rule="evenodd"></path><path id="path5" d="M253.750 65.896 C 254.071 65.980,254.596 65.980,254.917 65.896 C 255.237 65.813,254.975 65.744,254.333 65.744 C 253.692 65.744,253.429 65.813,253.750 65.896 M224.996 81.583 L 219.500 87.167 225.083 81.670 C 228.154 78.648,230.667 76.135,230.667 76.087 C 230.667 75.849,230.102 76.396,224.996 81.583 M226.146 77.750 L 225.167 78.833 226.250 77.854 C 226.846 77.316,227.333 76.828,227.333 76.771 C 227.333 76.513,227.058 76.740,226.146 77.750 M223.479 80.083 L 222.500 81.167 223.583 80.188 C 224.179 79.649,224.667 79.162,224.667 79.104 C 224.667 78.847,224.392 79.074,223.479 80.083 M193.100 83.333 C 193.100 84.342,193.162 84.754,193.239 84.250 C 193.315 83.746,193.315 82.921,193.239 82.417 C 193.162 81.912,193.100 82.325,193.100 83.333 M218.826 84.417 L 216.167 87.167 218.917 84.508 C 220.429 83.045,221.667 81.808,221.667 81.758 C 221.667 81.515,221.295 81.863,218.826 84.417 M299.833 89.000 C 301.291 90.467,302.559 91.667,302.651 91.667 C 302.743 91.667,301.625 90.467,300.167 89.000 C 298.709 87.533,297.441 86.333,297.349 86.333 C 297.257 86.333,298.375 87.533,299.833 89.000 M218.479 88.417 L 217.500 89.500 218.583 88.521 C 219.179 87.983,219.667 87.495,219.667 87.438 C 219.667 87.180,219.392 87.407,218.479 88.417 M215.817 92.031 C 215.524 92.598,215.343 93.121,215.416 93.193 C 215.488 93.266,215.797 92.802,216.102 92.162 C 216.787 90.725,216.550 90.615,215.817 92.031 M204.662 99.250 L 200.500 103.500 204.750 99.338 C 208.698 95.473,209.151 95.000,208.912 95.000 C 208.863 95.000,206.951 96.912,204.662 99.250 M276.969 97.291 C 277.410 97.414,277.887 97.812,278.029 98.174 C 278.209 98.636,278.294 98.678,278.310 98.317 C 278.343 97.594,277.660 96.994,276.850 97.033 C 276.257 97.062,276.272 97.096,276.969 97.291 M206.151 101.750 L 204.833 103.167 206.250 101.849 C 207.567 100.624,207.820 100.333,207.568 100.333 C 207.513 100.333,206.876 100.971,206.151 101.750 M208.672 102.528 C 208.675 103.063,208.820 103.725,208.996 104.000 C 209.213 104.340,209.249 104.075,209.110 103.167 C 208.857 101.519,208.665 101.238,208.672 102.528 M202.818 105.417 L 201.500 106.833 202.917 105.516 C 204.234 104.290,204.487 104.000,204.234 104.000 C 204.180 104.000,203.542 104.638,202.818 105.417 M276.773 109.333 C 276.773 110.525,276.834 111.013,276.908 110.417 C 276.982 109.821,276.982 108.846,276.908 108.250 C 276.834 107.654,276.773 108.142,276.773 109.333 M191.083 108.563 C 191.404 108.647,191.929 108.647,192.250 108.563 C 192.571 108.479,192.308 108.411,191.667 108.411 C 191.025 108.411,190.762 108.479,191.083 108.563 M273.900 113.114 C 273.806 113.359,273.862 113.772,274.026 114.030 C 274.242 114.372,274.325 114.250,274.328 113.583 C 274.334 112.588,274.170 112.409,273.900 113.114 M276.411 114.000 C 276.411 114.642,276.479 114.904,276.563 114.583 C 276.647 114.263,276.647 113.737,276.563 113.417 C 276.479 113.096,276.411 113.358,276.411 114.000 M313.812 114.083 L 312.833 115.167 313.917 114.188 C 314.512 113.649,315.000 113.162,315.000 113.104 C 315.000 112.847,314.725 113.074,313.812 114.083 M177.917 113.569 C 178.329 113.648,179.004 113.648,179.417 113.569 C 179.829 113.489,179.492 113.424,178.667 113.424 C 177.842 113.424,177.504 113.489,177.917 113.569 M185.917 115.569 C 186.329 115.648,187.004 115.648,187.417 115.569 C 187.829 115.489,187.492 115.424,186.667 115.424 C 185.842 115.424,185.504 115.489,185.917 115.569 M299.757 116.667 C 299.757 117.492,299.822 117.829,299.902 117.417 C 299.981 117.004,299.981 116.329,299.902 115.917 C 299.822 115.504,299.757 115.842,299.757 116.667 M302.357 116.917 C 302.344 117.329,302.446 117.661,302.583 117.655 C 302.990 117.636,304.531 116.691,304.167 116.684 C 303.983 116.680,303.608 116.819,303.333 116.993 C 302.972 117.221,302.771 117.150,302.607 116.738 C 302.422 116.273,302.376 116.307,302.357 116.917 M305.417 116.563 C 305.737 116.647,306.262 116.647,306.583 116.563 C 306.904 116.479,306.642 116.411,306.000 116.411 C 305.358 116.411,305.096 116.479,305.417 116.563 M268.982 120.917 L 267.833 122.167 269.083 121.018 C 270.247 119.949,270.487 119.667,270.232 119.667 C 270.176 119.667,269.614 120.229,268.982 120.917 M265.667 122.667 C 265.667 122.850,265.254 123.020,264.750 123.045 C 263.972 123.084,263.946 123.113,264.578 123.235 C 264.988 123.314,265.659 123.143,266.069 122.856 C 266.680 122.428,266.711 122.333,266.241 122.333 C 265.925 122.333,265.667 122.483,265.667 122.667 M258.088 135.573 C 258.595 135.649,259.345 135.647,259.755 135.568 C 260.165 135.489,259.750 135.426,258.833 135.429 C 257.917 135.431,257.581 135.496,258.088 135.573 M177.084 136.833 C 177.088 137.567,177.156 137.827,177.236 137.413 C 177.315 136.998,177.312 136.398,177.229 136.079 C 177.146 135.761,177.080 136.100,177.084 136.833 M144.990 139.917 L 142.833 142.167 145.083 140.010 C 146.321 138.823,147.333 137.811,147.333 137.760 C 147.333 137.514,146.994 137.827,144.990 139.917 M295.167 141.000 C 296.625 142.467,297.893 143.667,297.984 143.667 C 298.076 143.667,296.958 142.467,295.500 141.000 C 294.042 139.533,292.774 138.333,292.682 138.333 C 292.591 138.333,293.709 139.533,295.167 141.000 M299.424 145.333 C 299.424 146.158,299.489 146.496,299.569 146.083 C 299.648 145.671,299.648 144.996,299.569 144.583 C 299.489 144.171,299.424 144.508,299.424 145.333 M203.818 145.750 L 202.500 147.167 203.917 145.849 C 205.234 144.624,205.487 144.333,205.234 144.333 C 205.180 144.333,204.542 144.971,203.818 145.750 M190.917 150.574 C 191.512 150.648,192.487 150.648,193.083 150.574 C 193.679 150.501,193.192 150.440,192.000 150.440 C 190.808 150.440,190.321 150.501,190.917 150.574 M251.103 157.500 C 251.105 158.600,251.167 159.010,251.242 158.411 C 251.316 157.812,251.314 156.912,251.238 156.411 C 251.162 155.910,251.101 156.400,251.103 157.500 M319.833 159.356 C 319.283 159.708,318.987 159.997,319.176 159.998 C 319.364 159.999,319.843 159.773,320.240 159.495 C 320.942 159.003,320.965 159.027,321.089 160.411 L 321.217 161.833 321.275 160.250 C 321.340 158.490,321.261 158.441,319.833 159.356 M145.151 161.750 L 143.833 163.167 145.250 161.849 C 146.567 160.624,146.820 160.333,146.568 160.333 C 146.513 160.333,145.876 160.971,145.151 161.750 M321.429 164.500 C 321.431 165.417,321.496 165.752,321.573 165.245 C 321.649 164.739,321.647 163.989,321.568 163.579 C 321.489 163.169,321.426 163.583,321.429 164.500 M317.077 166.667 C 317.077 167.308,317.146 167.571,317.230 167.250 C 317.314 166.929,317.314 166.404,317.230 166.083 C 317.146 165.762,317.077 166.025,317.077 166.667 M321.762 169.500 C 321.765 170.417,321.829 170.752,321.906 170.245 C 321.982 169.739,321.980 168.989,321.901 168.579 C 321.822 168.169,321.760 168.583,321.762 169.500 M255.833 169.667 C 256.549 170.400,257.210 171.000,257.302 171.000 C 257.394 171.000,256.883 170.400,256.167 169.667 C 255.451 168.933,254.790 168.333,254.698 168.333 C 254.606 168.333,255.117 168.933,255.833 169.667 M97.917 169.235 C 98.329 169.315,99.004 169.315,99.417 169.235 C 99.829 169.156,99.492 169.091,98.667 169.091 C 97.842 169.091,97.504 169.156,97.917 169.235 M93.083 169.563 C 93.404 169.647,93.929 169.647,94.250 169.563 C 94.571 169.479,94.308 169.411,93.667 169.411 C 93.025 169.411,92.763 169.479,93.083 169.563 M316.773 171.667 C 316.773 172.858,316.834 173.346,316.908 172.750 C 316.982 172.154,316.982 171.179,316.908 170.583 C 316.834 169.987,316.773 170.475,316.773 171.667 M279.479 171.083 L 278.500 172.167 279.583 171.188 C 280.179 170.649,280.667 170.162,280.667 170.104 C 280.667 169.847,280.392 170.074,279.479 171.083 M322.107 176.000 C 322.107 177.192,322.167 177.679,322.241 177.083 C 322.315 176.487,322.315 175.512,322.241 174.917 C 322.167 174.321,322.107 174.808,322.107 176.000 M316.429 177.500 C 316.431 178.417,316.496 178.752,316.573 178.245 C 316.649 177.739,316.647 176.989,316.568 176.579 C 316.489 176.169,316.426 176.583,316.429 177.500 M137.751 177.500 C 137.754 178.233,137.823 178.494,137.902 178.079 C 137.982 177.665,137.979 177.065,137.896 176.746 C 137.812 176.427,137.747 176.767,137.751 177.500 M187.744 180.333 C 187.744 180.975,187.813 181.237,187.896 180.917 C 187.980 180.596,187.980 180.071,187.896 179.750 C 187.813 179.429,187.744 179.692,187.744 180.333 M312.417 181.833 C 312.421 182.567,312.489 182.827,312.569 182.413 C 312.649 181.998,312.646 181.398,312.562 181.079 C 312.479 180.761,312.414 181.100,312.417 181.833 M84.333 181.220 C 84.333 181.402,84.746 181.914,85.250 182.359 L 86.167 183.167 85.333 182.167 C 84.875 181.617,84.462 181.104,84.417 181.028 C 84.371 180.951,84.333 181.038,84.333 181.220 M223.592 181.578 C 224.376 181.648,225.576 181.647,226.259 181.576 C 226.941 181.504,226.300 181.446,224.833 181.448 C 223.367 181.449,222.808 181.507,223.592 181.578 M316.091 182.667 C 316.091 183.492,316.156 183.829,316.235 183.417 C 316.315 183.004,316.315 182.329,316.235 181.917 C 316.156 181.504,316.091 181.842,316.091 182.667 M322.429 182.833 C 322.431 183.750,322.496 184.085,322.573 183.579 C 322.649 183.072,322.647 182.322,322.568 181.912 C 322.489 181.502,322.426 181.917,322.429 182.833 M214.417 181.896 C 214.737 181.980,215.262 181.980,215.583 181.896 C 215.904 181.813,215.642 181.744,215.000 181.744 C 214.358 181.744,214.096 181.813,214.417 181.896 M322.092 185.075 C 321.907 185.309,321.577 185.875,321.359 186.333 C 320.985 187.120,320.992 187.129,321.470 186.500 C 321.749 186.133,322.148 185.636,322.356 185.395 C 322.564 185.154,322.665 184.887,322.581 184.803 C 322.497 184.719,322.277 184.842,322.092 185.075 M312.132 189.500 C 312.132 192.067,312.184 193.073,312.248 191.735 C 312.311 190.398,312.311 188.298,312.247 187.069 C 312.183 185.839,312.131 186.933,312.132 189.500 M315.737 189.750 C 315.657 193.805,315.705 193.863,317.516 191.917 L 318.833 190.500 317.429 191.806 L 316.025 193.111 315.916 189.639 L 315.807 186.167 315.737 189.750 M102.917 192.569 C 103.329 192.648,104.004 192.648,104.417 192.569 C 104.829 192.489,104.492 192.424,103.667 192.424 C 102.842 192.424,102.504 192.489,102.917 192.569 M227.443 198.167 C 227.444 199.450,227.504 199.934,227.577 199.243 C 227.649 198.551,227.648 197.501,227.574 196.909 C 227.500 196.317,227.441 196.883,227.443 198.167 M312.417 197.833 C 312.421 198.567,312.489 198.827,312.569 198.413 C 312.649 197.998,312.646 197.398,312.562 197.079 C 312.479 196.761,312.414 197.100,312.417 197.833 M288.107 200.333 C 288.107 201.525,288.167 202.012,288.241 201.417 C 288.315 200.821,288.315 199.846,288.241 199.250 C 288.167 198.654,288.107 199.142,288.107 200.333 M87.812 206.083 L 86.833 207.167 87.917 206.188 C 88.926 205.275,89.153 205.000,88.896 205.000 C 88.838 205.000,88.351 205.487,87.812 206.083 M99.795 211.000 C 99.795 213.292,99.848 214.229,99.913 213.083 C 99.979 211.938,99.979 210.063,99.913 208.917 C 99.848 207.771,99.795 208.708,99.795 211.000 M174.322 213.250 L 172.500 215.167 174.417 213.345 C 176.197 211.652,176.486 211.333,176.239 211.333 C 176.187 211.333,175.324 212.196,174.322 213.250 M95.750 225.905 C 96.254 225.982,97.079 225.982,97.583 225.905 C 98.087 225.829,97.675 225.767,96.667 225.767 C 95.658 225.767,95.246 225.829,95.750 225.905 M333.000 245.833 C 334.734 247.575,336.228 249.000,336.320 249.000 C 336.412 249.000,335.068 247.575,333.333 245.833 C 331.599 244.092,330.105 242.667,330.013 242.667 C 329.922 242.667,331.266 244.092,333.000 245.833 M329.821 293.083 L 328.167 294.833 329.917 293.179 C 331.543 291.642,331.820 291.333,331.571 291.333 C 331.518 291.333,330.731 292.121,329.821 293.083 M135.160 340.083 L 132.167 343.167 135.250 340.174 C 138.114 337.394,138.485 337.000,138.243 337.000 C 138.193 337.000,136.806 338.387,135.160 340.083 M41.667 344.500 C 43.401 346.242,44.895 347.667,44.987 347.667 C 45.078 347.667,43.734 346.242,42.000 344.500 C 40.266 342.758,38.772 341.333,38.680 341.333 C 38.588 341.333,39.932 342.758,41.667 344.500 M150.479 351.750 L 149.500 352.833 150.583 351.854 C 151.593 350.942,151.820 350.667,151.562 350.667 C 151.505 350.667,151.017 351.154,150.479 351.750 M75.917 361.902 C 76.329 361.981,77.004 361.981,77.417 361.902 C 77.829 361.822,77.492 361.757,76.667 361.757 C 75.842 361.757,75.504 361.822,75.917 361.902 M85.583 361.902 C 85.996 361.981,86.671 361.981,87.083 361.902 C 87.496 361.822,87.158 361.757,86.333 361.757 C 85.508 361.757,85.171 361.822,85.583 361.902 M27.167 365.000 C 28.440 366.283,29.557 367.333,29.649 367.333 C 29.740 367.333,28.773 366.283,27.500 365.000 C 26.227 363.717,25.110 362.667,25.018 362.667 C 24.926 362.667,25.893 363.717,27.167 365.000 M74.417 384.563 C 74.737 384.647,75.262 384.647,75.583 384.563 C 75.904 384.479,75.642 384.411,75.000 384.411 C 74.358 384.411,74.096 384.479,74.417 384.563 M82.099 384.915 C 83.528 384.977,85.778 384.977,87.099 384.914 C 88.419 384.851,87.250 384.800,84.500 384.800 C 81.750 384.800,80.669 384.852,82.099 384.915 " stroke="none" fill="#706f6c" fill-rule="evenodd"></path><path id="path6" d="M249.256 65.575 C 249.855 65.649,250.755 65.648,251.256 65.572 C 251.757 65.495,251.267 65.435,250.167 65.437 C 249.067 65.438,248.657 65.501,249.256 65.575 M225.162 81.083 L 220.833 85.500 225.250 81.171 C 227.679 78.791,229.667 76.803,229.667 76.755 C 229.667 76.516,229.183 76.981,225.162 81.083 M221.479 82.083 L 220.500 83.167 221.583 82.188 C 222.179 81.649,222.667 81.162,222.667 81.104 C 222.667 80.847,222.392 81.074,221.479 82.083 M216.812 86.750 L 215.833 87.833 216.917 86.854 C 217.512 86.316,218.000 85.828,218.000 85.771 C 218.000 85.513,217.725 85.740,216.812 86.750 M192.762 97.167 C 192.765 98.083,192.829 98.419,192.906 97.912 C 192.982 97.405,192.980 96.655,192.901 96.245 C 192.822 95.835,192.760 96.250,192.762 97.167 M207.146 100.417 L 206.167 101.500 207.250 100.521 C 207.846 99.983,208.333 99.495,208.333 99.438 C 208.333 99.180,208.058 99.407,207.146 100.417 M202.989 104.917 L 201.167 106.833 203.083 105.011 C 204.864 103.319,205.153 103.000,204.905 103.000 C 204.853 103.000,203.991 103.862,202.989 104.917 M276.744 106.333 C 276.744 106.975,276.813 107.237,276.896 106.917 C 276.980 106.596,276.980 106.071,276.896 105.750 C 276.813 105.429,276.744 105.692,276.744 106.333 M188.583 108.569 C 188.996 108.648,189.671 108.648,190.083 108.569 C 190.496 108.489,190.158 108.424,189.333 108.424 C 188.508 108.424,188.171 108.489,188.583 108.569 M302.077 116.000 C 302.077 116.642,302.146 116.904,302.230 116.583 C 302.314 116.263,302.314 115.737,302.230 115.417 C 302.146 115.096,302.077 115.358,302.077 116.000 M213.921 127.902 C 214.335 127.982,214.935 127.979,215.254 127.896 C 215.573 127.812,215.233 127.747,214.500 127.751 C 213.767 127.754,213.506 127.823,213.921 127.902 M155.077 143.667 C 155.077 144.308,155.146 144.571,155.230 144.250 C 155.314 143.929,155.314 143.404,155.230 143.083 C 155.146 142.762,155.077 143.025,155.077 143.667 M158.417 145.167 C 158.421 145.900,158.489 146.161,158.569 145.746 C 158.649 145.331,158.646 144.731,158.562 144.413 C 158.479 144.094,158.414 144.433,158.417 145.167 M155.077 146.667 C 155.077 147.308,155.146 147.571,155.230 147.250 C 155.314 146.929,155.314 146.404,155.230 146.083 C 155.146 145.762,155.077 146.025,155.077 146.667 M306.000 156.167 C 306.622 156.808,307.206 157.333,307.297 157.333 C 307.389 157.333,306.955 156.808,306.333 156.167 C 305.711 155.525,305.128 155.000,305.036 155.000 C 304.944 155.000,305.378 155.525,306.000 156.167 M161.921 155.569 C 162.335 155.649,162.935 155.646,163.254 155.562 C 163.573 155.479,163.233 155.414,162.500 155.417 C 161.767 155.421,161.506 155.489,161.921 155.569 M145.154 162.083 L 143.500 163.833 145.250 162.179 C 146.212 161.269,147.000 160.482,147.000 160.429 C 147.000 160.180,146.691 160.457,145.154 162.083 M314.917 160.569 C 315.329 160.648,316.004 160.648,316.417 160.569 C 316.829 160.489,316.492 160.424,315.667 160.424 C 314.842 160.424,314.504 160.489,314.917 160.569 M316.649 162.239 C 316.265 162.746,316.267 162.772,316.666 162.417 C 317.283 161.867,317.584 161.891,317.775 162.507 C 317.894 162.891,317.920 162.878,317.883 162.451 C 317.812 161.650,317.178 161.541,316.649 162.239 M321.744 167.000 C 321.744 167.642,321.813 167.904,321.896 167.583 C 321.980 167.262,321.980 166.737,321.896 166.417 C 321.813 166.096,321.744 166.358,321.744 167.000 M316.751 168.500 C 316.754 169.233,316.823 169.494,316.902 169.079 C 316.982 168.665,316.979 168.065,316.896 167.746 C 316.812 167.427,316.747 167.767,316.751 168.500 M198.333 170.500 C 198.955 171.142,199.539 171.667,199.631 171.667 C 199.722 171.667,199.289 171.142,198.667 170.500 C 198.045 169.858,197.461 169.333,197.369 169.333 C 197.278 169.333,197.711 169.858,198.333 170.500 M88.256 169.908 C 88.855 169.982,89.755 169.981,90.256 169.905 C 90.757 169.829,90.267 169.768,89.167 169.770 C 88.067 169.772,87.657 169.834,88.256 169.908 M322.100 172.333 C 322.100 173.342,322.162 173.754,322.239 173.250 C 322.315 172.746,322.315 171.921,322.239 171.417 C 322.162 170.912,322.100 171.325,322.100 172.333 M316.417 174.833 C 316.421 175.567,316.489 175.827,316.569 175.413 C 316.649 174.998,316.646 174.398,316.562 174.079 C 316.479 173.761,316.414 174.100,316.417 174.833 M268.250 174.569 C 268.662 174.648,269.337 174.648,269.750 174.569 C 270.162 174.489,269.825 174.424,269.000 174.424 C 268.175 174.424,267.837 174.489,268.250 174.569 M186.931 179.316 C 186.852 179.856,186.892 180.233,187.021 180.154 C 187.354 179.948,187.624 178.333,187.325 178.333 C 187.188 178.333,187.011 178.775,186.931 179.316 M322.417 180.167 C 322.421 180.900,322.489 181.161,322.569 180.746 C 322.649 180.331,322.646 179.731,322.562 179.413 C 322.479 179.094,322.414 179.433,322.417 180.167 M316.077 180.333 C 316.077 180.975,316.146 181.237,316.230 180.917 C 316.314 180.596,316.314 180.071,316.230 179.750 C 316.146 179.429,316.077 179.692,316.077 180.333 M216.750 181.905 C 217.254 181.982,218.079 181.982,218.583 181.905 C 219.088 181.829,218.675 181.767,217.667 181.767 C 216.658 181.767,216.246 181.829,216.750 181.905 M315.744 185.333 C 315.744 185.975,315.813 186.237,315.896 185.917 C 315.980 185.596,315.980 185.071,315.896 184.750 C 315.813 184.429,315.744 184.692,315.744 185.333 M312.417 195.500 C 312.421 196.233,312.489 196.494,312.569 196.079 C 312.649 195.665,312.646 195.065,312.562 194.746 C 312.479 194.427,312.414 194.767,312.417 195.500 M219.818 198.750 L 218.500 200.167 219.917 198.849 C 220.696 198.124,221.333 197.487,221.333 197.432 C 221.333 197.180,221.043 197.433,219.818 198.750 M288.077 203.333 C 288.077 203.975,288.146 204.237,288.230 203.917 C 288.314 203.596,288.314 203.071,288.230 202.750 C 288.146 202.429,288.077 202.692,288.077 203.333 M83.751 215.167 C 83.754 215.900,83.823 216.161,83.902 215.746 C 83.982 215.331,83.979 214.731,83.896 214.413 C 83.812 214.094,83.747 214.433,83.751 215.167 M85.667 220.771 C 85.667 220.828,86.154 221.316,86.750 221.854 L 87.833 222.833 86.854 221.750 C 85.942 220.740,85.667 220.513,85.667 220.771 M305.667 252.833 C 306.662 253.842,307.552 254.667,307.644 254.667 C 307.736 254.667,306.996 253.842,306.000 252.833 C 305.004 251.825,304.114 251.000,304.023 251.000 C 303.931 251.000,304.671 251.825,305.667 252.833 M146.824 355.750 L 144.500 358.167 146.917 355.842 C 149.161 353.683,149.486 353.333,149.241 353.333 C 149.190 353.333,148.103 354.421,146.824 355.750 M79.762 361.913 C 80.823 361.980,82.473 361.979,83.429 361.912 C 84.385 361.845,83.517 361.791,81.500 361.791 C 79.483 361.792,78.701 361.847,79.762 361.913 M77.921 384.902 C 78.335 384.982,78.935 384.979,79.254 384.896 C 79.573 384.812,79.233 384.747,78.500 384.751 C 77.767 384.754,77.506 384.823,77.921 384.902 M89.750 384.896 C 90.071 384.980,90.596 384.980,90.917 384.896 C 91.237 384.813,90.975 384.744,90.333 384.744 C 89.692 384.744,89.429 384.813,89.750 384.896 " stroke="none" fill="#4b4a49" fill-rule="evenodd"></path><path id="path7" d="M178.750 75.896 C 179.071 75.980,179.596 75.980,179.917 75.896 C 180.237 75.813,179.975 75.744,179.333 75.744 C 178.692 75.744,178.429 75.813,178.750 75.896 M187.315 87.583 L 186.167 88.833 187.417 87.685 C 188.580 86.615,188.820 86.333,188.565 86.333 C 188.510 86.333,187.947 86.896,187.315 87.583 M170.000 89.218 C 169.541 89.460,169.391 89.657,169.667 89.657 C 170.241 89.656,171.225 89.100,170.990 88.907 C 170.904 88.836,170.458 88.976,170.000 89.218 M178.917 91.693 C 178.108 92.164,178.148 93.878,178.978 94.322 C 179.960 94.847,180.243 94.733,179.408 94.148 C 178.527 93.531,178.462 92.778,179.218 91.943 C 179.839 91.257,179.767 91.198,178.917 91.693 M185.500 105.667 C 185.168 106.033,184.578 106.333,184.189 106.333 C 183.197 106.333,182.000 107.249,182.000 108.008 C 182.000 108.361,181.590 108.868,181.083 109.143 C 180.579 109.416,180.304 109.646,180.471 109.653 C 181.036 109.678,183.825 107.710,185.151 106.351 C 185.876 105.608,186.386 105.000,186.286 105.000 C 186.186 105.000,185.832 105.300,185.500 105.667 M158.750 106.230 C 159.071 106.314,159.596 106.314,159.917 106.230 C 160.237 106.146,159.975 106.077,159.333 106.077 C 158.692 106.077,158.429 106.146,158.750 106.230 M163.193 107.260 L 162.554 108.167 163.527 107.333 C 164.062 106.875,164.563 106.462,164.639 106.417 C 164.715 106.371,164.565 106.338,164.306 106.344 C 164.046 106.350,163.545 106.762,163.193 107.260 M161.713 109.011 C 161.280 109.372,161.082 109.667,161.273 109.667 C 161.609 109.667,162.667 108.764,162.667 108.476 C 162.667 108.249,162.548 108.315,161.713 109.011 M173.795 110.108 L 173.757 111.098 174.185 110.300 C 174.529 109.657,174.828 109.524,175.723 109.616 C 176.334 109.679,176.757 109.652,176.664 109.557 C 175.898 108.773,173.831 109.170,173.795 110.108 M167.147 118.852 C 166.510 119.362,166.511 119.365,167.167 119.063 C 167.533 118.895,168.058 118.673,168.333 118.571 C 168.765 118.411,168.763 118.382,168.314 118.360 C 168.028 118.345,167.503 118.567,167.147 118.852 M304.287 120.686 L 303.500 121.373 304.500 120.787 C 305.816 120.017,305.836 120.000,305.426 120.000 C 305.232 120.000,304.720 120.309,304.287 120.686 M331.417 123.167 C 331.421 123.900,331.489 124.161,331.569 123.746 C 331.649 123.331,331.646 122.731,331.562 122.413 C 331.479 122.094,331.414 122.433,331.417 123.167 M314.263 123.594 L 313.693 124.833 314.347 124.046 C 314.706 123.614,315.000 123.051,315.000 122.796 C 315.000 122.111,314.892 122.228,314.263 123.594 M324.204 132.524 C 323.865 133.406,324.598 134.337,325.595 134.295 C 326.280 134.265,326.338 134.218,325.833 134.100 C 324.977 133.899,324.328 133.068,324.559 132.468 C 324.657 132.210,324.663 132.000,324.571 132.000 C 324.480 132.000,324.314 132.236,324.204 132.524 M328.750 133.230 C 329.071 133.314,329.596 133.314,329.917 133.230 C 330.237 133.146,329.975 133.077,329.333 133.077 C 328.692 133.077,328.429 133.146,328.750 133.230 M298.751 134.833 C 298.754 135.567,298.823 135.827,298.902 135.413 C 298.982 134.998,298.979 134.398,298.896 134.079 C 298.812 133.761,298.747 134.100,298.751 134.833 M307.241 141.076 C 307.426 141.309,307.660 141.725,307.762 142.000 C 307.889 142.341,307.956 142.273,307.974 141.786 C 307.988 141.393,307.754 140.977,307.453 140.861 C 307.044 140.704,306.990 140.758,307.241 141.076 M304.421 141.239 C 304.928 141.316,305.678 141.314,306.088 141.235 C 306.498 141.156,306.083 141.093,305.167 141.095 C 304.250 141.098,303.915 141.163,304.421 141.239 M306.912 143.752 L 306.324 144.833 306.995 144.046 C 307.567 143.377,307.872 142.661,307.583 142.669 C 307.537 142.670,307.235 143.157,306.912 143.752 M322.782 148.276 C 323.085 148.612,323.333 149.428,323.333 150.090 C 323.333 150.752,323.455 151.369,323.605 151.462 C 323.928 151.661,323.586 148.679,323.217 148.082 C 323.076 147.854,322.796 147.667,322.595 147.667 C 322.394 147.667,322.478 147.941,322.782 148.276 M320.103 150.833 C 320.105 151.933,320.167 152.343,320.242 151.744 C 320.316 151.145,320.314 150.245,320.238 149.744 C 320.162 149.243,320.101 149.733,320.103 150.833 M307.833 154.000 C 308.549 154.733,309.210 155.333,309.302 155.333 C 309.394 155.333,308.883 154.733,308.167 154.000 C 307.451 153.267,306.790 152.667,306.698 152.667 C 306.606 152.667,307.117 153.267,307.833 154.000 M314.587 157.569 C 315.002 157.649,315.602 157.646,315.921 157.562 C 316.239 157.479,315.900 157.414,315.167 157.417 C 314.433 157.421,314.173 157.489,314.587 157.569 " stroke="none" fill="#0c0670" fill-rule="evenodd"></path><path id="path8" d="M185.327 124.083 C 185.013 124.730,185.024 124.758,185.407 124.289 C 185.650 123.989,186.146 123.669,186.508 123.578 C 187.105 123.426,187.098 123.407,186.428 123.372 C 185.968 123.348,185.553 123.616,185.327 124.083 M204.088 126.906 C 204.595 126.982,205.345 126.980,205.755 126.901 C 206.165 126.822,205.750 126.760,204.833 126.762 C 203.917 126.765,203.581 126.829,204.088 126.906 M180.767 137.000 C 180.767 138.008,180.829 138.421,180.905 137.917 C 180.982 137.412,180.982 136.587,180.905 136.083 C 180.829 135.579,180.767 135.992,180.767 137.000 " stroke="none" fill="#4c6626" fill-rule="evenodd"></path></g></svg>