<svg xmlns="http://www.w3.org/2000/svg" viewBox="0 0 238 169" width="238" height="169" preserveAspectRatio="xMinYMin meet" style=""><defs><clipPath id="__lottie_element_2"><rect width="238" height="169" x="0" y="0"></rect></clipPath></defs><g clip-path="url(#__lottie_element_2)"><g transform="matrix(1,0,0,1,47.4379997253418,54.5)" opacity="1" style="display: block;"><g opacity="1" transform="matrix(1,0,0,1,9.137999534606934,4.906000137329102)"><path fill="rgb(232,209,180)" fill-opacity="1" d=" M8.887999534606934,4.656000137329102 C8.887999534606934,4.656000137329102 8.887999534606934,4.23199987411499 8.887999534606934,4.23199987411499 C8.887999534606934,-0.6759999990463257 4.9079999923706055,-4.656000137329102 -0.0010000000474974513,-4.656000137329102 C-4.908999919891357,-4.656000137329102 -8.887999534606934,-0.6759999990463257 -8.887999534606934,4.23199987411499 C-8.887999534606934,4.23199987411499 -8.887999534606934,4.656000137329102 -8.887999534606934,4.656000137329102 C-8.887999534606934,4.656000137329102 8.887999534606934,4.656000137329102 8.887999534606934,4.656000137329102z"></path></g></g><g transform="matrix(1,0,0,1,47.5,103.625)" opacity="1" style="display: block;"><g opacity="1" transform="matrix(1,0,0,1,9.13700008392334,4.906000137329102)"><path fill="rgb(232,209,180)" fill-opacity="1" d=" M-8.88700008392334,-4.656000137329102 C-8.88700008392334,-4.656000137329102 -8.88700008392334,-4.23199987411499 -8.88700008392334,-4.23199987411499 C-8.88700008392334,0.6759999990463257 -4.908999919891357,4.656000137329102 0,4.656000137329102 C4.9079999923706055,4.656000137329102 8.88700008392334,0.6759999990463257 8.88700008392334,-4.23199987411499 C8.88700008392334,-4.23199987411499 8.88700008392334,-4.656000137329102 8.88700008392334,-4.656000137329102 C8.88700008392334,-4.656000137329102 -8.88700008392334,-4.656000137329102 -8.88700008392334,-4.656000137329102z"></path></g></g><g transform="matrix(1,0,0,1,78.75,128.875)" opacity="1" style="display: block;"><g opacity="1" transform="matrix(1,0,0,1,9.13700008392334,4.906000137329102)"><path fill="rgb(232,209,180)" fill-opacity="1" d=" M-8.88700008392334,-4.656000137329102 C-8.88700008392334,-4.656000137329102 -8.88700008392334,-4.23199987411499 -8.88700008392334,-4.23199987411499 C-8.88700008392334,0.6759999990463257 -4.908999919891357,4.656000137329102 0,4.656000137329102 C4.9079999923706055,4.656000137329102 8.88700008392334,0.6759999990463257 8.88700008392334,-4.23199987411499 C8.88700008392334,-4.23199987411499 8.88700008392334,-4.656000137329102 8.88700008392334,-4.656000137329102 C8.88700008392334,-4.656000137329102 -8.88700008392334,-4.656000137329102 -8.88700008392334,-4.656000137329102z"></path></g></g><g transform="matrix(1,0,0,1,78.875,30.625)" opacity="1" style="display: block;"><g opacity="1" transform="matrix(1,0,0,1,9.137999534606934,4.906000137329102)"><path fill="rgb(232,209,180)" fill-opacity="1" d=" M8.887999534606934,4.656000137329102 C8.887999534606934,4.656000137329102 8.887999534606934,4.23199987411499 8.887999534606934,4.23199987411499 C8.887999534606934,-0.6759999990463257 4.9079999923706055,-4.656000137329102 -0.0010000000474974513,-4.656000137329102 C-4.908999919891357,-4.656000137329102 -8.887999534606934,-0.6759999990463257 -8.887999534606934,4.23199987411499 C-8.887999534606934,4.23199987411499 -8.887999534606934,4.656000137329102 -8.887999534606934,4.656000137329102 C-8.887999534606934,4.656000137329102 8.887999534606934,4.656000137329102 8.887999534606934,4.656000137329102z"></path></g></g><g transform="matrix(1,0,0,1,109.75,149.72999572753906)" opacity="1" style="display: block;"><g opacity="1" transform="matrix(1,0,0,1,9.13700008392334,4.906000137329102)"><path fill="rgb(232,209,180)" fill-opacity="1" d=" M-8.88700008392334,-4.656000137329102 C-8.88700008392334,-4.656000137329102 -8.88700008392334,-4.23199987411499 -8.88700008392334,-4.23199987411499 C-8.88700008392334,0.6759999990463257 -4.908999919891357,4.656000137329102 0,4.656000137329102 C4.9079999923706055,4.656000137329102 8.88700008392334,0.6759999990463257 8.88700008392334,-4.23199987411499 C8.88700008392334,-4.23199987411499 8.88700008392334,-4.656000137329102 8.88700008392334,-4.656000137329102 C8.88700008392334,-4.656000137329102 -8.88700008392334,-4.656000137329102 -8.88700008392334,-4.656000137329102z"></path></g></g><g transform="matrix(1,0,0,1,109.875,9.536999702453613)" opacity="1" style="display: block;"><g opacity="1" transform="matrix(1,0,0,1,9.137999534606934,4.906000137329102)"><path fill="rgb(232,209,180)" fill-opacity="1" d=" M8.887999534606934,4.656000137329102 C8.887999534606934,4.656000137329102 8.887999534606934,4.23199987411499 8.887999534606934,4.23199987411499 C8.887999534606934,-0.6759999990463257 4.9079999923706055,-4.656000137329102 -0.0010000000474974513,-4.656000137329102 C-4.908999919891357,-4.656000137329102 -8.887999534606934,-0.6759999990463257 -8.887999534606934,4.23199987411499 C-8.887999534606934,4.23199987411499 -8.887999534606934,4.656000137329102 -8.887999534606934,4.656000137329102 C-8.887999534606934,4.656000137329102 8.887999534606934,4.656000137329102 8.887999534606934,4.656000137329102z"></path></g></g><g transform="matrix(1,0,0,1,140.75,129.6179962158203)" opacity="1" style="display: block;"><g opacity="1" transform="matrix(1,0,0,1,9.13700008392334,4.906000137329102)"><path fill="rgb(232,209,180)" fill-opacity="1" d=" M-8.88700008392334,-4.656000137329102 C-8.88700008392334,-4.656000137329102 -8.88700008392334,-4.23199987411499 -8.88700008392334,-4.23199987411499 C-8.88700008392334,0.6759999990463257 -4.908999919891357,4.656000137329102 0,4.656000137329102 C4.9079999923706055,4.656000137329102 8.88700008392334,0.6759999990463257 8.88700008392334,-4.23199987411499 C8.88700008392334,-4.23199987411499 8.88700008392334,-4.656000137329102 8.88700008392334,-4.656000137329102 C8.88700008392334,-4.656000137329102 -8.88700008392334,-4.656000137329102 -8.88700008392334,-4.656000137329102z"></path></g></g><g transform="matrix(1,0,0,1,140.875,31.810001373291016)" opacity="1" style="display: block;"><g opacity="1" transform="matrix(1,0,0,1,9.137999534606934,4.906000137329102)"><path fill="rgb(232,209,180)" fill-opacity="1" d=" M8.887999534606934,4.656000137329102 C8.887999534606934,4.656000137329102 8.887999534606934,4.23199987411499 8.887999534606934,4.23199987411499 C8.887999534606934,-0.6759999990463257 4.9079999923706055,-4.656000137329102 -0.0010000000474974513,-4.656000137329102 C-4.908999919891357,-4.656000137329102 -8.887999534606934,-0.6759999990463257 -8.887999534606934,4.23199987411499 C-8.887999534606934,4.23199987411499 -8.887999534606934,4.656000137329102 -8.887999534606934,4.656000137329102 C-8.887999534606934,4.656000137329102 8.887999534606934,4.656000137329102 8.887999534606934,4.656000137329102z"></path></g></g><g transform="matrix(1,0,0,1,172.125,105.86799621582031)" opacity="1" style="display: block;"><g opacity="1" transform="matrix(1,0,0,1,9.13700008392334,4.906000137329102)"><path fill="rgb(232,209,180)" fill-opacity="1" d=" M-8.88700008392334,-4.656000137329102 C-8.88700008392334,-4.656000137329102 -8.88700008392334,-4.23199987411499 -8.88700008392334,-4.23199987411499 C-8.88700008392334,0.6759999990463257 -4.908999919891357,4.656000137329102 0,4.656000137329102 C4.9079999923706055,4.656000137329102 8.88700008392334,0.6759999990463257 8.88700008392334,-4.23199987411499 C8.88700008392334,-4.23199987411499 8.88700008392334,-4.656000137329102 8.88700008392334,-4.656000137329102 C8.88700008392334,-4.656000137329102 -8.88700008392334,-4.656000137329102 -8.88700008392334,-4.656000137329102z"></path></g></g><g transform="matrix(1,0,0,1,172.25,53.060001373291016)" opacity="1" style="display: block;"><g opacity="1" transform="matrix(1,0,0,1,9.137999534606934,4.906000137329102)"><path fill="rgb(232,209,180)" fill-opacity="1" d=" M8.887999534606934,4.656000137329102 C8.887999534606934,4.656000137329102 8.887999534606934,4.23199987411499 8.887999534606934,4.23199987411499 C8.887999534606934,-0.6759999990463257 4.9079999923706055,-4.656000137329102 -0.0010000000474974513,-4.656000137329102 C-4.908999919891357,-4.656000137329102 -8.887999534606934,-0.6759999990463257 -8.887999534606934,4.23199987411499 C-8.887999534606934,4.23199987411499 -8.887999534606934,4.656000137329102 -8.887999534606934,4.656000137329102 C-8.887999534606934,4.656000137329102 8.887999534606934,4.656000137329102 8.887999534606934,4.656000137329102z"></path></g></g><g transform="matrix(1,0,0,1,47.4640007019043,61.810997009277344)" opacity="1" style="display: block;"><g opacity="1" transform="matrix(1,0,0,1,9.137999534606934,22.4689998626709)"><path fill="rgb(232,209,180)" fill-opacity="1" d=" M8.88700008392334,22.2189998626709 C8.88700008392334,22.2189998626709 -8.88700008392334,22.2189998626709 -8.88700008392334,22.2189998626709 C-8.88700008392334,22.2189998626709 -8.88700008392334,-22.2189998626709 -8.88700008392334,-22.2189998626709 C-8.88700008392334,-22.2189998626709 8.88700008392334,-22.2189998626709 8.88700008392334,-22.2189998626709 C8.88700008392334,-22.2189998626709 8.88700008392334,22.2189998626709 8.88700008392334,22.2189998626709z"></path></g></g><g transform="matrix(1,0,0,-1.0451699495315552,78.66300201416016,130.98651123046875)" opacity="1" style="display: block;"><g opacity="1" transform="matrix(1,0,0,1,9.137999534606934,44.6870002746582)"><path fill="rgb(232,209,180)" fill-opacity="1" d=" M8.88700008392334,44.4379997253418 C8.88700008392334,44.4379997253418 -8.88700008392334,44.4379997253418 -8.88700008392334,44.4379997253418 C-8.88700008392334,44.4379997253418 -8.88700008392334,-44.4379997253418 -8.88700008392334,-44.4379997253418 C-8.88700008392334,-44.4379997253418 8.88700008392334,-44.4379997253418 8.88700008392334,-44.4379997253418 C8.88700008392334,-44.4379997253418 8.88700008392334,44.4379997253418 8.88700008392334,44.4379997253418z"></path></g></g><g transform="matrix(1,0,0,1,109.86100006103516,17.375)" opacity="1" style="display: block;"><g opacity="1" transform="matrix(1,0,0,1,9.137999534606934,66.90599822998047)"><path fill="rgb(232,209,180)" fill-opacity="1" d=" M8.88700008392334,66.65599822998047 C8.88700008392334,66.65599822998047 -8.88700008392334,66.65599822998047 -8.88700008392334,66.65599822998047 C-8.88700008392334,66.65599822998047 -8.88700008392334,-66.65599822998047 -8.88700008392334,-66.65599822998047 C-8.88700008392334,-66.65599822998047 8.88700008392334,-66.65599822998047 8.88700008392334,-66.65599822998047 C8.88700008392334,-66.65599822998047 8.88700008392334,66.65599822998047 8.88700008392334,66.65599822998047z"></path></g></g><g transform="matrix(1,0,0,-1.0451699495315552,141.06201171875,130.98651123046875)" opacity="1" style="display: block;"><g opacity="1" transform="matrix(1,0,0,1,9.13700008392334,44.6870002746582)"><path fill="rgb(232,209,180)" fill-opacity="1" d=" M8.88700008392334,44.4379997253418 C8.88700008392334,44.4379997253418 -8.88700008392334,44.4379997253418 -8.88700008392334,44.4379997253418 C-8.88700008392334,44.4379997253418 -8.88700008392334,-44.4379997253418 -8.88700008392334,-44.4379997253418 C-8.88700008392334,-44.4379997253418 8.88700008392334,-44.4379997253418 8.88700008392334,-44.4379997253418 C8.88700008392334,-44.4379997253418 8.88700008392334,44.4379997253418 8.88700008392334,44.4379997253418z"></path></g></g><g transform="matrix(1,0,0,1,172.26100158691406,61.810997009277344)" opacity="1" style="display: block;"><g opacity="1" transform="matrix(1,0,0,1,9.13700008392334,22.4689998626709)"><path fill="rgb(232,209,180)" fill-opacity="1" d=" M8.88700008392334,22.2189998626709 C8.88700008392334,22.2189998626709 -8.88700008392334,22.2189998626709 -8.88700008392334,22.2189998626709 C-8.88700008392334,22.2189998626709 -8.88700008392334,-22.2189998626709 -8.88700008392334,-22.2189998626709 C-8.88700008392334,-22.2189998626709 8.88700008392334,-22.2189998626709 8.88700008392334,-22.2189998626709 C8.88700008392334,-22.2189998626709 8.88700008392334,22.2189998626709 8.88700008392334,22.2189998626709z"></path></g></g></g></svg>