<svg xmlns="http://www.w3.org/2000/svg" viewBox="0 0 600 600" width="600" height="600" preserveAspectRatio="xMinYMin meet" style="width: 100%; height: 100%; transform: translate3d(0px, 0px, 0px);"><defs><clipPath id="__lottie_element_2"><rect width="600" height="600" x="0" y="0"/></clipPath></defs><g clip-path="url(#__lottie_element_2)"><g transform="matrix(1,0,0,1,300,300)" opacity="1" style="display: block;"><g opacity="1" transform="matrix(1,0,0,1,0,0)"><path fill="rgb(255,221,0)" fill-opacity="1" d="M0 0"/><path stroke-linecap="round" stroke-linejoin="round" fill-opacity="0" stroke="rgb(254,245,189)" stroke-opacity="1" stroke-width="40" d=" M-226,-140.40499877929688 C-226,-57.09600067138672 -226,63.09600067138672 -226,146.40499877929688"/></g></g><g transform="matrix(1,0,0,1,300,300)" opacity="1" style="display: block;"><g opacity="1" transform="matrix(1,0,0,1,0,0)"><path fill="rgb(255,221,0)" fill-opacity="1" d="M0 0"/><path stroke-linecap="round" stroke-linejoin="round" fill-opacity="0" stroke="rgb(254,245,189)" stroke-opacity="1" stroke-width="40" d=" M-114,-44.801998138427734 C-114,-13.319000244140625 -114,19.319000244140625 -114,50.801998138427734"/></g></g><g transform="matrix(1,0,0,1,300,300)" opacity="1" style="display: block;"><g opacity="1" transform="matrix(1,0,0,1,0,0)"><path fill="rgb(255,221,0)" fill-opacity="1" d="M0 0"/><path stroke-linecap="round" stroke-linejoin="round" fill-opacity="0" stroke="rgb(254,245,189)" stroke-opacity="1" stroke-width="40" d=" M-2,-188.20599365234375 C-2,-96.62100219726562 -2,102.62100219726562 -2,194.20599365234375"/></g></g><g transform="matrix(1,0,0,1,300,300)" opacity="1" style="display: block;"><g opacity="1" transform="matrix(1,0,0,1,0,0)"><path fill="rgb(255,221,0)" fill-opacity="1" d="M0 0"/><path stroke-linecap="round" stroke-linejoin="round" fill-opacity="0" stroke="rgb(254,245,189)" stroke-opacity="1" stroke-width="40" d=" M114,-44.801998138427734 C114,-13.319000244140625 114,19.319000244140625 114,50.801998138427734"/></g></g><g transform="matrix(1,0,0,1,300,300)" opacity="1" style="display: block;"><g opacity="1" transform="matrix(1,0,0,1,0,0)"><path fill="rgb(255,221,0)" fill-opacity="1" d="M0 0"/><path stroke-linecap="round" stroke-linejoin="round" fill-opacity="0" stroke="rgb(254,245,189)" stroke-opacity="1" stroke-width="40" d=" M226,-140.40499877929688 C226,-57.09600067138672 226,63.09600067138672 226,146.40499877929688"/></g></g></g></svg>